<svg width="393" height="278" xmlns="http://www.w3.org/2000/svg" enable-background="new 0 0 850 850">

 <g>
  <title>Layer 1</title>
  <path id="svg_1" d="m274.2,227.51086l-261.5,0c-7,0 -12.7,-5.7 -12.7,-12.7l0,-179.8c0,-7 5.7,-12.7 12.7,-12.7l261.4,0c7,0 12.7,5.7 12.7,12.7l0,179.8c0.1,7 -5.6,12.7 -12.6,12.7z" fill="#5c6f77"/>
  <path id="svg_2" d="m268.5,204.01086l-250,0c-6.3,0 -11.4,-5.1 -11.4,-11.4l0,-151.4c0,-6.3 5.1,-11.4 11.4,-11.4l250,0c6.3,0 11.4,5.1 11.4,11.4l0,151.3c0,6.3 -5.1,11.5 -11.4,11.5z" fill="#dfdfdf"/>
  <circle transform="rotate(-76.714 143.486 215.332)" id="svg_3" fill="#f3f3f3" r="8.9" cy="215.31086" cx="143.4"/>
  <polygon id="svg_4" points="182.8000030517578,252.41085815429688 104.09999084472656,252.41085815429688 113.40000915527344,226.81088256835938 173.49998474121094,226.81088256835938 " fill="#415560"/>
  <path id="svg_5" d="m198.3,261.81086l-109.7,0c-2.2,0 -3.7,-2.2 -2.9,-4.2l3.1,-7.9c0.5,-1.2 1.6,-2 2.9,-2l103.5,0c1.3,0 2.4,0.8 2.9,2l3.1,7.9c0.7,2 -0.8,4.2 -2.9,4.2z" fill="#5c6f77"/>
  <circle id="svg_6" fill="#dfdfdf" r="9.6" cy="9.61086" cx="273.8"/>
  <path id="svg_7" d="m283.3,7.51086c-0.2,1 -0.6,2 -1.1,2.9c-2.7,4.6 -8.6,6.1 -13.2,3.3c-2.4,-1.4 -3.9,-3.7 -4.5,-6.3c-0.1,0.7 -0.2,1.3 -0.2,2c0,5.3 4.3,9.6 9.6,9.6c5.3,0 9.6,-4.3 9.6,-9.6c0,-0.5 -0.1,-1.2 -0.2,-1.9z" fill="#c9c9c9"/>
  <path id="svg_8" d="m381.5,66.41086c0.2,1 12.4,29.8 11.8,35.8c-1,10.4 -9.5,28.3 -9.5,28.3l-5.3,-3.1c0,0 3.9,-20.3 3.4,-24.2c-0.5,-3.8 -11,-30.1 -11,-30.1l10.6,-6.7z" fill="#fabea8"/>
  <path id="svg_9" d="m378.9,125.91086c0,0 -2.9,0.3 -4.6,2.2c-1.6,2 -3.4,3.1 -4.5,4.6c-1.1,1.5 1.3,0.9 2.5,0.3c1.2,-0.6 2.6,-1.3 2.9,-0.2c0.2,1 -2.2,9.8 -1.7,11.1c0.5,1.3 1.3,0 1.3,0s-0.5,2.1 0.2,2.6c0.2,0.1 0.8,0 1.2,-0.9c0.9,-2.1 2.5,-6.7 2.5,-6.7c-0.1,0.3 -1.7,6 -1.8,6.9c-0.2,1.2 0.3,1.8 1,1.8c0.9,0.1 3.2,-7 3.4,-7.2c0,0 -1.4,4 -0.6,4.9c0.8,0.9 1.8,-1.6 2.3,-3.9c0.5,-2.2 1.9,-6.3 2.2,-8.5c0.3,-2.7 0,-4.6 -2.2,-5.9c-2.1,-1.3 -4.1,-1.1 -4.1,-1.1z" fill="#fabea8"/>
  <path id="svg_10" d="m326.3,62.01086c-0.9,-0.5 -33,1.1 -39.8,-3.6c-8.5,-6 -17.4,-23.1 -17.4,-23.1l6.4,-1.9c0,0 12.7,13.4 15.8,15.7c3.2,2.2 37.3,0.7 37.3,0.7l-2.3,12.2z" fill="#fabea8"/>
  <path id="svg_11" d="m276.3,35.41086c0,0 1.8,-2.3 1.5,-4.9c-0.3,-2.5 0.1,-4.6 -0.3,-6.5c-0.4,-1.9 -1.6,0.3 -2,1.6c-0.4,1.3 -0.9,2.8 -1.8,2.3c-0.9,-0.5 -5.6,-8.3 -7,-8.8c-1.3,-0.6 -0.9,0.9 -0.9,0.9s-1.2,-1.9 -2,-1.6c-0.2,0.1 -0.6,0.6 -0.2,1.5c1,2.1 3.2,6.4 3.2,6.4c-0.1,-0.2 -3.2,-5.3 -3.8,-6.1c-0.7,-0.9 -1.5,-1 -2,-0.5c-0.7,0.6 2.9,7.1 2.9,7.5c0,0 -2,-3.8 -3.2,-3.8c-1.2,0 -0.1,2.4 1.3,4.4c1.3,1.8 3.3,5.7 4.7,7.4c1.8,2.1 3.4,3.1 5.8,2.4c2.5,-0.7 3.8,-2.2 3.8,-2.2z" fill="#fabea8"/>
  <path id="svg_12" d="m380.2,255.31086l-5.4,-10.5c0,0 -14.1,2.6 -13.3,2.6c0.7,0 9.8,12.5 9.8,12.5l8,1.9l0.9,-6.5z" fill="#fabea8"/>
  <path id="svg_13" d="m370.2,259.11086l3.2,-1.6c0.7,-0.4 1.6,-0.3 2.3,0c3.1,1.6 4,-0.1 4.8,-3.5c1.2,-0.8 2.3,0.5 2.6,0.8l6.8,7.4c0.6,0.6 0.5,1.6 -0.1,2.2c-0.1,0.1 -0.2,0.2 -0.4,0.3c-3.9,2 -5.7,2.9 -10.5,5.4l-14.7,7.6c-4,2.1 -6.9,-1.6 -5.5,-2.8c6.6,-5.5 10.7,-10.4 11.9,-13.7c0.4,-0.6 -0.2,-0.7 -0.4,-2.1z" fill="#0d0d0e"/>
  <path id="svg_14" d="m293.7,251.71086l-0.3,-11.8c0,0 -13.8,-3.8 -13.1,-3.4c0.7,0.4 3.4,15.5 3.4,15.5l6.4,5.2l3.6,-5.5z" fill="#fabea8"/>
  <path stroke="null" style="vector-effect: non-scaling-stroke;" id="svg_15" d="m283.1,250.81086l3.6,-0.1c0.8,0 1.6,0.4 2.1,1c2.1,2.8 3.7,1.7 5.8,-1c1.4,-0.2 1.8,1.4 2,1.9l2.9,9.7c0.3,0.8 -0.2,1.7 -1,1.9c-0.1,0 -0.3,0.1 -0.4,0.1c-4.3,0.1 -6.4,0.2 -11.8,0.3l-16.6,0.4c-4.5,0.1 -5.6,-4.4 -3.7,-4.9c8.3,-2.1 14.2,-4.7 16.7,-7.2c0.4,-0.5 -0.1,-0.8 0.4,-2.1z" fill="#0d0d0e"/>
  <path id="svg_16" d="m374.3,119.51086c0,0 0,4.2 -7.9,5.5c-9.8,1.6 -45.9,-12.1 -45.9,-12.1l45.8,1.1l8,5.5z" fill="#1a2e35"/>
  <path id="svg_17" d="m374.3,119.51086c0,0 0,4.2 -7.9,5.5c-9.8,1.6 -45.9,-12.1 -45.9,-12.1l45.8,1.1l8,5.5z" fill="#fe715e"/>
  <path id="svg_18" d="m359.4,109.01086l-60.6,73.2c-2,23.4 -2.5,61.5 -2.5,61.5l-17.2,-0.5c0,0 -4.5,-35.7 -3.4,-65.5c0.1,-2.4 1.1,-4.6 2.2,-6.7c12.1,-23.7 49.1,-68.6 49.1,-68.6l32.4,6.6z" fill="#27343a"/>
  <path id="svg_19" d="m364.6,110.11086c8.7,19.3 -5.8,17.5 -13.8,79.9c1.6,2.3 26.6,57.3 26.6,57.3l-13.7,7.2c0,0 -24.2,-35.3 -34.3,-52.5c-2.6,-4.4 -2.5,-9.7 -2.2,-14.8c2.2,-37.8 9.7,-82.8 9.7,-82.8l27.7,5.7z" fill="#2f3e46"/>
  <path id="svg_20" d="m343.1,58.21086c-1.7,4.9 -24.4,9.5 -24.4,9.5l-5.2,-18.6c0.5,-0.4 13,-1.9 23.9,-3.2c8.5,-0.4 7.5,7.2 5.7,12.3z" fill="#fe715e"/>
  <path id="svg_21" d="m350.9,46.71086c6.3,0.9 12.4,2.1 18.5,3.8c5.8,1.5 10.8,2.2 11.1,7.4c-8.1,17.7 -11.2,26.1 -13.7,35.6c-2,7.9 6.8,16 7.4,26c-20.1,-7.4 -34.7,6.3 -56.4,-7.5c2.7,-3.9 7.3,-12.9 7.8,-16.2c1.7,-12.2 -0.1,-22.9 1.3,-29.9c1.8,-8.7 12.1,-20 12.1,-20s3.8,-0.1 11.9,0.8z" fill="#fe715e"/>
  <path id="svg_22" d="m362.2,62.41086c3.4,5.9 11.4,16.2 11.4,16.2l14.9,-7.3c0,0 -6.6,-15 -9.4,-17c-4.6,-0.9 -19.6,3.4 -16.9,8.1z" fill="#fe715e"/>
  <path id="svg_23" d="m327,65.91086c0.7,-2.6 1,-3.2 3.7,-6.9l-13.1,4.5l1.2,4.2l8.2,-1.8z" fill="#bf5547"/>
  <path id="svg_24" d="m268.7,1.41086l0,0.3c0.2,2.4 2.1,4.5 4.4,5c2.3,0.5 4.9,-0.6 6.1,-2.6c0.4,-0.6 0.7,-1.4 0.4,-2.1c0,0 0,0 0,-0.1c-1.6,-1.2 -3.6,-1.9 -5.8,-1.9c-1.8,-0.1 -3.6,0.5 -5.1,1.4z" fill="#c9c9c9"/>
  <path id="svg_25" d="m347.6,44.51086c11.7,5.1 17.8,0.8 22.3,-3l-1.2,2c0,0 6.6,-1.8 7.1,-8.2c0.5,-6.5 1.1,-5.5 3.9,-8.3c2.8,-2.8 1.7,-8 -1.1,-9.2c0,0 4.5,-2.9 -6.2,-11.1c-10.8,-8.3 -24.6,-4.6 -26.4,2.1c-1.8,6.7 -10.8,7.8 -13.3,3.1c-2.5,-4.8 -5.4,-3.1 -5.4,-3.1c1.8,-0.1 3.4,1.1 4,2.8c0.6,1.7 1.7,3.1 3.2,4.2c-2.3,-0.6 -4.4,-1.8 -6.1,-3.5c-2.9,-2.9 -6.3,-7.4 -1.4,-10.2c0,0 -4.8,-2.3 -8.6,3.4c-3.8,5.8 -1.4,12.1 4.1,17.9c0,0 -8.7,-6.5 -7.1,-10.6c0,0 -5,5.2 4,16.2c0,0 9.4,12.1 19.4,14.6c10.1,2.2 8.8,0.9 8.8,0.9z" fill="#0d0d0e"/>
  <path id="svg_26" d="m364.3,48.71086c0,0 -3.7,1 -8.9,3.3c-1.1,0.5 -2.2,0.8 -3.4,1.1c-3.1,0.6 -5.8,0.7 -6.1,-0.8c-0.1,-0.3 -0.1,-0.7 -0.1,-1c0.1,-2.4 1.2,-5.3 3.4,-6.2c2.5,-1 3.8,-2.1 4.1,-4.3c0.2,-1.3 0.1,-2.7 0,-4l2.1,-1.4l10.7,-5.8c-1.9,5.4 -5.3,14.8 -1.8,19.1z" fill="#fabea8"/>
  <path id="svg_27" d="m353.3,41.21086c2.7,-0.7 5.8,-2.2 6.3,-5c0.2,-1.2 0.3,-2.3 0.2,-3l-6.4,4.7c0.1,1.1 0,1.8 -0.1,3.3z" fill="#f69875"/>
  <path id="svg_28" d="m371.1,21.41086c-3.3,8.2 -4.5,11.7 -10.2,14.8c-8.5,4.7 -17.9,-0.6 -17.1,-9.4c0.7,-8 6,-20 15.3,-21c9.1,-1.1 15.3,7.4 12,15.6z" fill="#fabea8"/>
  <path id="svg_29" d="m347.4,12.91086c8.2,1.5 18.3,-3.7 20.1,-2.9c-2,0.4 -2.3,3.7 -2,4.9c1.7,7.3 -1.8,10.8 2.5,13c8.5,4.3 7.4,-14.1 2.4,-18.1c-0.4,-0.3 0,0 -0.4,-0.2c2.3,-8.3 -14.3,-6.3 -18.6,-3.7" fill="#0d0d0e"/>
  <path id="svg_30" d="m371.6,29.01086c-1.5,1.4 -3.5,2 -5,1.9c-2.4,-0.1 -2.5,-4 -1,-6c1.3,-1.8 3.9,-2.5 5.9,-1.4c1.9,1.1 1.8,3.9 0.1,5.5z" fill="#fabea8"/>
  <path id="svg_31" d="m345.8,13.51086c1.8,-1.6 4.6,-1.8 7.1,-1.5c2.5,0.3 6.2,1 9,2c2.2,0.9 2.7,2.7 3,4.8c0.3,2.1 -0.5,4.3 -2.2,5.7c-1.8,1.3 -4.5,1.6 -6.4,0.4c-1.6,-1.1 -2.7,-3.2 -4.7,-3.2c-2,0 -3.5,2.3 -5.4,1.9c-1.7,-0.3 -2.2,-2.2 -2.3,-3.8c-0.2,-2.2 0.1,-4.7 1.9,-6.3z" fill="#5c6f77"/>
  <path id="svg_32" d="m346.2,13.81086c1.6,-1.4 4.1,-1.4 6.3,-1.1c2.2,0.3 5.5,0.9 8,1.7c2,0.7 2.6,2 2.8,3.8c0.3,1.7 -0.4,3.6 -2,4.8c-1.6,1.1 -3.2,1.2 -4.8,0.2c-1.5,-0.9 -2.9,-3.2 -4.7,-3.1c-1.8,0 -4.1,2.6 -5.8,2.3c-1.5,-0.2 -1.7,-2.4 -1.7,-3.7c0,-2 0.3,-3.6 1.9,-4.9z" fill="#f3f3f3"/>
  <path id="svg_33" d="m369.4,23.01086l-5.3,-7l-0.6,5.5l2.8,2.7c-0.1,-0.1 1,-1.1 3.1,-1.2z" fill="#5c6f77"/>
  <path id="svg_34" d="m364.3,22.31086c-0.1,0.1 0.8,-2.8 0.2,-4.6c0,0 1.7,3 0.7,5.4l-0.9,-0.8z" fill="#5c6f77"/>
  <rect id="svg_35" fill="#f3f3f3" y="53.91086" x="19.5" height="57.7" width="98.7"/>
  <polygon id="svg_36" points="98.19999694824219,107.51085662841797 86.09999084472656,73.41085052490234 74.40000915527344,94.31087493896484 63.9000129699707,82.71086883544922 57.59999465942383,98.01085662841797 41.20000076293945,67.6108627319336 20.000003814697266,90.01085662841797 18.89999771118164,88.91085052490234 41.4999885559082,64.91085052490234 57.4000129699707,94.41085052490234 63.4000129699707,79.81087493896484 74.09999084472656,91.6108627319336 86.40000915527344,69.6108627319336 97.90000915527344,101.91085052490234 102.90000915527344,80.91085052490234 110.90000915527344,92.21086883544922 117.49998474121094,82.31087493896484 118.80000305175781,83.21086883544922 110.99998474121094,94.91085052490234 103.69999694824219,84.6108627319336 " fill="#5c6f77"/>
  <rect id="svg_37" fill="#c9c9c9" y="53.91086" x="134" height="80.2" width="129.9"/>
  <rect id="svg_38" fill="#5c6f77" y="65.81086" x="142.4" height="22" width="22"/>
  <rect id="svg_39" fill="#5c6f77" y="71.21086" x="174.1" height="2.3" width="43.2"/>
  <rect id="svg_40" fill="#5c6f77" y="80.11086" x="174.1" height="2.3" width="63.6"/>
  <rect id="svg_41" fill="#5c6f77" y="99.41086" x="142.4" height="22" width="22"/>
  <rect id="svg_42" fill="#5c6f77" y="104.81086" x="174.1" height="2.3" width="43.2"/>
  <rect id="svg_43" fill="#5c6f77" y="113.71086" x="174.1" height="2.3" width="63.6"/>
  <polygon id="svg_44" points="118.09999084472656,172.41085815429688 18.700000762939453,172.41085815429688 18.700000762939453,121.41085052490234 20.300006866455078,121.41085052490234 20.300006866455078,170.91085815429688 118.09999084472656,170.91085815429688 " fill="#f3f3f3"/>
  <rect id="svg_45" fill="#5c6f77" y="127.51086" x="108.2" height="44.2" width="3.7"/>
  <rect id="svg_46" fill="#5c6f77" y="137.61086" x="95" height="34.1" width="3.7"/>
  <rect id="svg_47" fill="#5c6f77" y="127.51086" x="81.8" height="44.2" width="3.7"/>
  <rect id="svg_48" fill="#5c6f77" y="151.51086" x="68.6" height="20.1" width="3.7"/>
  <g id="svg_49">
   <rect id="svg_50" fill="#5c6f77" y="131.41086" x="55.4" height="40.2" width="3.7"/>
  </g>
  <g id="svg_51">
   <rect id="svg_52" fill="#5c6f77" y="140.11086" x="42.2" height="31.5" width="3.7"/>
  </g>
  <g id="svg_53">
   <rect id="svg_54" fill="#5c6f77" y="127.51086" x="28.9" height="44.2" width="3.7"/>
  </g>
  <g id="svg_55">
   <rect id="svg_56" fill="#5c6f77" y="149.61086" x="136.2" height="22.1" width="127.7"/>
  </g>
 </g>
</svg>