<svg id="e5ba4dba-d7c6-4394-adcb-ad50fd27ea2d" data-name="Layer 1" xmlns="http://www.w3.org/2000/svg" xmlns:xlink="http://www.w3.org/1999/xlink" viewBox="0 0 1009.54 717.96"><defs><linearGradient id="aaf27687-ce05-436a-9809-c99a240b7c1e" x1="554.8" y1="808.98" x2="554.8" y2="548.41" gradientUnits="userSpaceOnUse"><stop offset="0" stop-color="grey" stop-opacity="0.25"></stop><stop offset="0.5" stop-color="grey" stop-opacity="0.12"></stop><stop offset="1" stop-color="grey" stop-opacity="0.1"></stop></linearGradient></defs><title>typewriter</title><path d="M 681.8 202.4 c -64.7 -2.3 -126.4 -23.1 -185.2 -46 S 379.4 108.2 316.2 96.1 C 275.6 88.3 229.1 87.2 196.4 109 c -31.5 21 -41.7 57.1 -47.2 90.7 c -4.1 25.3 -6.5 51.8 4.7 75.5 c 7.8 16.4 21.7 30.2 31.4 46 c 33.5 54.7 9.8 122.2 -26.4 175.6 c -17 25.1 -36.8 49 -49.9 75.7 s -19.2 57.3 -7.7 84.5 c 11.4 27 38.5 47.2 67.9 61.5 c 59.7 28.9 130 37.2 198.6 41.9 c 151.8 10.4 304.5 5.9 456.7 1.4 c 56.3 -1.7 112.9 -3.4 168.3 -12.1 c 30.8 -4.8 62.5 -12.5 84.9 -31 c 28.4 -23.5 35.4 -63.4 16.4 -92.9 c -31.9 -49.5 -120 -61.8 -142.3 -114.9 c -12.3 -29.2 0.3 -61.8 18.2 -88.9 c 38.2 -58.2 102.3 -109.2 105.7 -175.7 c 2.3 -45.7 -28.5 -91.4 -76.1 -113 c -49.9 -22.6 -119.2 -19.8 -156 17.7 C 805.6 189.6 738.9 204.4 681.8 202.4 Z" transform="translate(-95.2,-91)" fill="#000000" opacity="0.1"></path><g opacity="0.2"><path d="M 344.2 718.3 a 24.2 24.2 0 0 1 1.5 3.6 q -12 4.5 -24 9.5 c -0.2 -0.3 -0.3 -0.6 -0.5 -0.9 A 20.4 20.4 0 0 1 318.7 720 c 0.2 -4.7 2.3 -8.7 6 -10.7 s 8.2 -1.4 12.2 1 A 20.6 20.6 0 0 1 344.2 718.3 Z" transform="translate(-95.2,-91)" fill="#3f3d56"></path><ellipse cx="322.9" cy="706" rx="13" ry="17.1" transform="translate(-387.5,141.5) rotate(-27.8)" fill="#3f3d56"></ellipse><ellipse cx="313.2" cy="687.5" rx="13" ry="17.1" transform="translate(-380,134.8) rotate(-27.8)" fill="#3f3d56"></ellipse><ellipse cx="303.5" cy="669.1" rx="13" ry="17.1" transform="translate(-372.6,128.1) rotate(-27.8)" fill="#3f3d56"></ellipse><ellipse cx="293.8" cy="650.7" rx="13" ry="17.1" transform="translate(-365.1,121.5) rotate(-27.8)" fill="#3f3d56"></ellipse><path d="M 184.1 547.4 a 63.9 63.9 0 0 1 -7.6 -4 l 27.6 -21 l -32.6 17.5 a 62.5 62.5 0 0 1 -24.1 -43.1 l 55.9 -0.4 L 147.1 488 a 62.4 62.4 0 1 1 123.7 13.6 a 62 62 0 0 1 11.6 6.7 l -28.5 41.1 l 34.5 -36.2 a 62.5 62.5 0 0 1 18.5 56.5 a 62.4 62.4 0 1 1 -86.7 45.8 a 62.4 62.4 0 0 1 -36 -68.2 Z" transform="translate(-95.2,-91)" fill="#000000"></path><path d="M 300.6 529.5 a 62.1 62.1 0 0 1 6.2 40.3 a 62.4 62.4 0 1 1 -86.7 45.8 C 207.7 610.1 297.3 523.3 300.6 529.5 Z" transform="translate(-95.2,-91)" opacity="0.1"></path></g><g opacity="0.2"><path d="M 786.8 587.8 a 31.8 31.8 0 0 0 -1.4 5.2 q 17.4 3.9 34.9 8.5 c 0.2 -0.4 0.4 -0.9 0.5 -1.4 a 28.5 28.5 0 0 0 1.4 -14.9 c -1.2 -6.4 -4.8 -11.6 -10.3 -13.6 s -11.6 -0.4 -16.6 3.8 A 28.6 28.6 0 0 0 786.8 587.8 Z" transform="translate(-95.2,-91)" fill="#3f3d56"></path><ellipse cx="813.6" cy="566.8" rx="23.7" ry="18.1" transform="translate(-92,1047) rotate(-70)" fill="#3f3d56"></ellipse><ellipse cx="823.5" cy="539.5" rx="23.7" ry="18.1" transform="matrix(0.3,-0.9,0.9,0.3,-60,1038.4)" fill="#3f3d56"></ellipse><ellipse cx="833.4" cy="512.4" rx="23.7" ry="18.1" transform="translate(-27.9,1029.8) rotate(-70)" fill="#3f3d56"></ellipse><ellipse cx="843.3" cy="485.2" rx="23.7" ry="18.1" transform="translate(4.1,1021.1) rotate(-70)" fill="#3f3d56"></ellipse><path d="M 974.5 322.2 a 86.2 86.2 0 0 0 9.7 -7 l -42 -23.6 l 48.2 17.9 a 86.8 86.8 0 0 0 25 -63.9 l -77 10.1 l 75.7 -22.2 a 86.6 86.6 0 1 0 -167.6 42.3 a 87 87 0 0 0 -14.7 11.5 l 47 51.2 L 824.6 295.2 A 86.7 86.7 0 0 0 810 376.4 a 86.6 86.6 0 1 0 128 46.5 a 86.6 86.6 0 0 0 36.6 -100.7 Z" transform="translate(-95.2,-91)" fill="#000000"></path><path d="M 810.8 319.7 a 86.3 86.3 0 0 0 -0.9 56.7 a 86.6 86.6 0 1 0 128 46.5 C 953.9 413 814.1 310.6 810.8 319.7 Z" transform="translate(-95.2,-91)" opacity="0.1"></path></g><ellipse cx="180.5" cy="642.5" rx="67.3" ry="12.9" fill="#000000"></ellipse><ellipse cx="179.3" cy="637" rx="7.8" ry="10.3" fill="#3f3d56"></ellipse><ellipse cx="179.3" cy="624.4" rx="7.8" ry="10.3" fill="#3f3d56"></ellipse><ellipse cx="179.3" cy="611.9" rx="7.8" ry="10.3" fill="#3f3d56"></ellipse><ellipse cx="179.3" cy="599.4" rx="7.8" ry="10.3" fill="#3f3d56"></ellipse><ellipse cx="179.3" cy="586.8" rx="7.8" ry="10.3" fill="#3f3d56"></ellipse><ellipse cx="179.3" cy="574.3" rx="7.8" ry="10.3" fill="#3f3d56"></ellipse><ellipse cx="179.3" cy="561.8" rx="7.8" ry="10.3" fill="#3f3d56"></ellipse><path d="M 303.9 567 a 36.9 36.9 0 0 0 2.9 -4.3 l -20.6 -3.4 l 22.3 0.2 a 37.6 37.6 0 0 0 0.7 -29.7 l -29.9 15.5 L 306.9 525 a 37.5 37.5 0 1 0 -62 42 a 37.5 37.5 0 0 0 -4.3 6.8 l 26.7 13.9 l -28.5 -9.6 a 37.5 37.5 0 0 0 6.1 35.3 a 37.5 37.5 0 1 0 59 0 a 37.5 37.5 0 0 0 0 -46.4 Z" transform="translate(-95.2,-91)" fill="#000000"></path><path d="M 236.9 590.2 a 37.3 37.3 0 0 0 8 23.2 a 37.5 37.5 0 1 0 59 0 C 308.9 607 236.9 586 236.9 590.2 Z" transform="translate(-95.2,-91)" opacity="0.1"></path><rect x="268.4" y="178.4" width="483.6" height="104.3" rx="7.4" fill="#35323e"></rect><path d="M 404.6 143.2 s 6.9 186.8 -5.3 208.7 H 811 s -17.5 -143.7 0 -208.7 Z" transform="translate(-95.2,-91)" fill="#ffffff"></path><path d="M 404.6 143.2 s 6.9 186.8 -5.3 208.7 H 811 s -17.5 -143.7 0 -208.7 Z" transform="translate(-95.2,-91)" opacity="0.03"></path><rect x="351.5" y="252.9" width="301.8" height="37.5" fill="#35323e"></rect><path d="M 882.9 785.2 H 323.5 a 29.8 29.8 0 0 1 -29.6 -33.1 L 305.3 649 q 1.1 -10.3 1.6 -20.6 l 2.1 -69.9 q 0.7 -23.7 3.2 -47.3 q 1.3 -12.2 3 -24.4 l 14.7 -102.5 a 54 54 0 0 1 53.4 -46.2 h 22.3 a 52.5 52.5 0 0 1 31.4 10.6 c 23.1 17.3 88.9 29.7 166.4 29.7 S 746.8 366 770 348.7 a 52.5 52.5 0 0 1 31.4 -10.6 H 837.6 a 32.4 32.4 0 0 1 31.9 26.7 l 19.8 112 q 3 17.1 5.1 34.3 q 3.5 28.6 4.4 57.5 l 2 65 a 365.4 365.4 0 0 0 3.5 40.5 l 10.6 74.3 A 32.2 32.2 0 0 1 882.9 785.2 Z" transform="translate(-95.2,-91)" fill="#464353"></path><rect x="241.6" y="434.9" width="534.2" height="229.6" rx="20" opacity="0.1"></rect><ellipse cx="275.9" cy="461.7" rx="15.3" ry="12.8" fill="#000000"></ellipse><ellipse cx="275.9" cy="461.7" rx="15.3" ry="12.8" opacity="0.1"></ellipse><ellipse cx="275.9" cy="458.9" rx="15.3" ry="12.8" fill="#000000"></ellipse><ellipse cx="294" cy="506.4" rx="15.3" ry="12.8" fill="#35323e"></ellipse><ellipse cx="294" cy="506.4" rx="15.3" ry="12.8" opacity="0.1"></ellipse><ellipse cx="294" cy="503.6" rx="15.3" ry="12.8" fill="#35323e"></ellipse><ellipse cx="304" cy="551.1" rx="15.3" ry="12.8" fill="#35323e"></ellipse><ellipse cx="304" cy="551.1" rx="15.3" ry="12.8" opacity="0.1"></ellipse><ellipse cx="304" cy="548.3" rx="15.3" ry="12.8" fill="#35323e"></ellipse><ellipse cx="265.3" cy="556.4" rx="15.3" ry="12.8" fill="#35323e"></ellipse><ellipse cx="265.3" cy="556.4" rx="15.3" ry="12.8" opacity="0.1"></ellipse><ellipse cx="265.3" cy="553.6" rx="15.3" ry="12.8" fill="#35323e"></ellipse><ellipse cx="322.8" cy="595.8" rx="15.3" ry="12.8" fill="#35323e"></ellipse><ellipse cx="322.8" cy="595.8" rx="15.3" ry="12.8" opacity="0.1"></ellipse><ellipse cx="322.8" cy="593" rx="15.3" ry="12.8" fill="#35323e"></ellipse><ellipse cx="271.5" cy="597.3" rx="15.3" ry="12.8" fill="#35323e"></ellipse><ellipse cx="271.5" cy="597.3" rx="15.3" ry="12.8" opacity="0.1"></ellipse><ellipse cx="271.5" cy="594.5" rx="15.3" ry="12.8" fill="#35323e"></ellipse><ellipse cx="364.9" cy="595.8" rx="15.3" ry="12.8" fill="#35323e"></ellipse><ellipse cx="364.9" cy="595.8" rx="15.3" ry="12.8" opacity="0.1"></ellipse><ellipse cx="364.9" cy="593" rx="15.3" ry="12.8" fill="#35323e"></ellipse><ellipse cx="409.6" cy="595.8" rx="15.3" ry="12.8" fill="#35323e"></ellipse><ellipse cx="409.6" cy="595.8" rx="15.3" ry="12.8" opacity="0.1"></ellipse><ellipse cx="409.6" cy="593" rx="15.3" ry="12.8" fill="#35323e"></ellipse><ellipse cx="450.9" cy="595.8" rx="15.3" ry="12.8" fill="#35323e"></ellipse><ellipse cx="450.9" cy="595.8" rx="15.3" ry="12.8" opacity="0.1"></ellipse><ellipse cx="450.9" cy="593" rx="15.3" ry="12.8" fill="#35323e"></ellipse><ellipse cx="496.5" cy="595.8" rx="15.3" ry="12.8" fill="#35323e"></ellipse><ellipse cx="496.5" cy="595.8" rx="15.3" ry="12.8" opacity="0.1"></ellipse><ellipse cx="496.5" cy="593" rx="15.3" ry="12.8" fill="#35323e"></ellipse><ellipse cx="537.7" cy="595.8" rx="15.3" ry="12.8" fill="#35323e"></ellipse><ellipse cx="537.7" cy="595.8" rx="15.3" ry="12.8" opacity="0.1"></ellipse><ellipse cx="537.7" cy="593" rx="15.3" ry="12.8" fill="#35323e"></ellipse><ellipse cx="578.6" cy="595.8" rx="15.3" ry="12.8" fill="#35323e"></ellipse><ellipse cx="578.6" cy="595.8" rx="15.3" ry="12.8" opacity="0.1"></ellipse><ellipse cx="578.6" cy="593" rx="15.3" ry="12.8" fill="#35323e"></ellipse><ellipse cx="623" cy="595.8" rx="15.3" ry="12.8" fill="#35323e"></ellipse><ellipse cx="623" cy="595.8" rx="15.3" ry="12.8" opacity="0.1"></ellipse><ellipse cx="623" cy="593" rx="15.3" ry="12.8" fill="#35323e"></ellipse><ellipse cx="664.5" cy="595.8" rx="15.3" ry="12.8" fill="#35323e"></ellipse><ellipse cx="664.5" cy="595.8" rx="15.3" ry="12.8" opacity="0.1"></ellipse><ellipse cx="664.5" cy="593" rx="15.3" ry="12.8" fill="#35323e"></ellipse><ellipse cx="710.5" cy="595.8" rx="15.3" ry="12.8" fill="#35323e"></ellipse><ellipse cx="710.5" cy="595.8" rx="15.3" ry="12.8" opacity="0.1"></ellipse><ellipse cx="710.5" cy="593" rx="15.3" ry="12.8" fill="#35323e"></ellipse><ellipse cx="757.6" cy="595.8" rx="15.3" ry="12.8" fill="#35323e"></ellipse><ellipse cx="757.6" cy="595.8" rx="15.3" ry="12.8" opacity="0.1"></ellipse><ellipse cx="757.6" cy="593" rx="15.3" ry="12.8" fill="#35323e"></ellipse><ellipse cx="346.5" cy="551.1" rx="15.3" ry="12.8" fill="#35323e"></ellipse><ellipse cx="346.5" cy="551.1" rx="15.3" ry="12.8" opacity="0.1"></ellipse><ellipse cx="346.5" cy="548.3" rx="15.3" ry="12.8" fill="#35323e"></ellipse><ellipse cx="389" cy="551.1" rx="15.3" ry="12.8" fill="#35323e"></ellipse><ellipse cx="389" cy="551.1" rx="15.3" ry="12.8" opacity="0.1"></ellipse><ellipse cx="389" cy="548.3" rx="15.3" ry="12.8" fill="#35323e"></ellipse><ellipse cx="432.7" cy="551.1" rx="15.3" ry="12.8" fill="#35323e"></ellipse><ellipse cx="432.7" cy="551.1" rx="15.3" ry="12.8" opacity="0.1"></ellipse><ellipse cx="432.7" cy="548.3" rx="15.3" ry="12.8" fill="#35323e"></ellipse><ellipse cx="474.6" cy="551.1" rx="15.3" ry="12.8" fill="#35323e"></ellipse><ellipse cx="474.6" cy="551.1" rx="15.3" ry="12.8" opacity="0.1"></ellipse><ellipse cx="474.6" cy="548.3" rx="15.3" ry="12.8" fill="#35323e"></ellipse><ellipse cx="517.4" cy="551.1" rx="15.3" ry="12.8" fill="#35323e"></ellipse><ellipse cx="517.4" cy="551.1" rx="15.3" ry="12.8" opacity="0.1"></ellipse><ellipse cx="517.4" cy="548.3" rx="15.3" ry="12.8" fill="#35323e"></ellipse><ellipse cx="558.3" cy="551.1" rx="15.3" ry="12.8" fill="#35323e"></ellipse><ellipse cx="558.3" cy="551.1" rx="15.3" ry="12.8" opacity="0.1"></ellipse><ellipse cx="558.3" cy="548.3" rx="15.3" ry="12.8" fill="#35323e"></ellipse><ellipse cx="602.7" cy="551.1" rx="15.3" ry="12.8" fill="#35323e"></ellipse><ellipse cx="602.7" cy="551.1" rx="15.3" ry="12.8" opacity="0.1"></ellipse><ellipse cx="602.7" cy="548.3" rx="15.3" ry="12.8" fill="#35323e"></ellipse><ellipse cx="644.9" cy="551.1" rx="15.3" ry="12.8" fill="#35323e"></ellipse><ellipse cx="644.9" cy="551.1" rx="15.3" ry="12.8" opacity="0.1"></ellipse><ellipse cx="644.9" cy="548.3" rx="15.3" ry="12.8" fill="#35323e"></ellipse><ellipse cx="688" cy="551.1" rx="15.3" ry="12.8" fill="#35323e"></ellipse><ellipse cx="688" cy="551.1" rx="15.3" ry="12.8" opacity="0.1"></ellipse><ellipse cx="688" cy="548.3" rx="15.3" ry="12.8" fill="#35323e"></ellipse><ellipse cx="731.1" cy="551.1" rx="15.3" ry="12.8" fill="#35323e"></ellipse><ellipse cx="731.1" cy="551.1" rx="15.3" ry="12.8" opacity="0.1"></ellipse><ellipse cx="731.1" cy="548.3" rx="15.3" ry="12.8" fill="#35323e"></ellipse><ellipse cx="337.1" cy="506.4" rx="15.3" ry="12.8" fill="#35323e"></ellipse><ellipse cx="337.1" cy="506.4" rx="15.3" ry="12.8" opacity="0.1"></ellipse><ellipse cx="337.1" cy="503.6" rx="15.3" ry="12.8" fill="#35323e"></ellipse><ellipse cx="380.3" cy="506.4" rx="15.3" ry="12.8" fill="#35323e"></ellipse><ellipse cx="380.3" cy="506.4" rx="15.3" ry="12.8" opacity="0.1"></ellipse><ellipse cx="380.3" cy="503.6" rx="15.3" ry="12.8" fill="#35323e"></ellipse><ellipse cx="421.8" cy="506.4" rx="15.3" ry="12.8" fill="#35323e"></ellipse><ellipse cx="421.8" cy="506.4" rx="15.3" ry="12.8" opacity="0.1"></ellipse><ellipse cx="421.8" cy="503.6" rx="15.3" ry="12.8" fill="#35323e"></ellipse><ellipse cx="463.4" cy="506.4" rx="15.3" ry="12.8" fill="#35323e"></ellipse><ellipse cx="463.4" cy="506.4" rx="15.3" ry="12.8" opacity="0.1"></ellipse><ellipse cx="463.4" cy="503.6" rx="15.3" ry="12.8" fill="#35323e"></ellipse><ellipse cx="505.2" cy="506.4" rx="15.3" ry="12.8" fill="#35323e"></ellipse><ellipse cx="505.2" cy="506.4" rx="15.3" ry="12.8" opacity="0.1"></ellipse><ellipse cx="505.2" cy="503.6" rx="15.3" ry="12.8" fill="#35323e"></ellipse><ellipse cx="546.5" cy="506.4" rx="15.3" ry="12.8" fill="#35323e"></ellipse><ellipse cx="546.5" cy="506.4" rx="15.3" ry="12.8" opacity="0.1"></ellipse><ellipse cx="546.5" cy="503.6" rx="15.3" ry="12.8" fill="#35323e"></ellipse><ellipse cx="590.2" cy="506.4" rx="15.3" ry="12.8" fill="#35323e"></ellipse><ellipse cx="590.2" cy="506.4" rx="15.3" ry="12.8" opacity="0.1"></ellipse><ellipse cx="590.2" cy="503.6" rx="15.3" ry="12.8" fill="#35323e"></ellipse><ellipse cx="631.4" cy="506.4" rx="15.3" ry="12.8" fill="#35323e"></ellipse><ellipse cx="631.4" cy="506.4" rx="15.3" ry="12.8" opacity="0.1"></ellipse><ellipse cx="631.4" cy="503.6" rx="15.3" ry="12.8" fill="#35323e"></ellipse><ellipse cx="675.5" cy="506.4" rx="15.3" ry="12.8" fill="#35323e"></ellipse><ellipse cx="675.5" cy="506.4" rx="15.3" ry="12.8" opacity="0.1"></ellipse><ellipse cx="675.5" cy="503.6" rx="15.3" ry="12.8" fill="#35323e"></ellipse><ellipse cx="718.6" cy="506.4" rx="15.3" ry="12.8" fill="#35323e"></ellipse><ellipse cx="718.6" cy="506.4" rx="15.3" ry="12.8" opacity="0.1"></ellipse><ellipse cx="718.6" cy="503.6" rx="15.3" ry="12.8" fill="#35323e"></ellipse><ellipse cx="315.9" cy="461.7" rx="15.3" ry="12.8" fill="#35323e"></ellipse><ellipse cx="315.9" cy="461.7" rx="15.3" ry="12.8" opacity="0.1"></ellipse><ellipse cx="315.9" cy="458.9" rx="15.3" ry="12.8" fill="#35323e"></ellipse><ellipse cx="358.4" cy="461.7" rx="15.3" ry="12.8" fill="#35323e"></ellipse><ellipse cx="358.4" cy="461.7" rx="15.3" ry="12.8" opacity="0.1"></ellipse><ellipse cx="358.4" cy="458.9" rx="15.3" ry="12.8" fill="#35323e"></ellipse><ellipse cx="399.3" cy="461.7" rx="15.3" ry="12.8" fill="#35323e"></ellipse><ellipse cx="399.3" cy="461.7" rx="15.3" ry="12.8" opacity="0.1"></ellipse><ellipse cx="399.3" cy="458.9" rx="15.3" ry="12.8" fill="#35323e"></ellipse><ellipse cx="441.5" cy="461.7" rx="15.3" ry="12.8" fill="#35323e"></ellipse><ellipse cx="441.5" cy="461.7" rx="15.3" ry="12.8" opacity="0.1"></ellipse><ellipse cx="441.5" cy="458.9" rx="15.3" ry="12.8" fill="#35323e"></ellipse><ellipse cx="483" cy="461.7" rx="15.3" ry="12.8" fill="#35323e"></ellipse><ellipse cx="483" cy="461.7" rx="15.3" ry="12.8" opacity="0.1"></ellipse><ellipse cx="483" cy="458.9" rx="15.3" ry="12.8" fill="#35323e"></ellipse><ellipse cx="525.5" cy="461.7" rx="15.3" ry="12.8" fill="#35323e"></ellipse><ellipse cx="525.5" cy="461.7" rx="15.3" ry="12.8" opacity="0.1"></ellipse><ellipse cx="525.5" cy="458.9" rx="15.3" ry="12.8" fill="#35323e"></ellipse><ellipse cx="567.1" cy="461.7" rx="15.3" ry="12.8" fill="#35323e"></ellipse><ellipse cx="567.1" cy="461.7" rx="15.3" ry="12.8" opacity="0.1"></ellipse><ellipse cx="567.1" cy="458.9" rx="15.3" ry="12.8" fill="#35323e"></ellipse><ellipse cx="609.3" cy="461.7" rx="15.3" ry="12.8" fill="#35323e"></ellipse><ellipse cx="609.3" cy="461.7" rx="15.3" ry="12.8" opacity="0.1"></ellipse><ellipse cx="609.3" cy="458.9" rx="15.3" ry="12.8" fill="#35323e"></ellipse><ellipse cx="652.7" cy="461.7" rx="15.3" ry="12.8" fill="#35323e"></ellipse><ellipse cx="652.7" cy="461.7" rx="15.3" ry="12.8" opacity="0.1"></ellipse><ellipse cx="652.7" cy="458.9" rx="15.3" ry="12.8" fill="#35323e"></ellipse><ellipse cx="695.2" cy="461.7" rx="15.3" ry="12.8" fill="#35323e"></ellipse><ellipse cx="695.2" cy="461.7" rx="15.3" ry="12.8" opacity="0.1"></ellipse><ellipse cx="695.2" cy="458.9" rx="15.3" ry="12.8" fill="#35323e"></ellipse><ellipse cx="736.7" cy="461.7" rx="15.3" ry="12.8" fill="#000000"></ellipse><ellipse cx="736.7" cy="461.7" rx="15.3" ry="12.8" opacity="0.1"></ellipse><ellipse cx="736.7" cy="458.9" rx="15.3" ry="12.8" fill="#000000"></ellipse><rect x="275.9" y="625.8" width="467.7" height="24.7" rx="9.1" fill="#35323e"></rect><rect x="275.9" y="625.8" width="467.7" height="24.7" rx="9.1" opacity="0.1"></rect><rect x="275.9" y="623.9" width="467.7" height="24.7" rx="9.1" fill="#35323e"></rect><path d="M 775.1 422.5 c 0 26.4 -83.6 54.7 -177.8 54.7 s -164 -30.5 -164 -56.9 s 69.8 -38.7 164 -38.7 S 775.1 396.1 775.1 422.5 Z" transform="translate(-95.2,-91)" opacity="0.1"></path><ellipse cx="762.6" cy="228.5" rx="10.3" ry="25.5" fill="#464353"></ellipse><ellipse cx="257.8" cy="228.5" rx="10.3" ry="25.5" fill="#464353"></ellipse><rect x="265.3" y="222.4" width="497.4" height="7.5" opacity="0.1"></rect><rect x="265.3" y="221.2" width="497.4" height="7.5" fill="#464353"></rect><path d="M 617 321.6 c -4.1 -1.3 -11.6 23.4 -11.6 23.4 h 22.8 S 621.1 322.8 617 321.6 Z m -0.3 3.1 a 2.2 2.2 0 1 1 -2.2 2.2 A 2.2 2.2 0 0 1 616.7 324.7 Z m 0.3 7.1 c 2.7 0.7 7.4 12.3 7.4 12.3 h -15 S 614.3 331.1 617 331.8 Z" transform="translate(-95.2,-91)" fill="#464353"></path><path d="M 894.3 511.2 h -582 q 1.3 -12.2 3 -24.4 l 14.7 -102.5 a 54 54 0 0 1 53.4 -46.2 h 22.3 a 52.5 52.5 0 0 1 31.4 10.6 c 23.1 17.3 88.9 29.7 166.4 29.7 S 746.8 366 770 348.7 a 52.5 52.5 0 0 1 31.4 -10.6 H 837.6 a 32.4 32.4 0 0 1 31.9 26.7 l 19.8 112 Q 892.2 494 894.3 511.2 Z" transform="matrix(1,0,0,1,-95.2,-91)" fill="#ffffff" opacity="0.03"></path><g id="f7c3d2ec-a0cd-4215-8d90-993b7331bb50" data-name="woman"><path d="M 585.7 639 s -11.5 -21 -9.5 -24.4 a 45.6 45.6 0 0 0 3.4 -8.3 s 4.2 -2.9 4.2 -4.1 s 3.4 -3.9 5.1 -5.1 s 0.9 -6.8 0 -7.5 a 15.1 15.1 0 0 1 -2.3 -3.1 s 1.2 -3.4 0 -4.4 s 0.2 -2 0 -3.1 a 43.5 43.5 0 0 1 0 -4.8 a 7.7 7.7 0 0 0 -4.5 -3.3 l -0.1 -0.5 l -0.8 -3.2 s 3.7 -7 -2.3 -10.7 a 11.6 11.6 0 0 0 -1.3 -0.7 s 0 -0.2 0 -0.5 a 29.8 29.8 0 0 0 -0.9 -5.4 c -0.3 -1 -0.7 -1.6 -1.2 -1.5 a 0.8 0.8 0 0 0 -0.3 0.2 a 3.6 3.6 0 0 0 -0.6 0.8 h 0 a 0.1 0.1 0 0 1 0 0 h 0 a 12.8 12.8 0 0 0 -1.4 3.9 a 22.5 22.5 0 0 0 -0.4 2.5 h 0 a 13.2 13.2 0 0 0 -0.7 1.5 c -0.7 1.9 -1.6 5.1 0 7.5 c 1.3 2 3.1 4.8 4.3 6.9 l 0 0.1 l 0.1 0.1 l -0.1 0.1 l 0 0.3 l 0.1 1.7 l 1 14.8 a 6 6 0 0 0 -0.9 -0.2 a 7.4 7.4 0 0 0 -1.3 -0.1 c -0.9 -3.4 -3.2 -6.5 -3.6 -10.1 a 7.5 7.5 0 0 1 -0.1 -1.1 c 0 -2.2 0.6 -4.5 0.5 -6.7 a 10.1 10.1 0 0 0 0 -1.2 h 0 l 0 -0.3 a 10 10 0 0 0 -5.5 -7.6 c -1 -0.5 -2.1 -0.8 -3.1 -1.4 c -2.3 -1.3 -3.8 -3.6 -5.9 -5.2 a 6.5 6.5 0 0 0 -5.6 -1.2 a 25.6 25.6 0 0 0 -2.7 0.6 h 0 a 24.6 24.6 0 0 0 -6.3 2.6 c -0.3 0.2 -0.5 0.3 -0.8 0.5 a 3.5 3.5 0 0 0 -1.3 1.5 a 3.9 3.9 0 0 0 -0.2 1.6 c 0 0.4 0 0.8 0 1.2 c -0.1 6.5 -7.2 11.6 -7.7 18 c 0 0.2 0 0.3 0 0.5 v 0.7 h 0 v 0.5 c 0.1 2.8 1.6 5.4 1.8 8.2 c 0 0.3 0 0.5 0 0.7 a 12.4 12.4 0 0 1 -0.7 3.8 a 10.8 10.8 0 0 0 -2.5 1 c -2.1 1.4 -6 3.8 -7.4 8.3 a 12.1 12.1 0 0 0 -0.5 3.6 a 76.1 76.1 0 0 1 -1.2 13 a 25.6 25.6 0 0 1 -0.8 3.2 a 0.7 0.7 0 0 0 0 0.3 l -0.8 11 l -0.2 1.9 l -0.2 2.8 s 0.1 0.2 0.1 0.5 s 0.2 0.8 0.3 1.3 a 6.9 6.9 0 0 1 0.1 2.9 a 2 2 0 0 1 -0.6 1 l -0.1 0.1 a 8.5 8.5 0 0 0 -0.6 2.8 c -0.1 0.6 -0.1 1.2 -0.2 1.9 c -0.4 4.3 -0.7 10.8 -0.8 16.2 s -0.2 9.5 -0.2 9.5 a 10.8 10.8 0 0 0 2.2 1.1 a 4.7 4.7 0 0 0 -0.2 0.5 a 20.9 20.9 0 0 0 -1.3 5.6 c -0.3 4 0.8 8.5 6.4 10.8 a 8.9 8.9 0 0 0 1.1 0.4 a 3.5 3.5 0 0 0 2.8 -0.2 c 0 0.2 0 0.5 0 0.7 c 0.1 1 0.1 1.9 0.1 2.7 c 0.2 4.8 1.4 13.1 1.4 13.1 s 0.4 3.4 0.1 4.4 s 0 5.1 0 5.1 s 1.2 2 0 3.1 s -1.6 6.1 -1.2 6.8 a 0.5 0.5 0 0 0 0 0.1 c 0.3 1.7 -1.3 26.9 -1.3 26.9 s -1.4 3.9 -2.6 7.8 s -2 7.9 -0.9 8.7 a 8.5 8.5 0 0 0 3.2 0.9 c 0 0.2 0 0.3 0 0.5 a 14.9 14.9 0 0 1 -0.7 4.2 c -0.5 0.7 -1 6.1 -1.3 9 c 0 0.1 0 0.2 0 0.3 a 29.3 29.3 0 0 0 -1.3 3.8 s -3.9 9.8 -2.6 12.3 a 2 2 0 0 0 0.5 0.6 h 0 a 0.7 0.7 0 0 0 0.1 0.1 c 1.9 1.5 6.6 1.8 8.3 1.9 l -0.1 2.4 V 809 h 2.2 v -0.1 c 0 -0.3 0.1 -1.7 0.1 -3.6 c 0 -0.3 0 -0.7 0 -1 s 0 -0.6 0 -0.9 a 15 15 0 0 0 1 -5.5 a 23.7 23.7 0 0 1 0.9 -6.3 a 17 17 0 0 1 1.1 -3.1 a 14.1 14.1 0 0 0 -0.3 -6.3 a 4.3 4.3 0 0 0 -0.8 -1.4 a 2.3 2.3 0 0 0 0 -0.3 v -0.6 a 23.1 23.1 0 0 1 0.5 -5.2 a 0.2 0.2 0 0 1 0 -0.1 c 0 -0.1 0.1 -0.3 0.1 -0.4 l 0 -0.1 l 0.7 0 c 2.2 0.1 3.8 0.1 3.8 0.1 s 1.8 -9 1.6 -13 c 0 -0.2 0 -0.3 0 -0.5 a 50.6 50.6 0 0 1 1.1 -9.2 l 1.4 -13.8 a 7.4 7.4 0 0 1 0 -4.1 c 0.4 -1 1.3 -3 2 -4.3 c 0.3 -0.6 0.5 -1.1 0.6 -1.3 l 0 -0.1 a 3 3 0 0 1 -0.6 -0.3 h 0 c -0.6 -0.4 -1.1 -1.1 0.6 -2.2 c 2.6 -1.7 1.8 -6 1.8 -6 a 3.1 3.1 0 0 1 0.1 -2.9 c 0.9 -1.4 0 -6.5 0 -6.5 a 21.1 21.1 0 0 0 1.8 -4.3 c 0.7 -2 2.3 -12 3.1 -16.8 c 0.3 -1.6 0.4 -2.6 0.4 -2.6 l 0 0.3 l 0 0.3 h 0 l 0.2 2.3 l 0 0.3 l 0.4 4.3 s 0.8 11.3 0.3 15.7 a 0.2 0.2 0 0 1 0 0.1 a 4.9 4.9 0 0 1 -0.3 1.3 c -0.9 2.1 -0.8 10.6 -0.7 12.4 c 0 0.1 0 0.3 0 0.4 a 6.6 6.6 0 0 0 -0.5 2.9 h 0 a 1.9 1.9 0 0 0 0.3 0.9 a 2.2 2.2 0 0 1 0.3 1.3 v 0 c 0 0.2 0 0.4 0 0.6 a 11.3 11.3 0 0 1 -0.6 2.3 s -1 2.5 -0.6 3.8 h 0 a 1.3 1.3 0 0 0 0.2 0.5 a 1.1 1.1 0 0 1 0.1 0.5 v 0 c 0.3 2.8 -0.5 14.9 -1 21.5 c -0.2 2.6 -0.3 4.4 -0.3 4.4 l -1.4 14.5 l 0.1 0.1 c 0.2 0.1 0.5 0.3 0.9 0.6 v 0 l -0.1 0.4 c -0.2 1.4 -0.5 3 -0.8 4.3 a 2.7 2.7 0 0 0 -0.1 0.3 a 3.9 3.9 0 0 0 -1.5 0.6 c -3 5.3 -1.7 9.5 0 10.7 a 4.3 4.3 0 0 1 1 2.5 l 0.4 5.3 v 0.6 a 1.6 1.6 0 0 0 0.1 0.5 l 0.1 1.6 l 0.2 2.2 h 1.4 V 803.8 h 0.1 c 2.1 0.1 5.6 0.2 7.1 0.1 h 0 l 0.4 0 a 0.8 0.8 0 0 0 0.2 -0.1 c 0.8 -0.4 2.8 -6 1 -7.3 s -2.2 -4.9 -2.2 -4.9 c -0.2 -0.5 -0.3 -0.9 -0.5 -1.4 a 2.4 2.4 0 0 1 0 -0.3 a 22.5 22.5 0 0 1 0.2 -4.7 a 37.1 37.1 0 0 0 0.5 -5.6 c 0 -0.2 0 -0.3 0 -0.5 v -0.1 a 6 6 0 0 0 0.9 -0.3 l 0.1 0 a 6.5 6.5 0 0 0 1.5 -0.9 l 5 -22.2 l 0.5 -2.6 l 3 -14.7 s -1.1 -5.1 0 -6 c 0.4 -0.3 0.5 -1.6 0.5 -3.2 c 0 -2.7 -0.5 -6 -0.5 -6 s 1.4 -2.2 2.1 -3.6 s 0 -4.9 0 -4.9 l 1.4 -8.2 a 77.3 77.3 0 0 1 5.5 -17.9 c 2.9 -6 1 -22.3 -0.8 -30.9 l -0.1 -0.7 a 0.1 0.1 0 0 0 0 0 l 3.1 -1.5 l 0.4 -0.2 c 1.4 -0.7 3 -1.4 4.4 -2 l 0.1 0 a 32.1 32.1 0 0 1 3 -1.1 a 4.4 4.4 0 0 1 0.9 -0.2 C 593.1 651.9 585.7 639 585.7 639 Z m -55.2 27.7 l 0.7 0 c -0.1 0.2 -0.2 0.3 -0.3 0.5 a 2.6 2.6 0 0 0 -0.1 0.3 a 16.5 16.5 0 0 0 -0.7 1.7 c 0.1 -0.6 0.2 -1.3 0.3 -2 Z m -2 10.6 s 0 0 0 -0.1 s 0 -0.1 -0.1 -0.2 l -0.1 -0.4 c 0.3 -0.1 0.5 -0.2 0.8 -0.3 l 0 0 s 0 0.1 0 0.1 s -0.1 0.4 -0.1 0.6 h 0 s 0 0.1 0 0.1 s 0 0.3 0 0.5 s -0.1 0.6 -0.1 0.8 l -0.2 -0.8 C 528.6 677.6 528.5 677.5 528.5 677.4 Z" transform="translate(-95.2,-91)" fill="url(#aaf27687-ce05-436a-9809-c99a240b7c1e)"></path><path d="M 581.5 573.6 l -4.4 1.6 l -1.6 -2.7 c -1.2 -2 -2.9 -4.8 -4.2 -6.9 c -2.2 -3.6 0.7 -9 0.7 -9 s 0.5 -5.4 2.4 -7.1 s 2.4 7.1 2.4 7.1 c 7.5 3.4 3.5 11.4 3.5 11.4 l 0.7 3.2 Z" transform="translate(-95.2,-91)" fill="#be6f72"></path><path d="M 581.5 573.6 l -4.4 1.6 l -1.6 -2.7 l 0 -0.2 a 7.7 7.7 0 0 1 5.5 -1.1 Z" transform="translate(-95.2,-91)" opacity="0.1"></path><path d="M 574.4 591.4 l 2.2 -1.9 l -1.1 -16.8 A 7 7 0 0 1 585.4 575 a 43.3 43.3 0 0 0 0 4.8 c 0.2 1 -1.2 2 0 3 s 0 4.4 0 4.4 a 15.3 15.3 0 0 0 2.2 3.1 c 0.8 0.7 1.7 6.3 0 7.5 s -4.9 3.9 -4.9 5.1 s -4.1 4.1 -4.1 4.1 L 575 602.1 Z" transform="translate(-95.2,-91)" fill="#000000"></path><path d="M 526.6 693.6 c -8.2 -3.5 -6.4 -12 -4.9 -16.3 a 24.5 24.5 0 0 1 1.1 -2.5 l 4.6 -2.8 s 0.9 2.4 1.9 5.6 C 531.8 685 534.4 696.9 526.6 693.6 Z" transform="translate(-95.2,-91)" fill="#be6f72"></path><path d="M 537.9 771.4 a 13.8 13.8 0 0 0 -1.2 3.4 a 24.5 24.5 0 0 0 -0.5 5.8 a 22.3 22.3 0 0 0 0.1 2.3 l -9.2 6.3 s 0.1 -0.7 0.1 -1.8 c 0.2 -2.9 0.7 -8.3 1.2 -8.9 a 15 15 0 0 0 0.7 -4.2 c 0.1 -1.8 0.2 -3.4 0.2 -3.4 S 540.4 766.8 537.9 771.4 Z" transform="translate(-95.2,-91)" fill="#be6f72"></path><path d="M 559.6 776 s 0 1.8 -0.1 3.8 a 39 39 0 0 1 -0.4 5.6 a 22.3 22.3 0 0 0 -0.2 4.7 c 0.1 2 0.2 3.9 0.2 3.9 s -9.4 -8.8 -8.4 -9.6 a 4.4 4.4 0 0 0 0.8 -2 c 0.3 -1.2 0.5 -2.9 0.7 -4.3 c 0.2 -1.6 0.4 -3 0.4 -3 Z" transform="translate(-95.2,-91)" fill="#be6f72"></path><path d="M 537.9 771.4 a 13.8 13.8 0 0 0 -1.2 3.4 a 74 74 0 0 1 -7.5 -0.6 c 0.1 -1.8 0.2 -3.4 0.2 -3.4 S 540.4 766.8 537.9 771.4 Z" transform="translate(-95.2,-91)" opacity="0.1"></path><path d="M 559.6 776 s 0 1.8 -0.1 3.8 c -2.9 0.7 -5.9 -0.8 -7.4 -1.6 c 0.2 -1.6 0.4 -3 0.4 -3 Z" transform="translate(-95.2,-91)" opacity="0.1"></path><path d="M 578.8 689.1 A 79.2 79.2 0 0 0 573.5 707 l -1.4 8.2 s 0.7 3.6 0 4.9 s -2 3.6 -2 3.6 s 1 8.3 0 9.2 s 0 5.9 0 5.9 l -3.4 17.2 L 562 778 c -4.6 3.7 -10.7 -1 -10.7 -1 l 1.4 -14.4 s 2 -25.3 1.2 -26.3 s 0.3 -4.2 0.3 -4.2 s 1.2 -3.1 0.3 -4.3 s 0.2 -3.7 0.2 -3.7 s -0.3 -10.4 0.7 -12.8 s 0 -17.1 0 -17.1 l -0.4 -4.6 l -0.2 -2.5 l 0 -0.3 l -0.4 2.6 c -0.8 4.8 -2.4 14.7 -3 16.8 a 21.1 21.1 0 0 1 -1.8 4.2 s 0.9 5.1 0 6.5 a 3.2 3.2 0 0 0 -0.1 2.9 s 0.8 4.3 -1.7 6 s 0 2.5 0 2.5 s -1.9 4.1 -2.5 5.8 a 7.5 7.5 0 0 0 0 4.1 l -1.4 13.8 a 50 50 0 0 0 -1 9.7 c 0.2 3.9 -1.5 12.9 -1.5 12.9 s -13.1 0 -15.1 -1.5 s 3.4 -16.5 3.4 -16.5 s 1.5 -26.2 1.2 -26.9 s 0 -5.8 1.2 -6.8 s 0 -3.1 0 -3.1 s -0.3 -4.1 0 -5.1 a 18.4 18.4 0 0 0 -0.1 -4.4 s -1.1 -8.3 -1.3 -13.1 s -1 -15.5 -1 -15.5 s 0.9 -6.6 1 -9.8 a 11.3 11.3 0 0 1 1.2 -4 a 36.6 36.6 0 0 1 2.5 -4.5 s 40.3 -11.9 42 -10.7 c 0.4 0.3 1.1 2.4 1.7 5.5 C 579.8 667 581.5 683.1 578.8 689.1 Z" transform="translate(-95.2,-91)" fill="#000000"></path><path d="M 578.8 689.1 A 79.2 79.2 0 0 0 573.5 707 l -1.4 8.2 s 0.7 3.6 0 4.9 s -2 3.6 -2 3.6 s 1 8.3 0 9.2 s 0 5.9 0 5.9 l -3.4 17.2 L 562 778 c -4.6 3.7 -10.7 -1 -10.7 -1 l 1.4 -14.4 s 2 -25.3 1.2 -26.3 s 0.3 -4.2 0.3 -4.2 s 1.2 -3.1 0.3 -4.3 s 0.2 -3.7 0.2 -3.7 s -0.3 -10.4 0.7 -12.8 s 0 -17.1 0 -17.1 l -0.4 -4.6 l -0.2 -2.5 l 0 -0.3 l -0.4 2.6 c -0.8 4.8 -2.4 14.7 -3 16.8 a 21.1 21.1 0 0 1 -1.8 4.2 s 0.9 5.1 0 6.5 a 3.2 3.2 0 0 0 -0.1 2.9 s 0.8 4.3 -1.7 6 s 0 2.5 0 2.5 s -1.9 4.1 -2.5 5.8 a 7.5 7.5 0 0 0 0 4.1 l -1.4 13.8 a 50 50 0 0 0 -1 9.7 c 0.2 3.9 -1.5 12.9 -1.5 12.9 s -13.1 0 -15.1 -1.5 s 3.4 -16.5 3.4 -16.5 s 1.5 -26.2 1.2 -26.9 s 0 -5.8 1.2 -6.8 s 0 -3.1 0 -3.1 s -0.3 -4.1 0 -5.1 a 18.4 18.4 0 0 0 -0.1 -4.4 s -1.1 -8.3 -1.3 -13.1 s -1 -15.5 -1 -15.5 s 0.9 -6.6 1 -9.8 a 11.3 11.3 0 0 1 1.2 -4 a 36.6 36.6 0 0 1 2.5 -4.5 s 40.3 -11.9 42 -10.7 c 0.4 0.3 1.1 2.4 1.7 5.5 C 579.8 667 581.5 683.1 578.8 689.1 Z" transform="translate(-95.2,-91)" opacity="0.15"></path><circle cx="458.7" cy="482.6" r="11.7" fill="#a1616a"></circle><path d="M 578 658.3 c -1.4 0.7 -2.3 1.2 -2.3 1.2 s -19 9 -24.5 8.5 c -4.2 -0.4 -14.9 -0.2 -19.5 -0.1 a 36.6 36.6 0 0 1 2.5 -4.5 s 40.3 -11.9 42 -10.7 C 576.7 653.1 577.3 655.2 578 658.3 Z" transform="translate(-95.2,-91)" opacity="0.1"></path><path d="M 545.8 592.3 s -10.9 1.7 -13.4 3.4 s -7.7 4.9 -7.7 11.9 a 67.7 67.7 0 0 1 -1.9 16.1 c -0.7 2 10.7 18.5 10.7 18.5 l -4.1 25 s 16.3 -0.5 21.8 0 s 24.5 -8.5 24.5 -8.5 s 11.2 -5.9 13.6 -6.1 s -4.8 -13.1 -4.8 -13.1 s -11 -20.9 -9.2 -24.3 a 46.5 46.5 0 0 0 3.2 -8.3 l -2 -17.3 a 6.7 6.7 0 0 0 -5.6 0.8 c -2.5 1.9 -11.2 0.8 -11.2 0.8 Z" transform="translate(-95.2,-91)" fill="#000000"></path><path d="M 527.4 622.5 l -4.3 1.2 l -1.2 16 s 1.5 4.3 0 5.6 s -1.9 30.4 -1.9 30.4 a 11.1 11.1 0 0 0 10.7 0.8 s -0.8 -3.2 1.7 -15 S 535 644 535 644 s 0 -14.6 1.2 -17 s 0 -8.3 0 -8.3 s -2.4 -3.2 -2.2 -4.4 S 527.4 622.5 527.4 622.5 Z" transform="translate(-95.2,-91)" opacity="0.1"></path><path d="M 529.4 677.5 a 10.8 10.8 0 0 1 -7.7 -0.3 a 24.5 24.5 0 0 1 1.1 -2.5 l 4.6 -2.8 S 528.4 674.3 529.4 677.5 Z" transform="translate(-95.2,-91)" opacity="0.1"></path><path d="M 527.1 622.5 l -4.3 1.2 l -1.2 16 s 1.5 4.3 0 5.6 s -1.9 30.4 -1.9 30.4 a 11.1 11.1 0 0 0 10.7 0.8 s -0.8 -3.2 1.7 -15 S 534.8 644 534.8 644 s 0 -14.6 1.2 -17 s 0 -8.3 0 -8.3 s -2.4 -3.2 -2.2 -4.4 S 527.1 622.5 527.1 622.5 Z" transform="translate(-95.2,-91)" fill="#000000"></path><path d="M 570.6 625.1 s -2.2 19 -8.7 22.6 C 562 647.7 576.4 643.6 570.6 625.1 Z" transform="translate(-95.2,-91)" opacity="0.1"></path><path d="M 538.2 626.8 s 8 3.9 6.1 6.6 S 538.2 626.8 538.2 626.8 Z" transform="translate(-95.2,-91)" opacity="0.1"></path><path d="M 538.2 634.6 s 5.1 5.3 4.1 7.1 S 538.2 634.6 538.2 634.6 Z" transform="translate(-95.2,-91)" opacity="0.1"></path><path d="M 579.3 590.9 s 2 3.4 2.2 5.6 S 579.3 590.9 579.3 590.9 Z" transform="translate(-95.2,-91)" opacity="0.1"></path><path d="M 579.3 586.3 s 1 -0.8 3.6 0 S 579.3 586.3 579.3 586.3 Z" transform="translate(-95.2,-91)" opacity="0.1"></path><path d="M 569.5 685.7 a 23.6 23.6 0 0 1 -12.4 -1.6 l -2.1 5.5 l -0.2 -2.5 c 0.3 -2.1 1 -4.4 2.4 -5 A 20.6 20.6 0 0 0 569.5 685.7 Z" transform="translate(-95.2,-91)" opacity="0.1"></path><path d="M 534.6 692.8 S 545.1 695 548 694.6 Z" transform="translate(-95.2,-91)" opacity="0.1"></path><path d="M 535.7 695.5 s 4.5 -0.2 6.7 0.7 Z" transform="translate(-95.2,-91)" opacity="0.1"></path><path d="M 536.2 697.4 a 39 39 0 0 0 6.2 0.8 Z" transform="translate(-95.2,-91)" opacity="0.1"></path><path d="M 536 720.8 c 0.2 -0.1 8.9 -2.2 10 -0.7 Z" transform="translate(-95.2,-91)" opacity="0.1"></path><path d="M 536 723.5 s 7.6 -0.9 7.8 0 S 536 723.5 536 723.5 Z" transform="translate(-95.2,-91)" opacity="0.1"></path><path d="M 536 725.9 s 8.1 -1.7 9 -1.3 S 536 725.9 536 725.9 Z" transform="translate(-95.2,-91)" opacity="0.1"></path><path d="M 536.3 783 l -9.2 6.3 s 0.1 -0.7 0.1 -1.8 a 25.2 25.2 0 0 1 4.7 -7.7 c 2.1 -0.5 3.4 0 4.2 0.9 A 22.3 22.3 0 0 0 536.3 783 Z" transform="translate(-95.2,-91)" opacity="0.1"></path><path d="M 537.2 788.6 a 22.8 22.8 0 0 0 -1.9 9.4 a 14.4 14.4 0 0 1 -2 7.5 a 7.3 7.3 0 0 1 -0.6 0.9 s -6.4 0 -8.6 -1.9 a 2.2 2.2 0 0 1 -0.6 -0.7 c -1.3 -2.5 2.5 -12.3 2.5 -12.3 a 27.1 27.1 0 0 1 6 -11.5 C 539.1 778.2 537.2 788.6 537.2 788.6 Z" transform="translate(-95.2,-91)" fill="#35323e"></path><path d="M 533.4 805.6 a 7.3 7.3 0 0 1 -0.6 0.9 s -6.4 0 -8.6 -1.9 c 1.1 -3.6 4.6 -14.6 6.2 -12.8 S 533 802 533.4 805.6 Z" transform="translate(-95.2,-91)" opacity="0.1"></path><path d="M 532.5 792.5 L 532 809 h 2.1 s 0.3 -14.4 1.3 -16.5 S 532.5 792.5 532.5 792.5 Z" transform="translate(-95.2,-91)" fill="#35323e"></path><path d="M 559.1 793.9 s -9.4 -8.8 -8.4 -9.6 a 4.4 4.4 0 0 0 0.8 -2 c 1.8 -0.3 4.9 0.4 7.5 7.6 C 558.9 792 559.1 793.9 559.1 793.9 Z" transform="translate(-95.2,-91)" opacity="0.1"></path><path d="M 560.5 803.8 a 1.3 1.3 0 0 1 -0.2 0.1 a 65.2 65.2 0 0 1 -7.4 0 a 1.6 1.6 0 0 1 -1.6 -1.6 c 0 -0.6 0 -1.4 0 -2.2 c -0.1 -2.5 -0.4 -5.5 -1.3 -6.2 c -1.6 -1.2 -2.9 -5.4 0 -10.6 c 0 0 5.5 -4.2 9.4 8.4 c 0 0 0.4 3.6 2.1 4.9 S 561.3 803.4 560.5 803.8 Z" transform="translate(-95.2,-91)" fill="#35323e"></path><path d="M 560.3 803.8 a 65.2 65.2 0 0 1 -7.4 0 a 1.6 1.6 0 0 1 -1.6 -1.6 c 0 -0.6 0 -1.4 0 -2.2 c 0.7 -3 1.7 -6.2 3 -6.9 C 554.2 793.2 558 792.7 560.3 803.8 Z" transform="translate(-95.2,-91)" opacity="0.1"></path><polygon points="455.4,701.8 456.4,715.5 457.7,715.5 457.7,700.6 455.4,701.8" fill="#35323e"></polygon><path d="M 553.8 554.9 a 23.4 23.4 0 0 0 -10.5 3.4 a 4.3 4.3 0 0 0 -2 2 a 6.6 6.6 0 0 0 -0.2 2.4 c 0.1 7 -7.7 12.3 -7.5 19.4 c 0.1 2.8 1.5 5.4 1.8 8.2 c 0.4 4.6 -2.3 8.9 -4.9 12.7 a 10.5 10.5 0 0 0 7.5 -2.5 a 56.5 56.5 0 0 1 1 28.5 h 3.8 a 2.9 2.9 0 0 1 1.1 0.1 a 2.6 2.6 0 0 1 0.9 0.7 c 3.5 3.5 5.9 8.7 4.5 13.4 l 8 -3 a 24 24 0 0 0 5.5 -2.6 a 8 8 0 0 0 3.4 -4.9 c 0.2 -1.2 0.1 -2.7 1.1 -3.4 a 6.5 6.5 0 0 1 1.6 -0.6 c 2.2 -0.8 3.2 -3.3 3.6 -5.6 a 32 32 0 0 0 0.5 -8.5 c -0.3 -4.8 -1.8 -9.6 -0.6 -14.3 c 0.7 -2.6 2.1 -5 2.2 -7.8 c 0.2 -4.5 -3.3 -8.3 -3.8 -12.7 c -0.4 -3.1 0.8 -6.2 0.4 -9.3 a 10 10 0 0 0 -5.3 -7.6 c -1 -0.5 -2.1 -0.8 -3 -1.4 c -2.2 -1.3 -3.6 -3.6 -5.6 -5.2 s -5.4 -2.2 -6.9 -0.1 Z" transform="translate(-95.2,-91)" opacity="0.1"></path><path d="M 553.8 554.4 a 23.4 23.4 0 0 0 -10.5 3.4 a 4.3 4.3 0 0 0 -2 2 a 6.6 6.6 0 0 0 -0.2 2.4 c 0.1 7 -7.7 12.3 -7.5 19.4 c 0.1 2.8 1.5 5.4 1.8 8.2 c 0.4 4.6 -2.3 8.9 -4.9 12.7 A 10.5 10.5 0 0 0 538 600 a 56.5 56.5 0 0 1 1 28.5 h 3.8 a 2.9 2.9 0 0 1 1.1 0.1 a 2.6 2.6 0 0 1 0.9 0.7 c 3.5 3.5 5.9 8.7 4.5 13.4 l 8 -3 a 24 24 0 0 0 5.5 -2.6 a 8 8 0 0 0 3.4 -4.9 c 0.2 -1.2 0.1 -2.7 1.1 -3.4 a 6.5 6.5 0 0 1 1.6 -0.6 c 2.2 -0.8 3.2 -3.3 3.6 -5.6 a 32 32 0 0 0 0.5 -8.5 c -0.3 -4.8 -1.8 -9.6 -0.6 -14.3 c 0.7 -2.6 2.1 -5 2.2 -7.8 c 0.2 -4.5 -3.3 -8.3 -3.8 -12.7 c -0.4 -3.1 0.8 -6.2 0.4 -9.3 a 10 10 0 0 0 -5.3 -7.6 c -1 -0.5 -2.1 -0.8 -3 -1.4 c -2.2 -1.3 -3.6 -3.6 -5.6 -5.2 s -5.4 -2.2 -6.9 -0.1 Z" transform="translate(-95.2,-91)" fill="#a26565"></path><g opacity="0.1"><path d="M 541.2 560.5 c 0 0.2 0 0.3 0 0.5 C 541.2 560.8 541.2 560.6 541.2 560.5 Z" transform="translate(-95.2,-91)"></path><path d="M 570.9 576.8 a 43.1 43.1 0 0 0 0.5 -6.5 A 42.9 42.9 0 0 0 570.9 576.8 Z" transform="translate(-95.2,-91)"></path><path d="M 535.5 587.5 c -0.2 -2.5 -1.4 -4.9 -1.7 -7.4 a 9.2 9.2 0 0 0 -0.1 1.4 c 0.1 2.8 1.5 5.3 1.7 8.1 A 10 10 0 0 0 535.5 587.5 Z" transform="translate(-95.2,-91)"></path><path d="M 572.5 597.6 a 17.3 17.3 0 0 0 -0.4 5.1 a 15.7 15.7 0 0 1 0.4 -2.9 c 0.7 -2.6 2.1 -5 2.2 -7.8 a 8.7 8.7 0 0 0 -0.1 -1.4 C 574.4 593 573.1 595.2 572.5 597.6 Z" transform="translate(-95.2,-91)"></path><path d="M 538 597.8 a 10.6 10.6 0 0 1 -6 2.5 c -0.5 0.7 -1 1.4 -1.4 2.1 A 10.5 10.5 0 0 0 538 600 a 56.4 56.4 0 0 1 2.4 15.3 A 56.2 56.2 0 0 0 538 597.8 Z" transform="translate(-95.2,-91)"></path><path d="M 572.6 620.4 c -0.5 2.3 -1.4 4.8 -3.6 5.6 a 6.1 6.1 0 0 0 -1.6 0.6 c -1 0.7 -0.9 2.2 -1.1 3.4 a 8 8 0 0 1 -3.4 4.9 a 24 24 0 0 1 -5.5 2.6 l -7.6 2.9 a 10.4 10.4 0 0 1 -0.4 2.3 l 8 -3 a 24 24 0 0 0 5.5 -2.6 a 8 8 0 0 0 3.4 -4.9 c 0.2 -1.2 0.1 -2.7 1.1 -3.4 a 6.5 6.5 0 0 1 1.6 -0.6 c 2.2 -0.8 3.2 -3.3 3.6 -5.6 a 32.4 32.4 0 0 0 0.6 -7.2 A 33.5 33.5 0 0 1 572.6 620.4 Z" transform="translate(-95.2,-91)"></path><path d="M 544.8 627.1 a 2.8 2.8 0 0 0 -0.9 -0.7 a 2.9 2.9 0 0 0 -1.1 -0.1 l -3.3 0 c -0.1 0.7 -0.3 1.4 -0.4 2.1 h 3.8 a 2.9 2.9 0 0 1 1.1 0.1 a 2.6 2.6 0 0 1 0.9 0.7 a 16.1 16.1 0 0 1 4.8 9.6 C 550 634.5 547.9 630.1 544.8 627.1 Z" transform="translate(-95.2,-91)"></path></g><path d="M 526.1 641 s 3 -1.3 3.7 0 S 526.1 641 526.1 641 Z" transform="translate(-95.2,-91)" opacity="0.1"></path><path d="M 527.2 643.2 s 3 -1.3 3.7 0 S 527.2 643.2 527.2 643.2 Z" transform="translate(-95.2,-91)" opacity="0.1"></path></g><path d="M 311.8 149.8 l 0.3 2.1 l 9.1 1.3 s 0.8 -0.6 1.9 -1.3 c 2.2 -1.4 5.8 -3.5 8.9 -4.1 c 4.8 -0.9 20 -7.8 15.1 -8.2 s -4.4 0.6 -4.4 0.6 s -5.4 -5.3 -11 -0.5 c -4.2 3.7 -13.5 7.6 -17.8 9.3 Z" transform="translate(-95.2,-91)" fill="#efb7b9"></path><path d="M 348.3 125.6 a 15.9 15.9 0 0 1 4.4 -1.1 a 5.4 5.4 0 0 1 4.2 1.4 c 0.6 0.6 1 1.4 1.5 2 c 2.8 3 8.2 0.8 11.5 3.1 c 2.1 1.4 2.7 4.1 3.4 6.5 s 2.1 5 4.5 5.6 a 13.4 13.4 0 0 0 3.6 -0.1 a 3.5 3.5 0 0 1 3.2 1.2 c 1.1 1.7 -0.4 4.6 1.2 5.8 c 1.5 1.1 4.2 -0.4 5.2 1.1 a 2.3 2.3 0 0 1 -0.3 2.5 a 17.4 17.4 0 0 0 -1.7 2.1 a 3.2 3.2 0 0 0 3.1 4.7 c 1 -0.1 2.1 -0.7 3.1 -0.2 a 2.2 2.2 0 0 1 0.9 1.7 a 4.5 4.5 0 0 1 -4 4.8 c -1.8 0.1 -3.4 -0.8 -5 -1.7 s -3.4 -1.5 -5.1 -0.8 a 8.1 8.1 0 0 0 -2 1.4 a 22.6 22.6 0 0 1 -6.3 3.7 c -2 0.8 -4.3 1.3 -6.3 0.3 c -2.2 -1.1 -3.3 -3.8 -5.6 -4.6 s -4.9 0.7 -7.1 2 s -5.2 2.4 -7.1 0.8 s -1.5 -5.2 -2.8 -7.6 a 7.4 7.4 0 0 0 -2.1 -2.3 c -1.5 -1.1 -3.1 -2 -4.6 -3.1 a 7.7 7.7 0 0 1 -3.2 -4.4 c -0.4 -2.2 0.6 -4.4 1.8 -6.3 s 2.6 -3.8 3 -5.9 c 0.3 -1.6 0 -3.4 0.4 -5 a 6.1 6.1 0 0 1 4 -4.2 c 1.1 -0.4 1.3 -0.3 1.8 -1.2 A 3.9 3.9 0 0 1 348.3 125.6 Z" transform="translate(-95.2,-91)" fill="#f86d70"></path><g opacity="0.1"><path d="M 384.9 144.7 a 8.3 8.3 0 0 1 0.2 2.9 A 7.8 7.8 0 0 1 384.9 144.7 Z" transform="translate(-95.2,-91)"></path><path d="M 389 155.8 a 3.1 3.1 0 0 0 -0.3 1.1 a 3.3 3.3 0 0 1 0.1 -2.7 a 17.4 17.4 0 0 1 1.7 -2.1 a 3.3 3.3 0 0 0 0.5 -0.9 a 0.7 0.7 0 0 1 0.1 0.1 a 2.2 2.2 0 0 1 -0.3 2.5 A 18.6 18.6 0 0 0 389 155.8 Z" transform="translate(-95.2,-91)"></path><path d="M 337.8 153.2 c 1.5 1.1 3.1 2 4.6 3.1 a 7.5 7.5 0 0 1 2.1 2.3 c 1.3 2.4 0.7 5.9 2.8 7.6 s 5 0.5 7.1 -0.8 s 4.7 -2.9 7.1 -2 s 3.4 3.5 5.6 4.6 c 1.9 1 4.3 0.5 6.3 -0.3 a 22.6 22.6 0 0 0 6.3 -3.7 a 8.1 8.1 0 0 1 2 -1.4 c 1.6 -0.7 3.5 0 5.1 0.8 s 3.2 1.8 5 1.7 a 4.5 4.5 0 0 0 4 -4 a 3.2 3.2 0 0 1 0.2 0.9 a 4.5 4.5 0 0 1 -4 4.8 c -1.8 0.1 -3.4 -0.8 -5 -1.7 s -3.5 -1.5 -5.1 -0.8 a 8.3 8.3 0 0 0 -2 1.4 a 22.7 22.7 0 0 1 -6.3 3.7 c -2 0.8 -4.4 1.3 -6.3 0.3 c -2.2 -1.1 -3.3 -3.8 -5.6 -4.6 s -4.9 0.7 -7.1 2 s -5.2 2.4 -7.1 0.8 c -2.1 -1.7 -1.5 -5.2 -2.8 -7.6 a 7.3 7.3 0 0 0 -2.1 -2.3 c -1.5 -1.1 -3.1 -2 -4.6 -3.1 a 7.7 7.7 0 0 1 -3.1 -4.4 a 5.1 5.1 0 0 1 -0.1 -1.2 A 8.1 8.1 0 0 0 337.8 153.2 Z" transform="translate(-95.2,-91)"></path></g><path d="M 341.8 203.3 l -3.3 0.7 s 3.3 5.4 8.3 1.9 S 341.8 203.3 341.8 203.3 Z" transform="translate(-95.2,-91)" fill="#4c4981"></path><path d="M 341.8 203.3 l -3.3 0.7 s 3.3 5.4 8.3 1.9 S 341.8 203.3 341.8 203.3 Z" transform="translate(-95.2,-91)" opacity="0.1"></path><path d="M 413.6 253.3 s 4.6 2.4 8.9 5.1 c 3.1 2 6 4.1 6.9 5.7 c 2.3 3.9 13.3 8.1 13.3 8.1 l 11 8.4 c 2.6 0.9 5.1 4 6.1 5.4 c 0.3 0.4 0.5 0.7 0.5 0.7 l 4.4 -0.6 l 2.3 -3 s 0.6 -6.7 -4 -6.6 a 6.5 6.5 0 0 1 -2.6 -0.7 c -4.9 -2.2 -11.8 -9 -11.8 -9 s -11.7 -14.6 -15.2 -15.1 a 5.7 5.7 0 0 1 -1.1 -0.3 c -3.6 -1.3 -8.7 -5.8 -8.7 -5.8 Z" transform="translate(-95.2,-91)" fill="#efb7b9"></path><path d="M 368.3 295.6 c 1.2 7 6.5 20.4 8.2 23.2 c 2.1 3.5 3.2 10.4 3.2 10.4 l 0.6 4.8 A 5.8 5.8 0 0 0 381 336 a 11 11 0 0 0 0.6 1 l 8.8 -2.7 s -0.5 -2 -1.3 -4.4 s -1.9 -5.3 -3 -6.3 c -2.1 -2.1 -2.5 -9.6 -2.5 -9.6 s -1.8 -14.4 -2.3 -16.2 a 24.6 24.6 0 0 1 -1 -5.3 c -0.1 -1 -0.1 -2.1 -0.1 -3.3 a 68 68 0 0 0 -1.4 -10.7 l -10.3 1.9 l -0.3 11.5 A 7.7 7.7 0 0 0 368.3 295.6 Z" transform="translate(-95.2,-91)" fill="#efb7b9"></path><path d="M 459.9 286 c 0.3 0.4 0.5 0.7 0.5 0.7 l 4.4 -0.6 l 2.3 -3 s 0.6 -6.7 -4 -6.6 a 6.5 6.5 0 0 1 -2.6 -0.7 c -0.4 2 1.9 3.6 1.9 3.6 s 0.9 0.7 0.7 3.8 C 463 285.5 461.1 285.9 459.9 286 Z" transform="translate(-95.2,-91)" opacity="0.1"></path><path d="M 459.4 286.4 c 0.3 1.1 3.1 2.6 5 3.6 c 0.9 0.5 1.7 0.8 1.8 0.9 c 0.5 0.2 2.8 -2.4 3.1 -4.5 s 5.9 -8.6 5.9 -8.6 a 23.4 23.4 0 0 0 2.1 -8.2 c 0.2 -2.9 -1 -3.1 -2.4 -2.4 a 9.5 9.5 0 0 0 -2.6 2.1 a 7 7 0 0 1 -3.4 1.8 a 16.8 16.8 0 0 0 -4.9 2.1 c -1.4 0.9 -2.7 1.9 -2.9 2.9 c -0.5 2 1.8 3.8 1.8 3.8 s 0.9 0.7 0.7 3.8 S 459.4 286.3 459.4 286.4 Z" transform="translate(-95.2,-91)" fill="#ff6484"></path><path d="M 464.4 290.1 c 0.9 0.5 1.7 0.8 1.8 0.9 c 0.5 0.2 2.8 -2.4 3.1 -4.5 s 5.9 -8.6 5.9 -8.6 a 23.4 23.4 0 0 0 2.1 -8.2 c 0.2 -2.9 -1 -3.1 -2.4 -2.4 c -0.2 2.3 -0.8 6.7 -2 8.9 C 471.6 278.9 466 287.7 464.4 290.1 Z" transform="translate(-95.2,-91)" opacity="0.1"></path><path d="M 381.1 335.8 a 1.3 1.3 0 0 1 -0.1 0.2 a 11 11 0 0 0 0.6 1 l 8.8 -2.7 s -0.5 -2 -1.3 -4.4 c -3.5 -1 -8.5 5.1 -8.5 5.1 Z" transform="translate(-95.2,-91)" opacity="0.1"></path><path d="M 380.5 342.4 s 7.3 2.6 10.7 2.2 c 2.5 -0.3 2.6 -1.5 2.5 -3.9 c -0.1 -0.8 -0.1 -1.6 -0.2 -2.7 c -0.2 -4.3 -1.9 -5.1 -1.9 -5.1 c -2.8 -7.3 -10.9 2.5 -10.9 2.5 l 0.4 0.8 a 8.8 8.8 0 0 0 -0.8 4 A 11.4 11.4 0 0 0 380.5 342.4 Z" transform="translate(-95.2,-91)" fill="#ff6484"></path><path d="M 380.5 342.4 s 7.3 2.6 10.7 2.2 c 2.5 -0.3 2.6 -1.5 2.5 -3.9 a 7.8 7.8 0 0 1 -6 1.7 a 23.8 23.8 0 0 1 -7.3 -2.2 A 11.4 11.4 0 0 0 380.5 342.4 Z" transform="translate(-95.2,-91)" opacity="0.1"></path><path d="M 344 163.9 l 2.9 12.6 l 0.6 2.6 l 5.3 0.7 l 5.5 0.7 l 6 -2.2 s 1.7 -5.7 0.3 -9.9 a 6.3 6.3 0 0 0 -2.8 -3.6 a 5.6 5.6 0 0 1 -1.1 -0.9 a 4.8 4.8 0 0 1 -1 -1.4 a 5.8 5.8 0 0 1 -0.5 -2 c -0.3 -3.4 1.9 -7.1 1.9 -7.1 s -12.7 -4.3 -11.7 -1.5 c 0.6 1.8 -1.1 5 -2.5 6.9 c -0.7 1.1 -1.3 1.8 -1.3 1.8 Z" transform="translate(-95.2,-91)" fill="#efb7b9"></path><circle cx="260.2" cy="57" r="11" opacity="0.1"></circle><circle cx="260.2" cy="56.6" r="11" fill="#efb7b9"></circle><path d="M 344.8 205.6 c 0.5 2.4 2.9 6.2 2.9 6.2 l 15.3 3.8 l 11 -11.4 l 0 -0.1 c -0.3 -1.1 -4.5 -14.6 -1.5 -17.9 s 2 -13.2 2 -13.2 s -5.5 -6.3 -6.6 -7.8 s -8.2 -2.7 -8.2 -2.7 c 0.3 0.5 0.7 0.9 1 1.4 a 13.8 13.8 0 0 1 1.8 3.7 a 5.5 5.5 0 0 1 -0.1 4 a 4.8 4.8 0 0 0 -0.4 1 c -1.2 5.3 -6.7 4.5 -8.8 4 c -0.6 -0.1 -0.9 -0.3 -0.9 -0.3 l -5.2 0.2 l -3.3 0.1 s 1.5 25.9 1.1 27.9 A 3 3 0 0 0 344.8 205.6 Z" transform="translate(-95.2,-91)" fill="#ff6484"></path><path d="M 343.7 177.8 l 9.5 -1.3 l -0.2 0 a 9.3 9.3 0 0 1 -0.9 -0.3 l -5.2 0.2 l -3.3 0.1 S 343.6 177.1 343.7 177.8 Z" transform="translate(-95.2,-91)" fill="#925978"></path><polygon points="259.1,122.5 263.3,123.5 269.7,122.7 271.4,120.9 259.1,122.5" fill="#925978"></polygon><polygon points="266,124.2 267.9,124.7 268.6,123.8 266,124.2" fill="#925978"></polygon><path d="M 344.8 205.6 c 2.5 0.3 4.7 0.4 4.7 0.4 l 12.6 -0.5 l 0 -13.2 a 19 19 0 0 0 -5.1 -3.4 c -2.2 -0.8 -4.8 -3.1 -4.3 -9.3 c 0 -0.3 0.1 -0.7 0.1 -1.1 a 15 15 0 0 0 0.1 -2.1 a 11.1 11.1 0 0 0 -3.5 -8.1 l -0.2 -0.2 l -2.1 -9.6 a 2.3 2.3 0 0 0 -0.4 0.1 c -0.7 1.1 -1.3 1.8 -1.3 1.8 L 344 163.9 l 2.9 12.6 l -3.3 0.1 s 1.5 25.9 1.1 27.9 A 3 3 0 0 0 344.8 205.6 Z" transform="translate(-95.2,-91)" opacity="0.1"></path><path d="M 349.1 206.1 l 12.6 -0.5 l 0 -13.2 A 18.7 18.7 0 0 0 356.7 189 c -2.3 -0.8 -5.1 -3.4 -4.2 -10.4 a 11.5 11.5 0 0 0 -3.4 -10.2 l -0.2 -0.2 l -2.1 -9.6 a 4.5 4.5 0 0 0 -3.3 1.9 a 9.2 9.2 0 0 1 -0.8 1.1 a 2 2 0 0 1 -2.5 0.8 c -1.3 -0.6 -7.1 -3 -8.3 -0.6 s -1.5 16.5 -1.5 16.5 a 10.8 10.8 0 0 1 3.7 6.1 c 0.9 4 2.4 4.1 2.4 4.1 l 1.6 11.6 s 1.4 2.5 0.4 3.9" transform="translate(-95.2,-91)" fill="#444053"></path><path d="M 342.8 161.6 l 2.1 6.5 l 4.1 0.4 l -0.2 -0.2 l -2.1 -9.6 a 4.5 4.5 0 0 0 -3.3 1.9 A 9.2 9.2 0 0 1 342.8 161.6 Z" transform="translate(-95.2,-91)" fill="#444053"></path><path d="M 311.8 149.8 l 0.3 2.1 l 9.1 1.3 s 0.8 -0.6 1.9 -1.3 c -1 -0.2 -5.5 -1.2 -7.9 -2 c -0.9 -0.3 -1.5 -0.5 -1.5 -0.7 s 0.1 -0.2 0.2 -0.3 Z" transform="translate(-95.2,-91)" opacity="0.1"></path><path d="M 301.1 163.4 s 10.3 7.8 16.8 9.1 c 0 0 9 2.7 12.6 5.8 l 3.9 -14.9 L 332 161.8 s -2.8 1.8 -5.3 1.2 s -5.1 -0.9 -5.1 -0.9 a 40.2 40.2 0 0 0 -6.6 -1.8 c -1.7 -0.1 -1 -2.4 0.7 -3.6 a 5.7 5.7 0 0 1 0.7 -0.4 a 2.2 2.2 0 0 0 2.9 0.7 a 6.5 6.5 0 0 0 1.7 -1.6 h 0 a 20.8 20.8 0 0 0 1.9 -2.9 s -5.4 -1.1 -8.1 -2 c -0.9 -0.3 -1.5 -0.5 -1.5 -0.7 c -0.1 -0.6 4.8 -2.6 4.8 -2.6 s -4.2 -2 -5.9 -0.6 c 0 0 1.1 0.8 0.2 1.6 s -11.6 9.1 -11.6 9.1 S 295.6 159.9 301.1 163.4 Z" transform="translate(-95.2,-91)" fill="#444053"></path><path d="M 310 155.8 l 5.7 0.8 a 5.7 5.7 0 0 1 0.7 -0.4 a 2.2 2.2 0 0 0 2.9 0.7 a 6.5 6.5 0 0 0 1.7 -1.6 h 0 a 21.6 21.6 0 0 0 1.6 -2.4 s -5.4 -1.2 -8.1 -2 Z" transform="translate(-95.2,-91)" opacity="0.1"></path><path d="M 310.3 155.3 l 6.1 0.9 a 2.2 2.2 0 0 0 2.9 0.7 c 1.8 -1 3.6 -4.5 3.6 -4.5 s -5.4 -1.1 -8.1 -2 Z" transform="translate(-95.2,-91)" fill="#444053"></path><path d="M 423.8 245.7 l -10.2 7.7 s 4.6 2.4 8.9 5.1 c 3.7 -2.5 7.3 -4.9 9.9 -7 C 428.9 250.2 423.8 245.7 423.8 245.7 Z" transform="translate(-95.2,-91)" opacity="0.1"></path><path d="M 368.3 295.6 a 34.7 34.7 0 0 0 7.4 -1.8 s 1.9 -0.4 4.7 -1.3 c -0.1 -1 -0.1 -2.1 -0.1 -3.3 a 68 68 0 0 0 -1.4 -10.7 l -10.3 1.9 l -0.3 11.5 A 7.7 7.7 0 0 0 368.3 295.6 Z" transform="translate(-95.2,-91)" opacity="0.1"></path><path d="M 349.9 248.9 C 352 252 357.6 265 357.6 265 a 54.3 54.3 0 0 0 4.3 6.6 c 2.3 2.8 3.8 9.2 5.5 14.3 s -0.5 4.1 -0.3 6.8 s 9.9 -0.8 9.9 -0.8 s 19.8 -4.3 25.8 -16.4 s 30.1 -23 35 -29.8 s -1.4 -4 -1.1 -7.7 s -2.5 -6.8 -2.5 -6.8 s -9.1 -2.6 -10.6 -4.3 s -8.7 -6.3 -8.7 -6.3 s -6.8 -3 -7.7 -4 s -9 -4.2 -11.5 -4.9 s -4.9 -4.2 -4.9 -4.2 s -1.5 0.2 -3.8 -2 s -11.8 -4.1 -11.8 -4.1 c -16.3 11.9 -27.5 10.2 -27.5 10.2 l -0.3 2.3 C 338.8 225.4 347.9 245.9 349.9 248.9 Z" transform="translate(-95.2,-91)" fill="#ff6484"></path><path d="M 347.5 214.1 s 14 4.6 27.8 -12.5 c -16.3 11.9 -27.5 10.2 -27.5 10.2 Z" transform="translate(-95.2,-91)" opacity="0.1"></path><path d="M 371.6 222.1 s 18.9 27.2 20 28.2 S 372.6 221.8 371.6 222.1 Z" transform="translate(-95.2,-91)" opacity="0.1"></path><path d="M 362.9 220 s 13.1 20.3 12.8 23 C 375.7 243.1 363.1 223.6 362.9 220 Z" transform="translate(-95.2,-91)" opacity="0.1"></path><path d="M 355.3 225.6 s 2.4 11.3 -1.2 17.8 Z" transform="translate(-95.2,-91)" opacity="0.1"></path><path d="M 350.3 226.3 s -0.2 9.8 -1.3 11.8 Z" transform="translate(-95.2,-91)" opacity="0.1"></path><polygon points="287.1,126.5 304.4,133.3 298.1,134.1 287.1,126.5" opacity="0.1"></polygon><path d="M 348.1 141.5 c 0.9 0.6 1.6 1.5 2.6 1.6 a 4.1 4.1 0 0 0 2.1 -0.5 c 1.7 -0.8 3.7 -1.3 5.5 -0.7 c 2.5 0.8 4 3.8 6.5 4.7 a 4.5 4.5 0 0 0 3.8 -0.4 a 4.5 4.5 0 0 0 2 -2.8 a 5.7 5.7 0 0 0 -2 -5.3 a 11.9 11.9 0 0 0 -5.4 -2.5 c -5.1 -1.1 -10.4 -0.8 -15.6 -0.4 a 2.3 2.3 0 0 0 -1.2 0.3 c -0.8 0.6 -2.1 3.6 -1.9 4.6 C 345 141.4 348 140.4 348.1 141.5 Z" transform="translate(-95.2,-91)" opacity="0.1"></path><path d="M 348.1 141.1 c 0.9 0.6 1.6 1.5 2.6 1.6 a 4.1 4.1 0 0 0 2.1 -0.5 c 1.7 -0.8 3.7 -1.3 5.5 -0.7 c 2.5 0.8 4 3.8 6.5 4.7 a 4.5 4.5 0 0 0 3.8 -0.4 a 4.4 4.4 0 0 0 2 -2.8 a 5.7 5.7 0 0 0 -2 -5.3 a 11.9 11.9 0 0 0 -5.4 -2.5 c -5.1 -1.1 -10.4 -0.8 -15.6 -0.4 a 2.3 2.3 0 0 0 -1.2 0.3 c -0.8 0.6 -2.1 3.6 -1.9 4.6 C 344.9 141 347.9 140 348.1 141.1 Z" transform="translate(-95.2,-91)" fill="#f86d70"></path><path d="M 415.3 149.2 l 1.7 6.7 l 2.2 -1.3 l 11.7 -7.1 s 8.9 -0.3 9.6 -7.5 s -9.8 -0.1 -10.4 0.5 s -1.8 1.5 -1.8 1.5 l -10.9 6.1 Z" transform="translate(-95.2,-91)" fill="#efb7b9"></path><path d="M 415.3 149.2 l 1.7 6.7 l 2.2 -1.3 c -0.5 -3 -1.2 -5.8 -1.9 -6.5 Z" transform="translate(-95.2,-91)" opacity="0.1"></path><path d="M 357.5 193.1 l 2.4 14 l 14.1 -3 c -0.3 -1.1 -4.5 -14.6 -1.5 -17.9 s 2 -13.2 2 -13.2 s -5.5 -6.3 -6.6 -7.8 s -8.2 -2.7 -8.2 -2.7 a 5.8 5.8 0 0 1 -0.5 -2 a 7.7 7.7 0 0 0 -0.5 1.5 c 0 2.6 1 4.3 3.8 5.6 l 0.8 0.3 c 0.4 0.2 0.9 0.3 1.4 0.5 l 0.2 0.1 c 4.5 1.4 5.5 4.1 5.5 4.1 a 10.4 10.4 0 0 1 2.1 7.3 C 371.9 184.1 357.5 193.1 357.5 193.1 Z" transform="translate(-95.2,-91)" opacity="0.1"></path><path d="M 358.3 193 l 2.4 14 l 15.9 -3.3 s -0.5 -5.3 -1.6 -7.4 s -0.9 -10.5 -0.9 -10.5 c 6.8 -7.3 3.2 -13.2 3.2 -13.2 s 19.9 -3.2 20.2 -3.8 s 7 -4.2 7 -4.2 s 7.2 -1.8 8.2 -2.9 a 9.8 9.8 0 0 1 1.2 -1.1 a 3.2 3.2 0 0 1 0.4 -0.3 l 0.5 4.6 H 415 a 6.5 6.5 0 0 0 3.2 -1.3 c 1.6 -1.3 -0.4 -15 -2 -15.5 a 1.9 1.9 0 0 0 -0.9 0 a 10 10 0 0 0 -3.4 1.9 l -0.3 0.2 l -0.1 0.1 s -9 3.5 -10.8 5.2 s -15.8 3.7 -15.8 3.7 s -6.3 1.5 -7.1 0.6 s -10.4 -2.4 -11.2 -1 s -3 1.2 -3 1.2 c -1.6 -1.8 -2.7 -1.1 -3.3 -0.1 a 7.1 7.1 0 0 0 -0.8 2 c 0 2.8 1.2 4.6 4.5 5.9 c 0.5 0.2 1 0.4 1.6 0.6 c 4.5 1.4 5.5 4.1 5.5 4.1 a 10.4 10.4 0 0 1 2.1 7.3 C 372.7 184 358.3 193 358.3 193 Z" transform="translate(-95.2,-91)" fill="#444053"></path><path d="M 415.3 148.1 a 1.4 1.4 0 0 1 0.5 0 c 1.6 0.5 3.7 14.3 2 15.5 a 6.4 6.4 0 0 1 -2.8 1.2 h -0.2 l -0.5 -4.6 a 3.2 3.2 0 0 0 -0.4 0.3 l 0 -0.2 a 12 12 0 0 0 -2.3 -10.2 Z" transform="translate(-95.2,-91)" opacity="0.1"></path><path d="M 414.2 160.3 l 0.5 4.6 a 6.4 6.4 0 0 0 3.4 -1.3 c 1.6 -1.3 -0.4 -15 -2 -15.5 c -1.3 -0.4 -3.5 1.2 -4.3 1.9 A 11.9 11.9 0 0 1 414.2 160.3 Z" transform="translate(-95.2,-91)" fill="#444053"></path><path d="M 364 167.7 l 2.3 -2.1 l -6 -5.8 a 7.1 7.1 0 0 0 -0.8 2 C 359.4 164.6 360.6 166.4 364 167.7 Z" transform="translate(-95.2,-91)" fill="#444053"></path><path d="M 348 140.3 c 0.9 0.6 1.6 1.5 2.6 1.6 a 4.1 4.1 0 0 0 2.1 -0.5 c 1.7 -0.8 3.7 -1.3 5.5 -0.7 c 2.5 0.8 4 3.8 6.5 4.7 a 4.5 4.5 0 0 0 3.8 -0.4 a 4.5 4.5 0 0 0 2 -2.8 a 4.5 4.5 0 0 0 0.1 -1.2 a 4.7 4.7 0 0 1 0 2 a 4.4 4.4 0 0 1 -3.4 3.3 a 4.5 4.5 0 0 1 -2.4 -0.1 c -2.5 -0.9 -4 -3.8 -6.5 -4.7 c -1.8 -0.6 -3.8 0 -5.5 0.7 a 4.1 4.1 0 0 1 -2.1 0.5 c -1 -0.1 -1.8 -1.1 -2.6 -1.6 c -0.1 -1.1 -3.2 -0.1 -3.5 -1.4 a 1.5 1.5 0 0 1 0 -0.6 C 345.1 140.1 347.8 139.3 348 140.3 Z" transform="translate(-95.2,-91)" opacity="0.1"></path><path d="M 357.4 171.9 s -1.3 3.6 0.3 4.8 c 0 0 -1.8 -4.7 -2.8 -4.6" transform="translate(-95.2,-91)" opacity="0.1"></path><path d="M 436 137.3 s -8.2 7.1 -2.3 8.2 S 436 137.3 436 137.3 Z" transform="translate(-95.2,-91)" fill="#efb7b9"></path><polygon points="308.9,52.2 310.5,93.5 356,52.2 308.9,52.2" fill="#ffffff"></polygon><polygon points="308.9,52.2 310.5,93.5 356,52.2 308.9,52.2" opacity="0.03"></polygon><ellipse cx="847.5" cy="692.1" rx="33.8" ry="6.5" fill="#000000"></ellipse><ellipse cx="846.9" cy="689.4" rx="3.9" ry="5.2" fill="#3f3d56"></ellipse><ellipse cx="846.9" cy="683.1" rx="3.9" ry="5.2" fill="#3f3d56"></ellipse><ellipse cx="846.9" cy="676.8" rx="3.9" ry="5.2" fill="#3f3d56"></ellipse><ellipse cx="846.9" cy="670.5" rx="3.9" ry="5.2" fill="#3f3d56"></ellipse><ellipse cx="846.9" cy="664.2" rx="3.9" ry="5.2" fill="#3f3d56"></ellipse><ellipse cx="846.9" cy="657.9" rx="3.9" ry="5.2" fill="#3f3d56"></ellipse><ellipse cx="846.9" cy="651.6" rx="3.9" ry="5.2" fill="#3f3d56"></ellipse><path d="M 956.9 699.5 a 21 21 0 0 0 1.5 -2.2 L 948 695.7 l 11.2 0.1 a 18.8 18.8 0 0 0 0.4 -14.9 l -15 7.8 l 13.8 -10.2 a 18.9 18.9 0 1 0 -31.1 21.1 a 19.6 19.6 0 0 0 -2.1 3.4 l 13.4 7 l -14.3 -4.8 a 18.9 18.9 0 0 0 3 17.7 a 18.9 18.9 0 1 0 29.6 0 a 18.9 18.9 0 0 0 0 -23.3 Z" transform="translate(-95.2,-91)" fill="#000000"></path><path d="M 923.2 711.2 a 18.8 18.8 0 0 0 4 11.7 a 18.9 18.9 0 1 0 29.6 0 C 959.4 719.6 923.2 709 923.2 711.2 Z" transform="translate(-95.2,-91)" opacity="0.1"></path></svg>