<svg xmlns="http://www.w3.org/2000/svg" viewBox="0 0 265 265" width="265" height="265"><path fill="#CDECFF" d="M227.731 95.798v104.93H37.551V95.798c0-3.49 3.01-6.33 6.66-6.33h176.89c2.04 0 3.88.88 5.08 2.26a6.118 6.118 0 0 1 1.55 4.07z"/><path fill="#ACE5FB" d="M71.011 200.728h-33.46v-5.09l12.91-19.53c1.01-1.55 3.26-1.55 4.28 0l16.25 24.6.02.02z"/><path fill="#ACE5FB" d="M197.821 89.468v106.6c0 2.17-1.4 4.01-3.35 4.66-.49.17-1.02.26-1.57.26H59.091c-.55 0-1.08-.09-1.57-.26a4.911 4.911 0 0 1-3.34-4.66v-106.6h143.64z"/><path fill="#FFF" d="M159.743 243.29a8.095 8.095 0 0 0-.842-.044H106.42c-.277 0-.566.015-.842.044l6.195-21.01h41.788l6.183 21.01z"/><path fill="#F0F2F2" d="M154.748 227.578h-44.176l1.194-5.299h41.788z"/><path fill="#FFF" d="M227.741 200.708v15.28c0 3.47-2.97 6.29-6.63 6.29H44.231c-3.68 0-6.65-2.82-6.65-6.29v-15.28h190.16z"/><path fill="#F0F2F2" d="M85.251 222.278h-41.02c-3.68 0-6.65-2.82-6.65-6.29v-15.26h33.43l14.24 21.55z"/><path fill="#F0F2F2" d="M37.574 200.713h190.172v4.066H37.574z"/><path fill="#FFF" d="M173.221 249.608c0 1.76-.69 3.33-1.81 4.47a6.046 6.046 0 0 1-4.37 1.85h-68.76c-3.43 0-6.2-2.82-6.2-6.32 0-1.74.7-3.31 1.81-4.47a6.142 6.142 0 0 1 4.39-1.84h68.76c3.41 0 6.18 2.83 6.18 6.31z"/><path fill="#F0F2F2" d="M102.711 255.928h-4.43c-3.43 0-6.2-2.82-6.2-6.32 0-1.74.7-3.31 1.81-4.47a6.142 6.142 0 0 1 4.39-1.84h.85l5.72 8.65c1.13 1.7-.1 3.98-2.14 3.98z"/><path fill="#F0F2F2" d="M173.224 249.613c0 .55-.072 1.078-.206 1.585-.683-2.726-3.101-4.734-5.975-4.734H98.276a6.13 6.13 0 0 0-4.382 1.85 6.288 6.288 0 0 0-1.603 2.884 6.173 6.173 0 0 1-.206-1.585 6.4 6.4 0 0 1 1.809-4.47 6.129 6.129 0 0 1 4.382-1.85h68.767c3.411 0 6.181 2.833 6.181 6.32z"/><path fill="#FFF" d="M254.315 60.06a26.552 26.552 0 0 0-2.911-7.02l1.935-7.255-4.453-4.437-7.24 1.935a26.77 26.77 0 0 0-7.019-2.911l-1.92-3.32-1.84-3.18h-6.295l-3.746 6.5c-.944.236-1.857.535-2.754.865a25.338 25.338 0 0 0-4.265 2.046l-7.255-1.936-4.453 4.438 1.951 7.255a26.553 26.553 0 0 0-2.912 7.02l-6.499 3.745v6.294l6.5 3.762a26.56 26.56 0 0 0 2.911 7.019l-1.951 7.239 4.453 4.453 7.255-1.935a26.553 26.553 0 0 0 7.019 2.911l3.746 6.5h6.294l3.761-6.5a26.77 26.77 0 0 0 7.02-2.911l7.239 1.935 4.453-4.453-1.935-7.24a26.56 26.56 0 0 0 2.91-7.018l6.5-3.762v-6.294l-6.5-3.746zm-26.596 18.68c-6.5 0-11.771-5.272-11.771-11.788 0-4.107 2.108-7.727 5.303-9.82a11.562 11.562 0 0 1 6.468-1.951c1.165 0 2.282.173 3.336.488 4.895 1.432 8.451 5.948 8.451 11.283 0 6.516-5.272 11.787-11.787 11.787zm-43.337-22.932a20.716 20.716 0 0 0 5.24-2.776l5.776.972 3.121-3.785-2.034-5.481a20.886 20.886 0 0 0 1.747-5.666l2.438-1.735 2.335-1.663-.462-4.89-5.323-2.433a20.8 20.8 0 0 0-.875-2.075 19.762 19.762 0 0 0-1.901-3.163l.971-5.777-3.774-3.135-5.492 2.048a20.717 20.717 0 0 0-5.665-1.747l-3.386-4.774-4.89.462-2.445 5.324a20.721 20.721 0 0 0-5.239 2.777l-5.766-.985-3.133 3.786 2.036 5.493a20.718 20.718 0 0 0-1.747 5.665l-4.774 3.387.462 4.89 5.324 2.444a20.887 20.887 0 0 0 2.776 5.239l-.973 5.765 3.786 3.133 5.482-2.035a20.725 20.725 0 0 0 5.665 1.747l3.398 4.773 4.89-.462 2.433-5.323zm-16.46-19.289c-.476-5.049 3.232-9.53 8.293-10.008a9.146 9.146 0 0 1 8.017 3.4 9.021 9.021 0 0 1 1.99 4.88 9.08 9.08 0 0 1-.134 2.628 9.175 9.175 0 0 1-8.145 7.392 9.191 9.191 0 0 1-10.02-8.292z"/><path fill="#FFF" d="M204.471 83.588v112.48c0 2.72-2.2 4.92-4.92 4.92H65.741c-2.71 0-4.91-2.2-4.91-4.92V83.588h143.64z"/><path fill="#FFF" d="M204.471 70.178v13.42H60.821v-13.42c0-3.12 2.54-5.64 5.64-5.64h132.38c3.1 0 5.63 2.52 5.63 5.64z"/><path fill="#F0F2F2" d="M96.981 64.538v5.35c0 .61-.5 1.1-1.1 1.1h-9.41c-.61 0-1.1.5-1.1 1.1v9.98c0 .89-1 1.41-1.74.91l-17.01-11.8c-.18-.13-.4-.19-.63-.19h-5.17v-.81c0-3.12 2.54-5.64 5.64-5.64h30.52z"/><path fill="#FFF" d="M152.317 137.388a15.996 15.996 0 0 0-1.754-4.228l1.166-4.37-2.683-2.673-4.36 1.166a16.123 16.123 0 0 0-4.228-1.753l-1.156-2-1.11-1.915h-3.79l-2.257 3.915c-.569.142-1.119.322-1.659.521-.9.332-1.763.749-2.569 1.232l-4.37-1.166-2.682 2.674 1.175 4.37a15.992 15.992 0 0 0-1.754 4.227l-3.914 2.256v3.792l3.915 2.266a16.002 16.002 0 0 0 1.753 4.227l-1.175 4.36 2.683 2.683 4.37-1.166a15.99 15.99 0 0 0 4.227 1.754l2.256 3.915h3.792l2.265-3.915a16.126 16.126 0 0 0 4.228-1.754l4.36 1.166 2.683-2.682-1.166-4.36a16 16 0 0 0 1.754-4.228l3.915-2.266v-3.792l-3.915-2.256zm-16.02 11.252a7.094 7.094 0 0 1-7.09-7.1 7.061 7.061 0 0 1 3.194-5.915 6.964 6.964 0 0 1 3.896-1.175 7.01 7.01 0 0 1 2.01.294 7.083 7.083 0 0 1 5.09 6.796c0 3.925-3.176 7.1-7.1 7.1zm23.517-43.998a10.242 10.242 0 0 0-1.962-2.178l-.23-2.887-2.19-1.04-2.383 1.635a10.323 10.323 0 0 0-2.927-.155l-1.125-.96-1.079-.92-2.289.81-.525 2.845a10.296 10.296 0 0 0-2.178 1.962l-2.886.23-1.049 2.187 1.643 2.386a10.24 10.24 0 0 0-.155 2.927l-1.881 2.198.81 2.29 2.847.53c.557.827 1.215 1.56 1.962 2.178l.222 2.883 2.192 1.047 2.389-1.638c.95.192 1.934.243 2.927.156l2.198 1.88 2.289-.81.531-2.846a10.328 10.328 0 0 0 2.178-1.962l2.88-.228 1.047-2.192-1.635-2.383c.192-.95.243-1.934.155-2.927l1.88-2.204-.81-2.29-2.846-.525zm-7.267 10.214a4.542 4.542 0 0 1-5.132-7.024 4.46 4.46 0 0 1 2.1-1.542c.424-.15.853-.23 1.277-.252a4.536 4.536 0 0 1 4.524 3.015 4.544 4.544 0 0 1-2.769 5.803z"/><path fill="#FE8E00" d="M95.563 159.71a1.223 1.223 0 0 1-.37-.9v-6.779h-16.79a1.22 1.22 0 0 1-.899-.37 1.22 1.22 0 0 1-.371-.901v-3.654c0-.564.193-1.094.582-1.588l15.624-21.609c.176-.282.44-.503.794-.662a2.815 2.815 0 0 1 1.165-.238h5.826c.388 0 .696.115.927.345.228.23.344.539.344.926v21.449h4.766c.388 0 .697.115.927.344.23.23.344.54.344.927v3.76c0 .353-.114.654-.344.9-.23.248-.539.371-.927.371h-4.766v6.779c0 .353-.116.654-.344.9-.23.248-.54.371-.927.371h-4.661c-.353 0-.653-.123-.9-.37zM84.6 145.94h10.75v-15.199l-10.75 15.2zm95.252 13.77a1.223 1.223 0 0 1-.37-.9v-6.779h-16.789a1.22 1.22 0 0 1-.9-.37 1.22 1.22 0 0 1-.37-.901v-3.654c0-.564.193-1.094.582-1.588l15.624-21.609c.175-.282.44-.503.794-.662a2.815 2.815 0 0 1 1.165-.238h5.826c.387 0 .696.115.927.345.228.23.343.539.343.926v21.449h4.767c.388 0 .696.115.927.344.23.23.344.54.344.927v3.76c0 .353-.115.654-.344.9-.23.248-.54.371-.927.371h-4.767v6.779c0 .353-.115.654-.343.9-.23.248-.54.371-.927.371h-4.661c-.354 0-.653-.123-.9-.37zm-10.963-13.77h10.751v-15.199l-10.75 15.2z"/><path fill="#EC5352" d="M87.741 184.531a.278.278 0 0 1-.084-.204v-7.811a.31.31 0 0 1 .078-.217.275.275 0 0 1 .21-.084h3.217c.968 0 1.728.228 2.28.685.552.456.827 1.12.827 1.992 0 .863-.275 1.517-.828 1.962-.551.443-1.311.666-2.279.666h-1.765v2.807a.274.274 0 0 1-.084.21.301.301 0 0 1-.215.078h-1.153a.28.28 0 0 1-.204-.084zm3.36-4.356c.464 0 .819-.11 1.063-.33.243-.22.365-.541.365-.966 0-.416-.118-.74-.353-.972-.237-.231-.594-.347-1.075-.347h-1.727v2.615H91.1zm4.891 4.314c-.34-.164-.608-.385-.805-.666s-.294-.588-.294-.923c0-.544.22-.985.66-1.32.44-.337 1.045-.564 1.813-.684l1.644-.24v-.253c0-.343-.088-.604-.264-.78-.177-.176-.456-.264-.84-.264-.264 0-.476.048-.636.144-.16.097-.29.194-.39.294l-.198.198c-.032.096-.092.145-.18.145h-.936c-.072 0-.134-.025-.186-.073s-.078-.112-.078-.192c.008-.2.105-.426.294-.678.187-.252.477-.471.87-.66.392-.187.876-.282 1.452-.282.943 0 1.632.213 2.063.637.433.423.649.98.649 1.668v3.767a.276.276 0 0 1-.288.288h-.996c-.08 0-.149-.028-.204-.084s-.084-.124-.084-.204v-.468a1.966 1.966 0 0 1-.744.63c-.32.164-.72.246-1.2.246-.408 0-.782-.082-1.122-.246zm2.61-1.338c.28-.288.42-.704.42-1.248v-.24l-1.2.193c-.92.143-1.38.452-1.38.924 0 .255.106.454.318.593.211.14.465.21.761.21.44 0 .8-.143 1.08-.431zm4.656 3.75c-.44-.236-.752-.505-.936-.81-.184-.304-.276-.564-.276-.78 0-.08.028-.146.084-.198s.124-.078.204-.078h1.068c.072 0 .134.019.186.054a.382.382 0 0 1 .126.198 1.4 1.4 0 0 0 .396.534c.176.148.448.222.816.222.48 0 .832-.105 1.056-.317.224-.213.336-.582.336-1.11v-.817c-.432.513-1.044.769-1.836.769-.833 0-1.458-.252-1.878-.756-.42-.504-.646-1.193-.678-2.065l-.012-.324.012-.323c.032-.857.26-1.544.684-2.065.424-.52 1.048-.78 1.872-.78.424 0 .796.08 1.116.24.32.16.584.376.792.649v-.47a.299.299 0 0 1 .3-.3h.984c.08.001.148.03.204.085a.294.294 0 0 1 .084.216l.012 5.784c0 .889-.248 1.576-.744 2.064s-1.244.732-2.244.732c-.713 0-1.288-.118-1.728-.353zm2.688-4.038c.224-.288.348-.64.372-1.055a3.97 3.97 0 0 0 .012-.385c0-.192-.004-.32-.012-.384-.024-.416-.148-.767-.372-1.056-.224-.288-.56-.432-1.008-.432-.864 0-1.32.528-1.368 1.584l-.013.288c0 1.248.46 1.872 1.381 1.872.448 0 .784-.143 1.008-.432zm4.182 1.104c-.525-.512-.803-1.24-.834-2.184l-.013-.3c0-1 .263-1.788.786-2.364.525-.576 1.25-.864 2.179-.864.951 0 1.685.288 2.201.864.517.576.775 1.344.775 2.304v.252a.29.29 0 0 1-.3.288h-3.985v.097c.016.448.138.817.367 1.11.227.291.542.438.942.438.455 0 .827-.185 1.115-.552a.647.647 0 0 1 .168-.162c.04-.02.109-.03.204-.03h1.057c.071 0 .134.019.185.059s.078.097.078.168c0 .192-.114.419-.341.679-.229.26-.555.485-.979.677s-.916.288-1.475.288c-.897 0-1.607-.255-2.13-.768zm3.437-3.024v-.024c0-.472-.118-.85-.353-1.134-.237-.284-.559-.426-.966-.426-.408 0-.729.142-.96.426-.232.284-.349.662-.349 1.134v.024h2.628zm5.892 3.588a.278.278 0 0 1-.084-.204v-7.811a.31.31 0 0 1 .078-.217.275.275 0 0 1 .21-.084h.936c.152 0 .268.068.348.204l3.433 5.328v-5.231c0-.088.025-.16.077-.217a.275.275 0 0 1 .21-.084h1.032c.088 0 .16.028.216.084a.293.293 0 0 1 .084.217v7.8a.289.289 0 0 1-.287.3h-.948a.392.392 0 0 1-.36-.205l-3.42-5.208v5.124c0 .08-.027.149-.079.204s-.122.084-.21.084h-1.032a.28.28 0 0 1-.204-.084zm8.844-.515c-.512-.48-.788-1.145-.828-1.992l-.012-.529.011-.528c.04-.84.32-1.501.84-1.985.52-.485 1.244-.727 2.173-.727.92 0 1.64.242 2.16.727.52.484.8 1.145.84 1.985.008.097.012.273.012.528s-.004.432-.012.529c-.04.847-.316 1.511-.828 1.992-.513.48-1.236.72-2.172.72-.944 0-1.673-.24-2.184-.72zm3.162-.889c.227-.264.35-.651.366-1.164a5.9 5.9 0 0 0 .012-.468c0-.231-.004-.387-.012-.468-.017-.511-.14-.902-.372-1.17-.233-.268-.557-.402-.972-.402-.425 0-.753.134-.984.402-.233.268-.357.659-.372 1.17l-.012.468.012.468c.015.513.14.9.372 1.164.231.265.56.397.984.397.424 0 .75-.132.978-.397zm4.507.918c-.369-.38-.553-.937-.553-1.674v-2.712h-.947a.278.278 0 0 1-.204-.084.275.275 0 0 1-.084-.204v-.708c0-.08.027-.147.084-.204a.278.278 0 0 1 .204-.084h.947v-1.992a.275.275 0 0 1 .288-.287h.996c.088 0 .158.025.21.077a.286.286 0 0 1 .078.21v1.992h1.5a.28.28 0 0 1 .204.084.28.28 0 0 1 .084.204v.708c0 .08-.028.149-.084.204a.28.28 0 0 1-.204.084h-1.5v2.58c0 .344.06.605.18.78s.316.264.588.264h.84c.089 0 .158.027.21.079a.284.284 0 0 1 .079.21v.756a.29.29 0 0 1-.078.204.275.275 0 0 1-.21.084h-.985c-.728 0-1.276-.19-1.643-.57zm6.947.486a.278.278 0 0 1-.084-.204v-7.811a.31.31 0 0 1 .078-.217.275.275 0 0 1 .21-.084h5.22c.088 0 .16.028.216.084a.297.297 0 0 1 .084.217v.863c0 .08-.028.149-.084.204a.29.29 0 0 1-.215.084H144.5v2.256h3.6c.088 0 .16.028.216.084a.282.282 0 0 1 .084.204v.865c0 .08-.028.148-.084.204s-.128.084-.216.084h-3.6v2.964c0 .08-.027.148-.084.204a.293.293 0 0 1-.216.084h-1.08a.281.281 0 0 1-.204-.085zm7.464-.515c-.512-.48-.788-1.145-.828-1.992l-.012-.529.012-.528c.04-.84.32-1.501.84-1.985.52-.485 1.243-.727 2.172-.727.92 0 1.64.242 2.16.727.52.484.8 1.145.84 1.985.008.097.012.273.012.528s-.004.432-.012.529c-.04.847-.316 1.511-.828 1.992-.513.48-1.236.72-2.172.72-.944 0-1.673-.24-2.184-.72zm3.162-.889c.227-.264.35-.651.366-1.164a5.9 5.9 0 0 0 .012-.468c0-.231-.004-.387-.012-.468-.017-.511-.14-.902-.372-1.17-.233-.268-.557-.402-.972-.402-.425 0-.753.134-.984.402-.233.268-.357.659-.372 1.17l-.012.468.012.468c.015.513.14.9.372 1.164.231.265.56.397.984.397.424 0 .75-.132.978-.397zm3.942.889c-.424-.48-.636-1.14-.636-1.98v-3.373a.27.27 0 0 1 .084-.21.287.287 0 0 1 .204-.078h1.08c.08 0 .148.028.204.084a.276.276 0 0 1 .084.204v3.3c0 .984.427 1.477 1.284 1.477.416 0 .746-.132.99-.397.244-.264.366-.624.366-1.08v-3.3a.27.27 0 0 1 .084-.21.29.29 0 0 1 .204-.078h1.068c.088 0 .158.027.21.078s.078.122.078.21v5.664a.276.276 0 0 1-.288.288h-.996a.28.28 0 0 1-.204-.084.278.278 0 0 1-.084-.204v-.492c-.44.6-1.104.9-1.992.9-.736 0-1.316-.24-1.74-.72zm6.972.515a.278.278 0 0 1-.084-.204v-5.664c0-.088.028-.158.084-.21s.124-.078.204-.078h.996c.088 0 .157.026.21.078a.284.284 0 0 1 .078.21v.492c.488-.6 1.156-.9 2.004-.9.736 0 1.32.24 1.752.72.432.48.648 1.14.648 1.98v3.372a.275.275 0 0 1-.287.288h-1.08a.278.278 0 0 1-.205-.084.275.275 0 0 1-.084-.204v-3.3c0-.463-.114-.826-.342-1.085-.228-.26-.554-.391-.978-.391-.408 0-.736.133-.984.396s-.372.624-.372 1.08v3.3a.275.275 0 0 1-.287.288h-1.069a.279.279 0 0 1-.204-.084zm7.872-.57c-.432-.516-.668-1.206-.708-2.07l-.012-.396.012-.395c.032-.849.265-1.534.702-2.059.435-.523 1.058-.786 1.866-.786.768 0 1.38.265 1.836.792v-2.664c0-.088.027-.157.084-.21a.289.289 0 0 1 .204-.077h1.044c.088 0 .157.025.21.077a.286.286 0 0 1 .078.21v7.944a.29.29 0 0 1-.078.204.275.275 0 0 1-.21.084h-.973a.28.28 0 0 1-.204-.084.278.278 0 0 1-.084-.204v-.444c-.44.568-1.076.852-1.907.852-.808 0-1.428-.257-1.86-.774zm3.33-.96c.22-.292.342-.653.366-1.086.008-.095.012-.248.012-.456a6.51 6.51 0 0 0-.012-.468c-.016-.4-.14-.74-.372-1.02-.232-.28-.568-.42-1.008-.42-.856 0-1.312.528-1.368 1.584l-.013.36.013.36c.056 1.056.512 1.585 1.368 1.585.455 0 .793-.147 1.014-.439z"/><path fill="#FFF" d="M98.647 255.932H6.537c-1.875 0-3.003-2.094-1.967-3.659l46.06-69.695a2.354 2.354 0 0 1 3.936 0l46.049 69.695c1.036 1.565-.092 3.66-1.968 3.66zM94.436 10.167v57.18c0 .604-.495 1.1-1.1 1.1h-9.41c-.606 0-1.1.494-1.1 1.099v9.979c0 .889-1 1.411-1.732.907L64.077 68.64a1.096 1.096 0 0 0-.632-.193H5.275c-.604 0-1.1-.495-1.1-1.1v-57.18c0-.604.496-1.099 1.1-1.099h88.061c.605 0 1.1.495 1.1 1.1z"/><g fill="#54607B"><path d="M132.66 206.55a4.938 4.938 0 0 0-4.944 4.945c0 2.722 2.208 4.945 4.944 4.945s4.944-2.223 4.944-4.945a4.938 4.938 0 0 0-4.944-4.944z"/><path d="m261.311 62.952-6.14-3.56c-.62-2.26-1.52-4.45-2.69-6.5 1.604-6.655 2.29-7.079 1.57-7.8-4.24-4.014-4.443-4.978-5.42-4.72l-6.84 1.83a28.131 28.131 0 0 0-6.5-2.69c-3.592-5.86-3.413-6.64-4.42-6.64h-6.29c-.36 0-.69.19-.87.5l-3.55 6.14a27.96 27.96 0 0 0-6.5 2.69c-6.607-1.59-7.084-2.295-7.81-1.57-4.075 4.314-4.967 4.449-4.71 5.42l1.83 6.84a28.167 28.167 0 0 0-2.7 6.5c-6.136 3.661-6.404 3.477-6.59 4.14h-91.18c-.55 0-1 .45-1 1s.45 1 1 1h97.47c1.93 0 3.5 1.57 3.5 3.5v13.56H61.831v-13.13h1.68l17.01 11.79c.65.452 1.476.504 2.18.14.69-.37 1.12-1.08 1.12-1.87v-9.97c0-.06.05-.11.11-.11h9.4a2.1 2.1 0 0 0 2.1-2.1v-57.17c0-1.16-.94-2.11-2.1-2.11H5.281c-1.16 0-2.11.95-2.11 2.11v57.17c0 1.16.95 2.1 2.11 2.1l54.55.02v19h-15.62c-4.22 0-7.65 3.29-7.65 7.33v90.07c0 .55.44 1 1 1 .55 0 1-.45 1-1v-90.07c0-2.94 2.53-5.33 5.65-5.33h15.62v89.71c0 .55.45 1 1 1s1-.45 1-1v-95.58h141.64v111.48c0 1.65-1.03 3.07-2.48 3.64H67.151l-11.75-17.78c-.62-.94-1.67-1.51-2.8-1.51s-2.18.57-2.8 1.51l-46.07 69.7c-1.478 2.24.155 5.21 2.81 5.21 173.164.171 93.227.053 160.5.09 3.985 0 7.18-3.27 7.18-7.32 0-4.04-3.22-7.32-7.18-7.32h-6.55l-5.59-19.02h66.21c4.21 0 7.63-3.27 7.63-7.29 0-18.744-.007-88.5-.01-114.94 1.654-.11 2.534.303 3-.5l3.56-6.13c2.26-.62 4.45-1.53 6.5-2.7 6.715 1.628 7.107 2.291 7.8 1.57 4.06-4.279 4.975-4.43 4.72-5.42l-1.83-6.84c1.17-2.05 2.07-4.23 2.69-6.5 5.859-3.582 6.64-3.397 6.64-4.42-.163-5.98.376-6.67-.5-7.15zm-256.03 4.49c-.06 0-.11-.04-.11-.1v-57.17c0-.06.05-.11.11-.11h88.05c.06 0 .1.05.1.11v57.17c0 .06-.04.1-.1.1h-9.4c-1.16 0-2.11.95-2.11 2.11v9.97c0 .097-.09.125-.16.09l-17.02-11.79c-.35-.25-.76-.38-1.19-.38H5.281zm1.26 187.4c-1.1 0-1.728-1.227-1.14-2.11 8.556-12.948 44.84-67.852 46.06-69.7.26-.39.67-.61 1.14-.61.46 0 .87.22 1.13.61l46.05 69.7c.28.42.3.94.06 1.39-.24.45-.69.72-1.19.72H6.541zm165.68-5.23c0 2.977-2.34 5.32-5.18 5.32h-65.37c.51-1.07.43-2.31-.22-3.3l-4.69-7.1c.49-.16 1-.24 1.52-.24h68.76c2.86 0 5.18 2.39 5.18 5.32zm-13.83-7.37h-51.46l5.59-18.96h40.29l5.58 18.96zm-53.56.05h-6.55c-.92 0-1.82.18-2.66.51l-12.91-19.53h27.72l-5.6 19.02zm116.28-21.02H81.391l-12.74-19.28c39.593-.027 118.485.087 158.09-.27v14.26c0 2.92-2.52 5.29-5.63 5.29zm5.62-21.56h-22.53c.8-1 1.27-2.27 1.27-3.64V92.902c.226.167.609.852 1.35.64l6.84-1.83a27.99 27.99 0 0 0 6.5 2.7c3.595 5.871 3.399 6.63 4.42 6.63h2.15v98.67zm33.08-130.18-6 3.47c-.23.13-.4.35-.47.61-2.988 11.606-4.226 1.848-1.11 14.21l-3.64 3.64-6.69-1.79a.972.972 0 0 0-.76.11c-10.327 6.09-4.29-1.684-10.85 9.26h-5.14l-3.47-5.99c-.462-.853-1.744-.292-6.14-2.59-.42-.21-.83-.44-1.23-.68a.99.99 0 0 0-.77-.11l-6.68 1.79-1.39-1.39v-21.04c0-3.03-2.47-5.5-5.5-5.5h-2.85c4.355-2.634 4.785-2.507 4.98-3.23.61-2.37 1.55-4.64 2.8-6.76.39-.64.036-.643-1.68-7.45l3.64-3.64c6.787 1.711 6.794 2.062 7.45 1.69 10.264-6.08 4.284 1.714 10.84-9.27h5.14l3.47 6c.14.23.36.4.62.47 11.543 2.971 1.839 4.23 14.21 1.11l3.64 3.64c-1.733 6.879-2.054 6.805-1.69 7.45 6.114 10.37-1.671 4.303 9.27 10.85v5.14z"/><path d="M227.721 54.182c-7.04 0-12.78 5.73-12.78 12.78 0 7.04 5.74 12.78 12.78 12.78 7.05 0 12.78-5.74 12.78-12.78 0-7.05-5.73-12.78-12.78-12.78zm0 23.56c-5.94 0-10.78-4.84-10.78-10.78 0-5.95 4.84-10.78 10.78-10.78 5.95 0 10.78 4.83 10.78 10.78 0 5.94-4.83 10.78-10.78 10.78zm-71.59-34.03c.64 1.67 1.48 3.26 2.51 4.74l-.9 5.36c-.167.975.832 1.143 4.13 4.07.787.647 1.306-.116 6.08-1.73 1.65.74 3.37 1.27 5.13 1.58 2.262 2.844 3.15 5.157 4.07 4.85 4.416-.565 5.284-.124 5.7-1.04l2.27-4.94c1.67-.64 3.27-1.49 4.74-2.51l5.36.9c.987.165 1.052-.721 4.07-4.13.645-.785-.112-1.298-1.72-6.09.73-1.64 1.26-3.36 1.58-5.13 4.03-3.055 4.934-3.054 4.85-4.06-.573-4.418-.12-5.268-1.04-5.7l-4.95-2.27c-.64-1.68-1.48-3.27-2.51-4.75l.91-5.36c.167-.973-.794-1.106-4.14-4.07-.79-.621-1.182.084-6.08 1.73a21.93 21.93 0 0 0-5.13-1.58l-3.16-4.43c-.568-.824-1.292-.225-5.79.04-1.018.114-.823.973-3.09 5.53-1.67.63-3.26 1.48-4.74 2.51l-5.36-.91c-1.017-.14-1.077.76-4.07 4.14-.647.76.119 1.309 1.72 6.08-.73 1.64-1.26 3.36-1.58 5.13-3.796 2.886-4.955 3.054-4.84 4.06l.46 4.89c.085.986.968.819 5.52 3.09zm.77-11.31c.3-1.86.85-3.68 1.66-5.4.313-.681-.137-.946-1.8-5.71l2.4-2.9c5.106.767 5.347 1.139 5.95.7 1.53-1.11 3.21-2 4.99-2.64.715-.257.584-.782 2.77-5.32l3.74-.35c5.916 7.991.565 2.38 9.12 6.36.66.33.9-.111 5.71-1.8l2.9 2.4c-.777 5.18-1.134 5.354-.7 5.95 1.11 1.54 2 3.22 2.64 4.99.258.715.783.584 5.32 2.77l.35 3.74c-4.191 3.113-4.589 3-4.7 3.72-.3 1.87-.86 3.68-1.67 5.4-.312.682.128.922 1.8 5.71l-2.39 2.9c-9.879-1.48-2.097-1.257-10.94 1.94-.675.234-.516.622-2.78 5.32l-3.74.36c-5.901-7.988-.581-2.403-9.11-6.37-.614-.306-.674.015-5.72 1.8l-2.89-2.4c.781-5.263 1.118-5.337.7-5.95a19.753 19.753 0 0 1-2.65-4.99c-.257-.715-.782-.583-5.32-2.77l-.35-3.74c4.151-3.075 4.599-2.995 4.71-3.72z"/><path d="M178.031 45.802c5.59-.53 9.71-5.51 9.19-11.1-.53-5.522-5.41-9.715-11.11-9.19-5.59.53-9.71 5.51-9.18 11.1.51 5.526 5.394 9.71 11.1 9.19zm-1.73-18.3c4.813-.37 8.517 3.1 8.93 7.39.37 4.808-3.114 8.517-7.39 8.92-4.524.418-8.506-2.889-8.92-7.38-.43-4.5 2.89-8.5 7.38-8.93zm.771 46.56a2.63 2.63 0 0 0-2.627-2.626 2.63 2.63 0 0 0-2.627 2.627 2.63 2.63 0 0 0 2.627 2.627 2.631 2.631 0 0 0 2.627-2.627zm9.088 0c0-1.447-1.18-2.626-2.627-2.626s-2.627 1.179-2.627 2.627c0 1.447 1.18 2.627 2.627 2.627s2.627-1.18 2.627-2.627zm9.088 0a2.63 2.63 0 0 0-2.627-2.626 2.63 2.63 0 0 0-2.627 2.627 2.63 2.63 0 0 0 2.627 2.627 2.631 2.631 0 0 0 2.627-2.627zm-79.877 65.59c.14 3.276-.353 4.155.5 4.65l3.55 2.06c.37 1.29.89 2.53 1.54 3.71-.778 3.468-1.506 4.225-.8 4.93 2.384 2.183 2.69 3.195 3.65 2.94l3.96-1.06c1.18.65 2.42 1.17 3.71 1.54 1.96 3.088 1.944 4.05 2.92 4.05 3.243-.137 4.165.353 4.66-.5l2.06-3.55c1.29-.37 2.53-.89 3.7-1.54 3.554.798 4.23 1.5 4.93.8 2.266-2.46 3.198-2.687 2.95-3.65l-1.06-3.96c.65-1.18 1.17-2.42 1.53-3.71 3.043-1.926 4.06-1.938 4.06-2.92-.137-3.243.353-4.165-.5-4.66l-3.56-2.06c-.36-1.28-.88-2.53-1.53-3.7.797-3.552 1.5-4.23.8-4.93-2.357-2.165-2.712-3.216-3.65-2.94l-3.96 1.06c-1.18-.66-2.42-1.17-3.71-1.54l-2.06-3.56c-.18-.31-.51-.5-.87-.5-3.282.14-4.155-.352-4.65.5l-2.06 3.56c-1.29.37-2.53.88-3.71 1.54-3.497-.794-4.22-1.492-4.93-.81-2.14 2.337-3.19 2.703-2.94 3.65l1.06 3.97c-.65 1.17-1.17 2.41-1.54 3.7-3.111 1.975-4.05 1.941-4.05 2.93zm7.53-5.98c.356-.658-.027-.889-.92-4.58l1.87-1.86 3.81 1.01c.889.249 1.22-.84 4.73-1.75.695-.16.671-.734 2.59-3.88h2.64c1.922 3.151 1.877 3.716 2.59 3.88 3.513.91 3.881 2.022 4.73 1.75l3.81-1.01 1.86 1.86c-.901 3.76-1.264 3.944-.91 4.57 1.766 2.984 1.328 4.114 2.11 4.59l3.42 1.97v2.64c-3.166 1.931-3.721 1.904-3.88 2.59-.36 1.39-.91 2.73-1.65 3.97-.36.638.035.919.91 4.57l-1.86 1.87c-3.751-.907-3.956-1.283-4.57-.91-1.25.73-2.58 1.28-3.97 1.64-.26.07-.48.23-.62.47l-1.97 3.41h-2.64l-1.98-3.41a.963.963 0 0 0-.61-.47c-1.39-.36-2.73-.91-3.97-1.64-.62-.377-.917.027-4.57.91l-1.87-1.87 1.02-3.8c.246-.912-.862-1.286-1.75-4.74-.185-.687-.622-.597-3.88-2.59v-2.64l3.41-1.97c.81-.472.302-1.558 2.12-4.58z"/><path d="M136.301 149.642c4.46 0 8.09-3.63 8.09-8.1 0-4.46-3.63-8.09-8.09-8.09-4.47 0-8.1 3.63-8.1 8.09 0 4.47 3.63 8.1 8.1 8.1zm0-14.19c3.36 0 6.09 2.73 6.09 6.09s-2.73 6.1-6.09 6.1-6.1-2.74-6.1-6.1c0-3.36 2.74-6.09 6.1-6.09zm1.54-22.42c-.604.736.087 1.394.62 3.27.313.886 1.243.62 3.21 1.11.46.64.99 1.23 1.58 1.76.276 1.965-.102 2.886.76 3.29 1.828.744 2.445 1.51 3.19.97l2.05-1.4c.78.12 1.57.16 2.36.12 2.902 2.335 1.58 2.217 5.16.99.908-.33.642-1.371 1.1-3.21.64-.46 1.23-.99 1.76-1.58 1.973-.276 2.868.104 3.3-.76l1.04-2.19c.415-.83-.443-1.32-1.48-3.04.12-.79.16-1.58.12-2.36 1.226-1.622 2.112-1.995 1.8-2.88-.75-1.765-.639-2.753-1.57-2.94l-2.44-.45c-.47-.64-1-1.23-1.58-1.76l-.2-2.47c-.077-.922-1.015-.904-2.76-1.87-.845-.395-1.32.45-3.04 1.48-.78-.12-1.58-.16-2.36-.12l-1.89-1.61c-.708-.63-1.448.098-3.27.62-.886.313-.62 1.243-1.11 3.21-.63.46-1.22.99-1.75 1.58-1.97.275-2.898-.098-3.3.76l-1.05 2.19c-.404.862.492 1.391 1.48 3.04-.12.78-.16 1.58-.12 2.36l-1.61 1.89zm3.63-1.64c-.206-2.27.448-2.756-.02-3.4l-1.3-1.91.54-1.15c2.015-.235 2.562.002 3-.54 1.52-1.813 2.236-1.59 2.39-2.42l.43-2.27 1.2-.43c1.662 1.312 1.803 1.792 2.5 1.74 2.251-.204 2.718.445 3.4-.02l1.91-1.31 1.15.55c.232 1.978-.007 2.531.54 3 1.812 1.519 1.59 2.237 2.42 2.39l2.28.43.42 1.2c-1.311 1.662-1.792 1.804-1.74 2.5.214 2.346-.456 2.701.02 3.4l1.31 1.91-.55 1.15c-2.033.238-2.532-.005-3 .54-1.399 1.699-2.243 1.625-2.39 2.42l-.42 2.27-1.2.43c-1.749-1.396-1.812-1.74-2.42-1.74h-.09c-2.345.214-2.7-.456-3.4.02l-1.91 1.31-1.15-.55c-.236-2.017.005-2.518-.53-3-1.758-1.452-1.614-2.235-2.42-2.39l-2.28-.43-.43-1.2c1.232-1.56 1.794-1.77 1.74-2.5z"/><path d="M152.881 115.802c2.915-1.027 4.399-4.252 3.38-7.08-1.023-2.846-4.156-4.414-7.08-3.37a5.52 5.52 0 0 0-3.15 2.83c-2.093 4.384 2.13 9.273 6.85 7.62zm-5.05-6.76c.41-.85 1.13-1.49 2.02-1.81 1.766-.633 3.854.25 4.52 2.16a3.54 3.54 0 0 1-2.16 4.52c-2.94 1.057-5.721-1.986-4.38-4.87zm-52.18 20.75a.982.982 0 0 0-1.12.37l-10.75 15.2c-.21.31-.24.71-.07 1.04.17.33.51.54.89.54h10.75c.55 0 1-.45 1-1v-15.2c0-.44-.28-.82-.7-.95zm-1.3 15.15h-7.82l7.82-11.06v11.06z"/><path d="M102.761 122.642c-1.151-1.112-2.537-.396-7.46-.63-2.726 0-1.924.306-18.37 22.89-1.244 1.573-.636 2.704-.8 5.86 0 1.27 1.024 2.27 2.27 2.27h15.79c.178 5.377-.435 6.285.66 7.38.44.44.99.67 1.61.67 4.105-.167 5.277.428 6.32-.69 1.016-1.092.45-2.105.61-7.36 3.148-.15 4.402.412 5.43-.69.4-.43.61-.98.61-1.58-.202-2.938.451-4.271-.64-5.4-1.07-1.07-2.567-.441-5.4-.63-.215-21.23.487-20.945-.63-22.09zm4.4 24.09c.395 0 .249-.176.27 4.03 0 .466-.1.196-5.04.27-1.737 0-.697 2.535-1 7.78 0 .11-.03.17-.07.22-.216.108.224.008-4.86.05a.267.267 0 0 1-.27-.27c-.304-5.25.738-7.78-1-7.78-17.388-.03-17.06.16-17.06-.27.188-6.76-2.844.595 16.06-26.33.43-.675 1.659-.331 6.93-.42.479 0 .206-1.347.27 21.72 0 1.693 2.595.753 5.77 1zm72.78-16.94a.982.982 0 0 0-1.12.37c-10.821 15.666-11.342 15.227-10.82 16.24.17.33.51.54.89.54h10.75c.55 0 1-.45 1-1v-15.2c0-.44-.28-.82-.7-.95zm-1.3 15.15h-7.82l7.82-11.06v11.06z"/><path d="M185.411 122.012c-5.132.082-7.492-.473-8.59 1.31-16.453 23.064-16.4 21.895-16.4 23.78.361 7.577-2.415 5.653 18.06 5.93v5.78a2.265 2.265 0 0 0 2.27 2.27c4.105-.167 5.277.429 6.32-.69 1.017-1.092.451-2.105.61-7.36h3.77c1.383 0 2.27-1.06 2.27-2.27-.201-2.937.451-4.271-.64-5.4-1.07-1.07-2.567-.441-5.4-.63v-20.45c0-1.328-.915-2.27-2.27-2.27zm6.31 24.99c-.082 3.837.198 4.03-.27 4.03-3.22.252-5.77-.687-5.77 1-.03 7.11.066 6.831-.07 7-.215.108.224.008-4.86.05-.512 0-.158-.416-.27-7.05 0-.55-.45-1-1-1-16.268-.162-17.06.325-17.06-.27.188-6.76-2.843.595 16.06-26.33.43-.675 1.66-.33 6.93-.42.48 0 .206-1.347.27 21.72 0 .55.45 1 1 1 5.299.011 5.04-.13 5.04.27zm-139.12 58.29c-7.038 0-6.951 8.35-6.02 15.98.43 3.543 2.47 15.58 6.02 15.58 3.527 0 5.57-12.043 6-15.58.906-7.422 1.046-15.98-6-15.98zm-.01 33.98c-2.21 0-4 1.79-4 4s1.79 4.01 4 4.01 4-1.8 4-4.01-1.79-4-4-4zM21.695 35.841c-.72 0-1.297.576-1.297 1.297 0 .72.576 1.297 1.297 1.297.72 0 1.297-.577 1.297-1.297s-.577-1.297-1.297-1.297zm7.784 5.162a.418.418 0 0 0-.446.407 2.737 2.737 0 0 1-2.725 2.62 2.74 2.74 0 0 1-2.74-2.62.407.407 0 0 0-.432-.407.445.445 0 0 0-.42.446 3.591 3.591 0 0 0 3.591 3.433 3.588 3.588 0 0 0 3.578-3.433.426.426 0 0 0-.406-.446zm1.978-5.163c-.72 0-1.297.577-1.297 1.298 0 .72.576 1.297 1.297 1.297.72 0 1.297-.577 1.297-1.297s-.576-1.297-1.297-1.297z"/><path d="M42.291 34.252h-2.59c-1.93-5.4-7.08-9.25-13.13-9.25-6.04 0-11.19 3.85-13.12 9.25h-2.59c-.51 0-.92.41-.92.92v7.55c0 .51.41.93.92.93h2.59c1.93 5.38 7.08 9.24 13.12 9.24 6.05 0 11.2-3.86 13.13-9.24h2.59c.51 0 .92-.42.92-.93v-7.55c0-.51-.41-.92-.92-.92zm-15.72 13.84c-5.086 0-9.13-4.139-9.13-9.15 0-5.04 4.08-9.14 9.13-9.14 5.06 0 9.14 4.1 9.14 9.14 0 5.038-4.074 9.15-9.14 9.15zm33.65-5.63v-1.32c0-.274-.175-.44-.45-.44h-1.67v-7.51c0-.274-.169-.45-.44-.45h-2.04c-.262 0-.537.102-.69.32l-5.46 7.56c-.14.17-.21.36-.21.56v1.28c0 .223.178.44.45.44h5.87v2.37c0 .23.175.45.45.45h1.63c.283 0 .44-.21.44-.45v-2.37h1.67c.294 0 .45-.207.45-.44zm-4.58-1.69h-3.76l3.76-5.32v5.32zm11.27 5.13c4.011 0 5.06-2.614 5.06-6.67 0-3.869-.85-6.67-5.06-6.67-1.63 0-2.86.46-3.69 1.37-1.446 1.603-1.35 3.427-1.35 5.3 0 4.075 1.01 6.67 5.04 6.67zm0-11.21c2.384.032 2.35 2.396 2.35 4.5 0 2.244.042 4.55-2.35 4.55-2.4 0-2.36-2.32-2.36-4.55 0-2.193-.022-4.469 2.36-4.5zm7.12 8.21h5.87v2.37c0 .256.194.45.45.45h1.63c.282 0 .44-.209.44-.45v-2.37h1.67c.276 0 .44-.202.44-.44v-1.32c0-.272-.175-.44-.44-.44h-1.67v-7.51c0-.27-.165-.45-.44-.45h-2.04c-.254 0-.561.106-.69.32l-5.47 7.56c-.13.17-.2.36-.2.56v1.28c0 .267.215.44.45.44zm5.93-7.45v5.32h-3.77l3.77-5.32zm165.667 150.543a1.26 1.26 0 0 0-1.26 1.26v5.374a1.26 1.26 0 1 0 2.52 0v-5.374a1.26 1.26 0 0 0-1.26-1.26zm0 12.625a1.26 1.26 0 0 0-1.26 1.26v5.228a1.26 1.26 0 1 0 2.52 0v-5.228a1.26 1.26 0 0 0-1.26-1.26zm-231-102.776a1.26 1.26 0 0 0 1.26-1.26v-5.372a1.26 1.26 0 1 0-2.52 0v5.373c0 .696.564 1.26 1.26 1.26zm-1.26 11.22a1.26 1.26 0 1 0 2.52 0v-5.228a1.26 1.26 0 1 0-2.52 0v5.228zm95.064-84.353a1.26 1.26 0 0 0 1.26-1.26v-5.374a1.26 1.26 0 1 0-2.52 0v5.374c0 .696.563 1.26 1.26 1.26zm0 12.48a1.26 1.26 0 0 0 1.26-1.26V28.7a1.26 1.26 0 1 0-2.52 0v5.23c0 .696.563 1.26 1.26 1.26zm19.029.95a1.26 1.26 0 0 0 1.26-1.26V29.51a1.26 1.26 0 1 0-2.52 0v5.373c0 .696.564 1.26 1.26 1.26zm0 12.48a1.26 1.26 0 0 0 1.26-1.259v-5.23a1.26 1.26 0 1 0-2.52 0v5.23c0 .696.564 1.26 1.26 1.26zm-102.833 93.74a1.26 1.26 0 0 0 1.26-1.26v-5.375a1.26 1.26 0 1 0-2.52 0v5.374c0 .697.564 1.26 1.26 1.26zm-1.26 11.219a1.26 1.26 0 1 0 2.52 0v-5.229a1.26 1.26 0 1 0-2.52 0v5.229zm-5.931 23.677a1.26 1.26 0 0 0 1.26-1.26v-5.372a1.26 1.26 0 1 0-2.52 0v5.373c0 .696.563 1.26 1.26 1.26zm-1.26 11.22a1.26 1.26 0 1 0 2.52 0v-5.228a1.26 1.26 0 1 0-2.52 0v5.228zm208.451 40.609a1.26 1.26 0 0 0-1.26 1.26v5.372a1.26 1.26 0 1 0 2.52 0v-5.373a1.26 1.26 0 0 0-1.26-1.26zm0 12.624a1.26 1.26 0 0 0-1.26 1.26v5.228a1.26 1.26 0 1 0 2.52 0v-5.229a1.26 1.26 0 0 0-1.26-1.26zm14.874-113.555a1.26 1.26 0 0 0-1.26 1.26v5.373a1.26 1.26 0 1 0 2.52 0v-5.373a1.26 1.26 0 0 0-1.26-1.26zm0 12.624a1.26 1.26 0 0 0-1.26 1.26v5.228a1.26 1.26 0 1 0 2.52 0v-5.228a1.26 1.26 0 0 0-1.26-1.26z"/></g></svg>