<svg width="1833" height="1462" xmlns="http://www.w3.org/2000/svg">

 <g>
  <title>Layer 1</title>
  <path id="svg_1" d="m4.45287,1418.32001c6.64,30.47 41.35,43.69 56.56,43.69l1710.51,0c15.34,0 55.11,-8.63 58,-45.85l-1825.07,2.16z" fill-rule="evenodd" fill="#b2c0cc"/>
  <rect id="svg_2" rx="24.22" fill="#8b99a3" y="0.00001" x="201.88287" height="875.3" width="1425.67"/>
  <rect id="svg_3" rx="23.26" fill="#384247" y="20.91001" x="224.50287" height="833.49" width="1380.42"/>
  <path id="svg_4" d="m1624.50287,863.12001l3,0l200,534.41c8.43,22.73 -9.81,46.4 -35.72,46.4l-1750.89,0c-26,0 -44.27,-23.67 -35.71,-46.4l199.83,-534.41l1419.49,0z" fill-rule="evenodd" fill="#8b99a3"/>
  <polygon id="svg_5" points="1694.9928588867188,1158.8799591064453 134.432861328125,1158.8799591064453 215.73284912109375,920.3300323486328 1613.6928100585938,920.3300323486328 1694.9928588867188,1158.8799591064453 " fill="#626f77"/>
  <path id="svg_6" d="m1627.58287,964.12001l-1425.73,0a3,3 0 0 1 0,-6.1l1425.73,0a3.05,3.05 0 0 1 0,6.1z" fill="#384247"/>
  <path id="svg_7" d="m1643.81287,1011.76001l-1458.2,0a3,3 0 0 1 0,-6.1l1458.2,0a3.05,3.05 0 1 1 0,6.1z" fill="#384247"/>
  <path id="svg_8" d="m1660.81287,1061.68001l-1492.19,0a3.05,3.05 0 0 1 0,-6.1l1492.19,0a3.05,3.05 0 0 1 0,6.1z" fill="#384247"/>
  <path id="svg_9" d="m1678.62287,1113.88001l-1527.81,0a3.05,3.05 0 0 1 0,-6.1l1527.81,0a3.05,3.05 0 0 1 0,6.1z" fill="#384247"/>
  <path id="svg_10" d="m290.58287,964.12001a2.91,2.91 0 0 1 -0.87,-0.13a3.06,3.06 0 0 1 -2.05,-3.8l12.15,-40.73a3.05,3.05 0 0 1 5.85,1.74l-12.15,40.74a3.07,3.07 0 0 1 -2.93,2.18z" fill="#384247"/>
  <path id="svg_11" d="m389.67287,964.12001a2.76,2.76 0 0 1 -0.75,-0.1a3,3 0 0 1 -2.21,-3.69l10.23,-40.74a3,3 0 1 1 5.91,1.48l-10.22,40.74a3.07,3.07 0 0 1 -2.96,2.31z" fill="#384247"/>
  <path id="svg_12" d="m488.76287,964.12001a2.68,2.68 0 0 1 -0.62,-0.07a3,3 0 0 1 -2.38,-3.59l8.3,-40.74a3.05,3.05 0 0 1 6,1.22l-8.3,40.73a3,3 0 0 1 -3,2.45z" fill="#384247"/>
  <path id="svg_13" d="m587.84287,964.12001a3.89,3.89 0 0 1 -0.47,0a3,3 0 0 1 -2.54,-3.48l6.36,-40.74a3.05,3.05 0 0 1 6,0.94l-6.37,40.74a3,3 0 0 1 -2.98,2.54z" fill="#384247"/>
  <path id="svg_14" d="m686.93287,964.12001l-0.34,0a3.05,3.05 0 0 1 -2.7,-3.36l4.44,-40.74a3,3 0 1 1 6.06,0.66l-4.44,40.74a3,3 0 0 1 -3.02,2.7z" fill="#384247"/>
  <path id="svg_15" d="m786.01287,964.12001l-0.19,0a3.05,3.05 0 0 1 -2.86,-3.23l2.51,-40.74a3.05,3.05 0 0 1 6.09,0.38l-2.51,40.73a3.05,3.05 0 0 1 -3.04,2.86z" fill="#384247"/>
  <path id="svg_16" d="m885.09287,964.12001l0,0a3.06,3.06 0 0 1 -3,-3.09l0.58,-40.74a3,3 0 0 1 3.09,-3a3,3 0 0 1 3,3.09l-0.58,40.74a3,3 0 0 1 -3.09,3z" fill="#384247"/>
  <path id="svg_17" d="m984.17287,964.12001a3,3 0 0 1 -3,-3l-1.35,-40.74a3,3 0 1 1 6.09,-0.2l1.35,40.74a3,3 0 0 1 -2.94,3.14l-0.15,0.06z" fill="#384247"/>
  <path id="svg_18" d="m1083.25287,964.12001a3.06,3.06 0 0 1 -3,-2.81l-3.28,-40.74a3,3 0 1 1 6.08,-0.48l3.28,40.73a3.06,3.06 0 0 1 -2.8,3.29l-0.28,0.01z" fill="#384247"/>
  <path id="svg_19" d="m1182.34287,964.12001a3.06,3.06 0 0 1 -3,-2.67l-5.21,-40.73a3.05,3.05 0 1 1 6.05,-0.78l5.21,40.74a3,3 0 0 1 -2.64,3.41l-0.41,0.03z" fill="#384247"/>
  <path id="svg_20" d="m1281.43287,964.12001a3.07,3.07 0 0 1 -3,-2.53l-7.13,-40.73a3.05,3.05 0 1 1 6,-1.06l7.14,40.74a3.06,3.06 0 0 1 -2.48,3.53a3.27,3.27 0 0 1 -0.53,0.05z" fill="#384247"/>
  <path id="svg_21" d="m1380.51287,964.12001a3.06,3.06 0 0 1 -3,-2.39l-9.07,-40.74a3,3 0 1 1 6,-1.32l9.08,40.73a3.06,3.06 0 0 1 -2.32,3.65a3.81,3.81 0 0 1 -0.69,0.07z" fill="#384247"/>
  <path id="svg_22" d="m1479.60287,964.12001a3.06,3.06 0 0 1 -2.95,-2.26l-11,-40.73a3.06,3.06 0 0 1 5.9,-1.6l11,40.74a3.06,3.06 0 0 1 -2.15,3.74a3.21,3.21 0 0 1 -0.8,0.11z" fill="#384247"/>
  <path id="svg_23" d="m327.67287,1011.76001a2.87,2.87 0 0 1 -0.81,-0.11a3,3 0 0 1 -2.13,-3.75l11.69,-42.59a3,3 0 0 1 5.88,1.61l-11.69,42.6a3.05,3.05 0 0 1 -2.94,2.24z" fill="#384247"/>
  <path id="svg_24" d="m429.02287,1011.76001a3,3 0 0 1 -3,-3.72l9.67,-42.6a3.05,3.05 0 0 1 5.95,1.35l-9.67,42.6a3.05,3.05 0 0 1 -2.95,2.37z" fill="#384247"/>
  <path id="svg_25" d="m530.36287,1011.76001a2.47,2.47 0 0 1 -0.54,0a3,3 0 0 1 -2.47,-3.54l7.66,-42.59a3,3 0 1 1 6,1.07l-7.65,42.6a3.06,3.06 0 0 1 -3,2.46z" fill="#384247"/>
  <path id="svg_26" d="m631.70287,1011.76001a2.69,2.69 0 0 1 -0.4,0a3.05,3.05 0 0 1 -2.63,-3.42l5.64,-42.59a3,3 0 1 1 6,0.79l-5.63,42.6a3,3 0 0 1 -2.98,2.62z" fill="#384247"/>
  <path id="svg_27" d="m733.04287,1011.76001l-0.26,0a3.05,3.05 0 0 1 -2.78,-3.3l3.62,-42.59a3,3 0 0 1 6.07,0.51l-3.61,42.6a3.05,3.05 0 0 1 -3.04,2.78z" fill="#384247"/>
  <path id="svg_28" d="m834.38287,1011.76001l-0.13,0a3.05,3.05 0 0 1 -2.94,-3.16l1.6,-42.6a3,3 0 0 1 3.16,-2.93a3.05,3.05 0 0 1 2.94,3.16l-1.6,42.59a3.05,3.05 0 0 1 -3.03,2.94z" fill="#384247"/>
  <path id="svg_29" d="m935.72287,1011.76001a3,3 0 0 1 -3,-3l-0.42,-42.6a3,3 0 0 1 3,-3.07l0,0a3,3 0 0 1 3,3l0.42,42.59a3,3 0 0 1 -3,3.08z" fill="#384247"/>
  <path id="svg_30" d="m1037.06287,1011.76001a3,3 0 0 1 -3,-2.88l-2.44,-42.59a3.06,3.06 0 0 1 2.88,-3.22a3.11,3.11 0 0 1 3.21,2.87l2.44,42.6a3.05,3.05 0 0 1 -2.87,3.22l-0.22,0z" fill="#384247"/>
  <path id="svg_31" d="m1138.40287,1011.76001a3.05,3.05 0 0 1 -3,-2.73l-4.45,-42.6a3,3 0 1 1 6.06,-0.63l4.46,42.6a3,3 0 0 1 -2.72,3.34a1.72,1.72 0 0 1 -0.35,0.02z" fill="#384247"/>
  <path id="svg_32" d="m1239.74287,1011.76001a3,3 0 0 1 -3,-2.59l-6.47,-42.6a3,3 0 0 1 6,-0.91l6.47,42.59a3.06,3.06 0 0 1 -2.55,3.48l-0.45,0.03z" fill="#384247"/>
  <path id="svg_33" d="m1341.09287,1011.76001a3,3 0 0 1 -3,-2.45l-8.49,-42.6a3,3 0 0 1 6,-1.19l8.49,42.6a3,3 0 0 1 -2.39,3.58a3.13,3.13 0 0 1 -0.61,0.06z" fill="#384247"/>
  <path id="svg_34" d="m1442.43287,1011.76001a3.05,3.05 0 0 1 -3,-2.32l-10.51,-42.59a3,3 0 1 1 5.92,-1.46l10.51,42.59a3.05,3.05 0 0 1 -3,3.78l0.08,0z" fill="#384247"/>
  <path id="svg_35" d="m1543.77287,1011.76001a3,3 0 0 1 -2.92,-2.19l-12.53,-42.59a3.05,3.05 0 0 1 5.85,-1.73l12.53,42.6a3.06,3.06 0 0 1 -2.07,3.79a3.24,3.24 0 0 1 -0.86,0.12z" fill="#384247"/>
  <path id="svg_36" d="m270.95287,1058.87001a3.13,3.13 0 0 1 -0.86,-0.12a3,3 0 0 1 -2.07,-3.79l13.09,-44.47a3.05,3.05 0 0 1 5.86,1.72l-13.1,44.47a3,3 0 0 1 -2.92,2.19z" fill="#384247"/>
  <path id="svg_37" d="m374.52287,1058.87001a3.05,3.05 0 0 1 -3,-3.78l11,-44.47a3,3 0 1 1 5.92,1.46l-11,44.48a3.05,3.05 0 0 1 -2.92,2.31z" fill="#384247"/>
  <path id="svg_38" d="m478.10287,1058.87001a3.06,3.06 0 0 1 -3,-3.65l8.88,-44.47a3,3 0 0 1 6,1.2l-8.88,44.47a3,3 0 0 1 -3,2.45z" fill="#384247"/>
  <path id="svg_39" d="m581.67287,1058.87001a3.55,3.55 0 0 1 -0.46,0a3.06,3.06 0 0 1 -2.56,-3.48l6.77,-44.47a3.05,3.05 0 0 1 6,0.92l-6.78,44.47a3,3 0 0 1 -2.97,2.56z" fill="#384247"/>
  <path id="svg_40" d="m685.25287,1058.87001a1.77,1.77 0 0 1 -0.32,0a3,3 0 0 1 -2.71,-3.35l4.66,-44.47a3.05,3.05 0 0 1 6.07,0.64l-4.67,44.47a3,3 0 0 1 -3.03,2.71z" fill="#384247"/>
  <path id="svg_41" d="m788.82287,1058.87001l-0.18,0a3.05,3.05 0 0 1 -2.87,-3.22l2.56,-44.48a3.05,3.05 0 0 1 6.09,0.36l-2.56,44.47a3,3 0 0 1 -3.04,2.87z" fill="#384247"/>
  <path id="svg_42" d="m892.39287,1058.87001l0,0a3,3 0 0 1 -3,-3.08l0.45,-44.47a3.06,3.06 0 0 1 3,-3l0,0a3,3 0 0 1 3,3.08l-0.45,44.47a3,3 0 0 1 -3,3z" fill="#384247"/>
  <path id="svg_43" d="m995.96287,1058.87001a3.05,3.05 0 0 1 -3,-2.93l-1.65,-44.48a3,3 0 1 1 6.09,-0.22l1.66,44.47a3.05,3.05 0 0 1 -2.94,3.16l-0.16,0z" fill="#384247"/>
  <path id="svg_44" d="m1099.53287,1058.87001a3.05,3.05 0 0 1 -3,-2.79l-3.75,-44.47a3,3 0 1 1 6.07,-0.52l3.76,44.48a3,3 0 0 1 -2.78,3.29l-0.3,0.01z" fill="#384247"/>
  <path id="svg_45" d="m1203.10287,1058.87001a3.06,3.06 0 0 1 -3,-2.65l-5.86,-44.47a3.05,3.05 0 0 1 6,-0.8l5.86,44.47a3.05,3.05 0 0 1 -2.62,3.43l-0.38,0.02z" fill="#384247"/>
  <path id="svg_46" d="m1306.68287,1058.87001a3,3 0 0 1 -3,-2.51l-8,-44.47a3,3 0 1 1 6,-1.08l8,44.47a3,3 0 0 1 -2.46,3.54a2.47,2.47 0 0 1 -0.54,0.05z" fill="#384247"/>
  <path id="svg_47" d="m1410.25287,1058.87001a3.05,3.05 0 0 1 -3,-2.37l-10,-44.48a3,3 0 1 1 6,-1.34l10.08,44.47a3.06,3.06 0 0 1 -2.3,3.65a3.21,3.21 0 0 1 -0.78,0.07z" fill="#384247"/>
  <path id="svg_48" d="m1513.82287,1058.87001a3.06,3.06 0 0 1 -2.94,-2.24l-12.18,-44.47a3,3 0 0 1 5.88,-1.62l12.19,44.47a3.05,3.05 0 0 1 -2.14,3.75a2.82,2.82 0 0 1 -0.81,0.11z" fill="#384247"/>
  <path id="svg_49" d="m291.25287,1110.99001a2.91,2.91 0 0 1 -0.82,-0.12a3,3 0 0 1 -2.12,-3.75l13,-46.6a3,3 0 1 1 5.87,1.64l-13,46.6a3.05,3.05 0 0 1 -2.93,2.23z" fill="#384247"/>
  <path id="svg_50" d="m397.31287,1110.99001a3.32,3.32 0 0 1 -0.69,-0.08a3,3 0 0 1 -2.28,-3.66l10.77,-46.6a3,3 0 0 1 5.94,1.38l-10.8,46.65a3.05,3.05 0 0 1 -2.94,2.31z" fill="#384247"/>
  <path id="svg_51" d="m503.36287,1110.99001a3.53,3.53 0 0 1 -0.56,0a3.06,3.06 0 0 1 -2.45,-3.55l8.56,-46.6a3.05,3.05 0 1 1 6,1.1l-8.56,46.6a3,3 0 0 1 -2.99,2.45z" fill="#384247"/>
  <path id="svg_52" d="m609.40287,1110.99001l-0.42,0a3.06,3.06 0 0 1 -2.61,-3.43l6.36,-46.6a3,3 0 0 1 6,0.82l-6.35,46.6a3.06,3.06 0 0 1 -2.98,2.61z" fill="#384247"/>
  <path id="svg_53" d="m715.44287,1110.99001l-0.27,0a3.05,3.05 0 0 1 -2.77,-3.31l4.15,-46.6a3,3 0 1 1 6.07,0.54l-4.15,46.6a3.05,3.05 0 0 1 -3.03,2.77z" fill="#384247"/>
  <path id="svg_54" d="m821.48287,1110.99001l-0.13,0a3,3 0 0 1 -2.92,-3.17l1.94,-46.6a3,3 0 0 1 3.18,-2.92a3.06,3.06 0 0 1 2.92,3.18l-1.94,46.6a3.06,3.06 0 0 1 -3.05,2.91z" fill="#384247"/>
  <path id="svg_55" d="m927.52287,1110.99001a3.05,3.05 0 0 1 -3,-3l-0.26,-46.6a3,3 0 0 1 3,-3.07l0,0a3,3 0 0 1 3,3l0.27,46.6a3,3 0 0 1 -3,3.07l-0.01,0z" fill="#384247"/>
  <path id="svg_56" d="m1033.56287,1110.99001a3,3 0 0 1 -3,-2.89l-2.48,-46.6a3.05,3.05 0 1 1 6.1,-0.32l2.47,46.6a3,3 0 0 1 -2.89,3.2l-0.2,0.01z" fill="#384247"/>
  <path id="svg_57" d="m1139.60287,1110.99001a3.05,3.05 0 0 1 -3,-2.75l-4.68,-46.59a3,3 0 0 1 2.73,-3.34a3.09,3.09 0 0 1 3.34,2.73l4.68,46.59a3,3 0 0 1 -2.73,3.34l-0.34,0.02z" fill="#384247"/>
  <path id="svg_58" d="m1245.64287,1110.99001a3,3 0 0 1 -3,-2.61l-6.89,-46.59a3.05,3.05 0 0 1 6,-0.9l6.88,46.6a3,3 0 0 1 -2.57,3.46a2.28,2.28 0 0 1 -0.42,0.04z" fill="#384247"/>
  <path id="svg_59" d="m1351.69287,1110.99001a3,3 0 0 1 -3,-2.47l-9.1,-46.59a3.05,3.05 0 1 1 6,-1.17l9.09,46.59a3,3 0 0 1 -2.41,3.58a2.86,2.86 0 0 1 -0.58,0.06z" fill="#384247"/>
  <path id="svg_60" d="m1457.73287,1110.99001a3.06,3.06 0 0 1 -3,-2.33l-11.31,-46.6a3.05,3.05 0 0 1 5.93,-1.44l11.31,46.6a3.05,3.05 0 0 1 -2.25,3.68a3,3 0 0 1 -0.68,0.09z" fill="#384247"/>
  <path id="svg_61" d="m1563.77287,1110.99001a3.06,3.06 0 0 1 -2.93,-2.2l-13.51,-46.6a3.06,3.06 0 0 1 5.87,-1.7l13.5,46.6a3,3 0 0 1 -2.08,3.78a3.12,3.12 0 0 1 -0.85,0.12z" fill="#384247"/>
  <path id="svg_62" d="m229.59287,1161.93001a2.93,2.93 0 0 1 -0.88,-0.13a3.06,3.06 0 0 1 -2.05,-3.8l14.38,-48a3.05,3.05 0 1 1 5.85,1.75l-14.38,48a3.06,3.06 0 0 1 -2.92,2.18z" fill="#384247"/>
  <path id="svg_63" d="m333.00287,1161.93001a2.91,2.91 0 0 1 -0.87,-0.13a3,3 0 0 1 -2,-3.8l14.38,-48a3,3 0 1 1 5.84,1.75l-14.38,48a3,3 0 0 1 -2.97,2.18z" fill="#384247"/>
  <path id="svg_64" d="m436.42287,1161.93001a2.91,2.91 0 0 1 -0.87,-0.13a3,3 0 0 1 -2,-3.8l14.38,-48a3,3 0 1 1 5.84,1.75l-14.38,48a3.05,3.05 0 0 1 -2.97,2.18z" fill="#384247"/>
  <path id="svg_65" d="m539.84287,1161.93001a2.7,2.7 0 0 1 -0.49,0a3,3 0 0 1 -2.52,-3.5l7.87,-48a3,3 0 0 1 6,1l-7.87,48a3.05,3.05 0 0 1 -2.99,2.5z" fill="#384247"/>
  <path id="svg_66" d="m1124.62287,1161.93001a3.06,3.06 0 0 1 -3,-2.77l-4.4,-48a3,3 0 1 1 6.07,-0.56l4.41,48.05a3.06,3.06 0 0 1 -2.76,3.32l-0.32,-0.04z" fill="#384247"/>
  <path id="svg_67" d="m1600.75287,1161.93001a3,3 0 0 1 -2.92,-2.18l-14.41,-48a3.05,3.05 0 1 1 5.85,-1.75l14.4,48a3,3 0 0 1 -2.05,3.8a2.91,2.91 0 0 1 -0.87,0.13z" fill="#384247"/>
  <path id="svg_68" d="m1496.96287,1161.93001a3,3 0 0 1 -2.92,-2.18l-14.4,-48a3,3 0 1 1 5.84,-1.75l14.4,48a3,3 0 0 1 -2.05,3.8a2.91,2.91 0 0 1 -0.87,0.13z" fill="#384247"/>
  <path id="svg_69" d="m1393.17287,1161.93001a3.05,3.05 0 0 1 -2.92,-2.18l-14.4,-48a3.05,3.05 0 1 1 5.85,-1.75l14.39,48a3,3 0 0 1 -2,3.8a3,3 0 0 1 -0.92,0.13z" fill="#384247"/>
  <path id="svg_70" d="m1289.59287,1161.93001a3.05,3.05 0 0 1 -2.92,-2.18l-14.4,-48a3.05,3.05 0 1 1 5.85,-1.75l14.4,48a3.06,3.06 0 0 1 -2,3.8a3,3 0 0 1 -0.93,0.13z" fill="#384247"/>
  <path id="svg_71" d="m1222.78287,1384.40001l-613,0a9.14,9.14 0 0 1 -8.72,-11.9l44.53,-141.28a9.17,9.17 0 0 1 8.73,-6.4l523.93,0a9.15,9.15 0 0 1 8.73,6.4l44.54,141.28a9.15,9.15 0 0 1 -8.74,11.9z" fill-rule="evenodd" fill="#626f77"/>
  <path id="svg_72" d="m1603.33287,878.35001l-1377.23,0a27.3,27.3 0 0 1 -27.27,-27.27a3,3 0 1 1 6.1,0a21.19,21.19 0 0 0 21.17,21.17l1377.23,0a21.19,21.19 0 0 0 21.17,-21.17a3,3 0 1 1 6.1,0a27.3,27.3 0 0 1 -27.27,27.27z" fill="#384247"/>
  <path id="svg_73" d="m1791.76287,1446.98001l-1750.87,0c-14,0 -26.83,-6.51 -34.39,-17.43a35.48,35.48 0 0 1 -4.18,-33.1a3.05,3.05 0 1 1 5.71,2.15a29.49,29.49 0 0 0 3.49,27.48c6.42,9.27 17.4,14.81 29.37,14.81l1750.87,0a35.43,35.43 0 0 0 29.25,-14.75a29.62,29.62 0 0 0 3.61,-27.55a3.05,3.05 0 1 1 5.72,-2.12a35.64,35.64 0 0 1 -4.33,33.15c-7.56,10.87 -20.37,17.36 -34.25,17.36z" fill="#626f77"/>
  <path id="svg_74" d="m665.25287,599.57001c-6.71,7 -28.21,14.11 -30.29,14.83l-15.35,-15.81c3.66,-5.91 8.76,-16.63 17.51,-23.33c11.78,-9 30.93,-8.72 36.33,-1.4c4.88,6.59 -1.01,18.26 -8.2,25.71z" fill="#dbddde"/>
  <path id="svg_75" d="m626.74287,621.68001a0.42,0.42 0 0 0 -0.06,-0.51l-14.85,-15a0.41,0.41 0 0 0 -0.54,-0.05c-1.67,1.17 -10,7.14 -14.16,12.2c-3.86,4.72 -5.14,11.16 0.33,16.72s11.85,5.68 17.49,1.5c4.93,-3.67 10.74,-13.12 11.79,-14.86z" fill="#dbddde"/>
  <path id="svg_76" d="m375.71287,743.56001c-6.72,7 -28.21,14.11 -30.3,14.84l-15.34,-15.81c3.66,-5.92 8.76,-16.63 17.51,-23.34c11.78,-9 30.93,-8.71 36.33,-1.39c4.88,6.58 -1.01,18.25 -8.2,25.7z" fill="#dbddde"/>
  <path id="svg_77" d="m337.25287,765.68001a0.44,0.44 0 0 0 -0.06,-0.52l-14.86,-15a0.44,0.44 0 0 0 -0.54,-0.05c-1.66,1.17 -10,7.15 -14.15,12.2c-3.86,4.72 -5.14,11.16 0.33,16.72s11.85,5.69 17.49,1.51c4.88,-3.68 10.69,-13.13 11.79,-14.86z" fill="#dbddde"/>
  <path id="svg_78" d="m814.49287,496.92001c-7.27,6.37 -29.28,11.7 -31.43,12.25l-14,-17c4.15,-5.59 10.13,-15.84 19.41,-21.79c12.49,-8 31.55,-6.09 36.32,1.65c4.34,6.93 -2.54,18.07 -10.3,24.89z" fill="#dbddde"/>
  <path id="svg_79" d="m774.25287,515.73001a0.41,0.41 0 0 0 0,-0.52l-13.54,-16.21a0.43,0.43 0 0 0 -0.54,-0.1c-1.75,1 -10.58,6.28 -15.13,11c-4.24,4.38 -6,10.68 -1.06,16.68s11.33,6.66 17.3,3c5.21,-3.28 11.8,-12.2 12.97,-13.85z" fill="#dbddde"/>
  <path id="svg_80" d="m932.77287,410.13001c-7.27,6.37 -29.29,11.7 -31.43,12.25l-14,-17c4.14,-5.58 10.12,-15.84 19.4,-21.78c12.5,-8 31.56,-6.1 36.32,1.65c4.34,6.93 -2.5,18.06 -10.29,24.88z" fill="#dbddde"/>
  <path id="svg_81" d="m892.55287,428.94001a0.44,0.44 0 0 0 0,-0.52l-13.55,-16.21a0.42,0.42 0 0 0 -0.53,-0.1c-1.76,1 -10.59,6.28 -15.13,11c-4.24,4.38 -6,10.69 -1.07,16.69s11.34,6.65 17.31,3c5.19,-3.28 11.77,-12.21 12.97,-13.86z" fill="#dbddde"/>
  <path id="svg_82" d="m1291.92287,88.18001c-8.27,5 -30.88,6.41 -33.09,6.57l-10.78,-19.22c5,-4.77 12.73,-13.83 22.91,-18.06c13.69,-5.66 32.13,-0.49 35.48,8c3.02,7.59 -5.66,17.36 -14.52,22.71z" fill="#dbddde"/>
  <path id="svg_83" d="m1249.03287,99.68001a0.42,0.42 0 0 0 0.07,-0.51l-10.51,-18.33a0.42,0.42 0 0 0 -0.51,-0.19c-1.91,0.71 -11.52,4.34 -16.81,8.17c-4.94,3.57 -7.82,9.47 -4,16.24s10,8.54 16.52,5.94c5.73,-2.27 13.77,-9.91 15.24,-11.32z" fill="#dbddde"/>
  <path id="svg_84" d="m754.44287,574.01001c-8.6,4.42 -21.66,22.92 -23,24.71l10.7,19.27c6.72,-1.8 18.45,-3.59 27.4,-10c12,-8.68 17.28,-27.09 11.84,-34.38c-4.86,-6.6 -17.73,-4.34 -26.94,0.4z" fill="#dbddde"/>
  <path id="svg_85" d="m722.15287,604.49001a0.41,0.41 0 0 1 0.47,0.2l10.09,18.56a0.43,0.43 0 0 1 -0.11,0.54c-1.6,1.25 -9.74,7.53 -15.77,10c-5.64,2.33 -12.17,1.7 -15.91,-5.15s-2,-13 3.61,-17.18c4.92,-3.64 15.64,-6.47 17.62,-6.97z" fill="#dbddde"/>
  <path id="svg_86" d="m914.67287,475.68001c-8.6,4.42 -21.66,22.92 -23,24.71l10.7,19.27c6.72,-1.8 18.46,-3.59 27.4,-10c12,-8.68 17.28,-27.09 11.84,-34.38c-4.86,-6.6 -17.73,-4.3 -26.94,0.4z" fill="#dbddde"/>
  <path id="svg_87" d="m882.38287,506.20001a0.41,0.41 0 0 1 0.47,0.2l10.09,18.56a0.43,0.43 0 0 1 -0.11,0.54c-1.6,1.25 -9.73,7.53 -15.77,10c-5.64,2.34 -12.17,1.7 -15.91,-5.15s-2,-13 3.61,-17.18c4.92,-3.64 15.64,-6.49 17.62,-6.97z" fill="#dbddde"/>
  <path id="svg_88" d="m1237.41287,153.54001c-7.79,5.72 -17.77,26.05 -18.77,28l13.61,17.36c6.35,-2.83 17.66,-6.45 25.47,-14.22c10.49,-10.47 12.79,-29.48 6.27,-35.82c-5.88,-5.71 -18.23,-1.45 -26.58,4.68z" fill="#dbddde"/>
  <path id="svg_89" d="m1210.34287,188.73001a0.42,0.42 0 0 1 0.5,0.13l12.89,16.74a0.42,0.42 0 0 1 0,0.54c-1.38,1.49 -8.42,9 -14,12.39c-5.19,3.19 -11.74,3.59 -16.52,-2.57s-4,-12.51 0.86,-17.54c4.25,-4.39 14.4,-8.88 16.27,-9.69z" fill="#dbddde"/>
  <path id="svg_90" d="m1417.76287,44.98001c-7.79,5.71 -17.77,26.05 -18.77,28l13.61,17.34c6.35,-2.84 17.66,-6.45 25.47,-14.23c10.49,-10.47 12.79,-29.48 6.26,-35.81c-5.87,-5.7 -18.22,-1.43 -26.57,4.7z" fill="#dbddde"/>
  <path id="svg_91" d="m1390.69287,80.17001a0.42,0.42 0 0 1 0.5,0.13l12.89,16.73a0.42,0.42 0 0 1 0,0.55c-1.38,1.49 -8.42,9 -14,12.39c-5.19,3.19 -11.74,3.59 -16.52,-2.58s-4,-12.51 0.86,-17.53c4.25,-4.39 14.4,-8.89 16.27,-9.69z" fill="#dbddde"/>
  <path id="svg_92" d="m591.39287,676.45001c-9.38,2.32 -26.36,17.32 -28,18.76l6,21.21c6.95,-0.2 18.78,0.77 29,-3.44c13.69,-5.68 23.07,-22.38 19.44,-30.72c-3.34,-7.53 -16.38,-8.29 -26.44,-5.81z" fill="#dbddde"/>
  <path id="svg_93" d="m552.95287,698.68001a0.41,0.41 0 0 1 0.41,0.31l5.54,20.38a0.43,0.43 0 0 1 -0.23,0.5c-1.84,0.85 -11.21,5.08 -17.66,6.12c-6,1 -12.23,-1.16 -14.29,-8.68s1,-13.1 7.48,-15.88c5.62,-2.44 16.71,-2.75 18.75,-2.75z" fill="#dbddde"/>
  <path id="svg_94" d="m349.15287,793.97001c-9.38,2.32 -26.36,17.31 -28,18.75l6,21.21c6.94,-0.2 18.78,0.78 29,-3.44c13.68,-5.68 23.06,-22.37 19.44,-30.72c-3.34,-7.52 -16.34,-8.29 -26.44,-5.8z" fill="#dbddde"/>
  <path id="svg_95" d="m310.70287,816.18001a0.42,0.42 0 0 1 0.41,0.32l5.54,20.38a0.41,0.41 0 0 1 -0.22,0.49c-1.85,0.86 -11.21,5.09 -17.66,6.13c-6,1 -12.23,-1.16 -14.3,-8.68s1,-13.11 7.48,-15.89c5.63,-2.43 16.72,-2.71 18.75,-2.75z" fill="#dbddde"/>
  <path id="svg_96" d="m718.15287,439.11001c12.85,2.31 32.29,-7.54 32.29,-7.54s33.71,5.57 33.13,18.22s-38.84,36.2 -38.84,36.2s-48.38,-0.57 -48.38,-1.16s21.8,-45.72 21.8,-45.72z" fill="#ff8458"/>
  <path id="svg_97" d="m385.25287,1176.09001l-42.35,0.29s0.56,9.9 0.54,23.07s-2.54,30 -2.54,30l46.09,0.33a175.78,175.78 0 0 1 -2.71,-27.86c0.05,-13.17 0.97,-25.83 0.97,-25.83z" fill="#ff8458"/>
  <path id="svg_98" d="m342.34287,1216.81001c2.81,0.58 7.67,8.76 13.87,6.64c4.75,-1.23 5.85,-5.42 10.65,-8.07c5.28,-2.62 16.14,-3.62 18.83,-0.23c3.58,4.84 6.63,23.78 14.09,38.17c12.79,22.59 31.77,30.84 33,49.23c0.66,7.55 -8.84,10 -22,10.93c-14.15,0.88 -35.29,0.08 -48.21,-6.52c-5.55,-2.56 -8.89,-14 -12.52,-17.4c-10,-9.32 -14.68,-10 -16.78,-16.63c-1.24,-4.75 2.25,-22.5 4.19,-36.54c2.72,-12.13 2.55,-20.13 4.88,-19.58z" fill="#682329"/>
  <path id="svg_99" d="m377.05287,1260.22001a3.05,3.05 0 0 1 -1.12,-5.89c8.24,-3.24 15.4,-3 20.62,-2.77a3,3 0 0 1 -0.23,6.09c-5,-0.18 -11.11,-0.41 -18.15,2.36a3.17,3.17 0 0 1 -1.12,0.21z" fill="#47151c"/>
  <path id="svg_100" d="m371.35287,1236.95001a3,3 0 0 1 -1.06,-5.91a39.28,39.28 0 0 1 19.07,-1.36a3,3 0 0 1 -1.13,6a33.56,33.56 0 0 0 -15.84,1.1a3.21,3.21 0 0 1 -1.04,0.17z" fill="#47151c"/>
  <path id="svg_101" d="m373.25287,1249.68001a3,3 0 0 1 -1,-5.92c7.9,-2.82 16.35,-3.38 20.86,-2.7a3,3 0 1 1 -0.9,6c-3.82,-0.58 -11.38,0.09 -17.91,2.42a3.09,3.09 0 0 1 -1.05,0.2z" fill="#47151c"/>
  <path id="svg_102" d="m382.25287,1235.01001a3.08,3.08 0 0 1 -1.73,-0.54a3.12,3.12 0 0 1 -1.12,-0.36c-4.71,-2.58 -12.67,-7.6 -13.09,-12.19a4.64,4.64 0 0 1 1.77,-4.08a5.36,5.36 0 0 1 4.56,-1.11c3.49,0.72 7,5 9.41,8.8c2.72,-4.93 6.74,-10.65 11,-11.25a5.64,5.64 0 0 1 5.23,2.11a3.59,3.59 0 0 1 0.88,2.73c-0.08,1 -0.32,4.24 -13.56,14.81a22.33,22.33 0 0 1 -3.25,1.08l-0.1,0zm11.41,-14.62l0,0l0,0z" fill="#47151c"/>
  <path id="svg_103" d="m400.96287,1308.62001c-13.51,0 -28.06,-2.43 -37.16,-6.81c-5.61,-2.85 -8.7,-9.06 -10.55,-12.78c-0.4,-0.79 -0.7,-1.43 -0.94,-1.79a52.23,52.23 0 0 0 -9.18,-11c-4.07,-4 -7.91,-7.77 -9.23,-13.3a3.05,3.05 0 0 1 5.94,-1.41c0.91,3.82 3.84,6.7 7.56,10.36c3.3,3.24 7,6.91 10.05,12.06a22.33,22.33 0 0 1 1.26,2.35c1.51,3 4,8.13 7.8,10c17.74,8.54 54.54,7.55 60.78,0.33a3,3 0 1 1 4.61,4c-4.72,5.5 -17.29,7.99 -30.94,7.99z" fill="#47151c"/>
  <path id="svg_104" d="m552.95287,1151.45001l-45.22,-2.64s0.47,15.15 -0.32,29.39s-2.7,27.1 -2.7,27.1l53.41,-2.07s-6.94,-17.67 -6.77,-31.59c0.79,-14.24 1.6,-20.19 1.6,-20.19z" fill="#ff8458"/>
  <path id="svg_105" d="m505.25287,1195.13001c3.89,-0.87 12.23,9 19.39,7.56c8.39,-2 9,-5.5 13.06,-10.44c4.59,-4.78 13.86,-9.67 18.29,-7.26a10.73,10.73 0 0 1 4.75,3c5.3,6.3 15.26,19.21 29.19,27.67c19.63,11.77 47.89,17.43 51.8,24.85c13.32,23.78 -7.79,23.45 -19.49,24.48c-3.27,0.54 -23.43,0.5 -44,-1.72c-9.55,-0.9 -23.53,-4.19 -33.08,-5.08c-6.9,-1.11 -20.64,-0.19 -26.74,-0.53c-22.23,-1.72 -21.09,-7 -21.31,-9.71c-0.41,-12 1.06,-16.74 2.94,-31.16c2.12,-13.31 2.42,-20.98 5.2,-21.66z" fill="#682329"/>
  <path id="svg_106" d="m577.68287,1229.93001a3.05,3.05 0 0 1 -2.63,-4.58a35.67,35.67 0 0 1 10.13,-10.59a3.05,3.05 0 0 1 3.37,5.09a29.74,29.74 0 0 0 -8.23,8.57a3.06,3.06 0 0 1 -2.64,1.51z" fill="#47151c"/>
  <path id="svg_107" d="m553.45287,1214.68001a3,3 0 0 1 -1.55,-0.42a3.06,3.06 0 0 1 -1.08,-4.18a31.75,31.75 0 0 1 14.72,-12.2a3.05,3.05 0 1 1 2.23,5.68a25.55,25.55 0 0 0 -11.69,9.62a3.06,3.06 0 0 1 -2.63,1.5z" fill="#47151c"/>
  <path id="svg_108" d="m566.11287,1222.19001a3.15,3.15 0 0 1 -1.16,-0.23a3,3 0 0 1 -1.66,-4c0.1,-0.26 2.74,-6.6 11.67,-11.3a3,3 0 1 1 2.84,5.39c-6.82,3.59 -8.79,8 -8.87,8.23a3.09,3.09 0 0 1 -2.82,1.91z" fill="#47151c"/>
  <path id="svg_109" d="m563.54287,1203.82001a3,3 0 0 1 -1.18,-0.24a2.83,2.83 0 0 1 -1.23,0.1c-6.28,-0.77 -17.18,-2.71 -19.67,-7a4.64,4.64 0 0 1 -0.27,-4.18a5.51,5.51 0 0 1 3.73,-3c4.17,-1 10.87,2.53 15.66,5.58c0.34,-4.75 1.44,-10.6 4.73,-12.81a6,6 0 0 1 6,-0.33a4.27,4.27 0 0 1 2.29,2.66c1.24,4 -3,12.2 -5.59,16.74a3,3 0 0 1 -2.23,1.5a3,3 0 0 1 -0.84,0.65a3,3 0 0 1 -1.4,0.33z" fill="#47151c"/>
  <path id="svg_110" d="m610.40287,1260.50001a297.27,297.27 0 0 1 -38.16,-2.67a165.57,165.57 0 0 1 -16.86,-3.16a109.48,109.48 0 0 0 -15.34,-2.7l-3.44,-0.27c-15.55,-1.18 -31.63,-2.4 -38.21,-9.36a3,3 0 1 1 4.43,-4.19c5,5.24 20.52,6.43 34.25,7.47l3.5,0.27a116.65,116.65 0 0 1 16.17,2.84a162.75,162.75 0 0 0 16.31,3.06c30.51,4.14 61.29,3.23 67.24,-2a3.05,3.05 0 0 1 4,4.58c-5.13,4.54 -18.73,6.13 -33.89,6.13z" fill="#47151c"/>
  <path id="svg_111" d="m561.09287,560.01001c11,26.64 20.08,62.22 26.2,133.72c3.06,35.77 7.58,107 7.64,158.85c0,28.07 3.43,49.34 0.94,63.3c-7.1,39.77 -38.87,214.7 -37.38,258.36c-10.78,14.36 -55.14,20.59 -55.46,3.17c0,0 -9,-175.52 -8.71,-183.67c1.95,-52 16.19,-77.07 16.64,-89.06s-25,-146.57 -27.92,-185l4.56,-4.87c-9.51,43.59 -24.74,136 -27.45,165.53s-14.06,55.12 -16.54,72.7c-2.69,19.05 -16,67.82 -22.54,93.2s-30.48,150.2 -30.48,150.2c-3.84,16.55 -49.66,16.55 -52.77,-2c1.56,-41.59 -6.82,-138 2.36,-194.51s30.48,-82.54 31.39,-106.53s-1.21,-95.54 -6.32,-135.37s-12.49,-87 -13.09,-135.63c-0.34,-28.2 4,-61.71 12.11,-69.81l196.82,7.42z" fill="#b52c46"/>
  <path id="svg_112" d="m720.50287,474.26001c14.6,-25.34 9.14,-36.88 4.28,-39.92s-17.48,2.61 -33,3.38c-14,0.69 -48.5,1.81 -65.5,-0.07s-21.67,0 -21.67,0c-2.12,-18.09 -1.31,-110.66 -7.35,-127.13c-9.07,-24.76 -35.12,-35 -45.3,-51.75l1.42,230.6l167.12,-15.11z" fill="#fff"/>
  <path id="svg_113" d="m550.18287,237.29001s16.09,13.31 12,37.58a169.81,169.81 0 0 1 -7,26.46s-3.81,-16 -7.11,-18.69s-0.8,10.59 -4,14.87l-14,-4.64c-10.1,-10.89 -0.25,-17.13 -5.06,-17s-15.76,22.22 -15.76,22.22s-10.71,-12.06 -16,-28c-5.93,-17.9 -21.78,-35.78 -22.51,-40.57c-0.87,-5.74 10.81,-3.66 13.37,-9.37c1.48,-3.29 7.2,-9.63 12.23,-9.13l53.84,26.27z" fill="#ffd7c5"/>
  <path id="svg_114" d="m575.58287,323.92001c6.82,18.27 5.89,51 5.34,65.67s-25.15,109.56 -22.29,129.49s10.58,22 10.68,35.23s-40.69,20.1 -70.71,19.57s-125.85,-15.2 -134.35,-21.27s-2,-19 2.29,-29s5.87,-84.16 9.71,-106.24s8.28,-76.56 8.06,-102.4s4.3,-45.56 13.57,-60.07c16.49,-25.81 51,-21.91 82.55,-29.14c42.47,27 84.66,54.18 95.15,98.16z" fill="#fff"/>
  <path id="svg_115" d="m913.04287,396.51001l-257.26,177.11a18.8,18.8 0 0 1 -26.14,-4.82l0,0a18.8,18.8 0 0 1 4.82,-26.15l257.26,-177.09l21.32,30.95z" fill="#586877"/>
  <circle transform="rotate(-45 1048.55 280.447)" id="svg_116" fill="#586877" r="178.42" cy="280.45001" cx="1048.54287"/>
  <path id="svg_117" d="m1193.13287,285.89001a144.69,144.69 0 1 1 -139.15,-150a144.69,144.69 0 0 1 139.15,150z" fill="#9cc6e5"/>
  <path id="svg_118" d="m781.92287,481.14001a3.1,3.1 0 0 0 -2.53,0.17c-1.39,0.81 -3.88,3.55 -2.91,6.2a19.16,19.16 0 0 0 5,7.51c13.73,13.45 19.09,5.35 19.23,3.43l-18.79,-17.31z" fill="#ff8458"/>
  <path id="svg_119" d="m793.19287,464.95001l0,0a8.69,8.69 0 0 0 -2.23,-0.39c-1.54,0 -6.69,5.4 -4.15,8.9c3.08,4.28 18.11,13.81 21.07,14.87a8.46,8.46 0 0 0 8.58,-2c3.12,-3.36 2.85,-8.48 1.3,-9.91l-24.57,-11.47z" fill="#ff8458"/>
  <path id="svg_120" d="m825.25287,456.97001c3.89,8.67 2.76,12 0.26,15.91a8.63,8.63 0 0 1 -8.12,3.51c-3.14,-0.54 -19.79,-7.12 -23.62,-10.75c-3.18,-3 2.63,-7.25 4.15,-7.52c4.57,-0.81 18.74,3.68 21.68,2.73l5.65,-3.88z" fill="#ff8458"/>
  <path id="svg_121" d="m786.39287,472.73001c-2.51,-0.07 -4.8,2.39 -5.46,4.78c-0.67,2.21 3.09,6.63 3.09,6.63s12.54,15.61 20.56,15.1c3.25,-0.65 7.64,-5.68 6.43,-9a5.26,5.26 0 0 0 -1,-1.56l-23.62,-15.95z" fill="#ff8458"/>
  <path id="svg_122" d="m603.19287,157.13001c1.35,-7.62 10.23,-8 12.55,-15.49c4.59,-14.56 -3.12,-15.88 -0.31,-23.33c5,-13.6 -3.66,-24.17 -9.35,-30.29c-15.62,-18.21 -34.95,-12.17 -34.95,-12.17s-18.17,-13 -45,-10.55c-17.86,1.64 -25.79,6.68 -33.88,13.08c-7.5,5.55 -19,11.56 -23.36,24.31c-3.11,10.16 1.66,15.72 1,21.59c-0.3,2.7 -4.13,10.49 -2.24,19.84c2.66,11.26 11,11.29 11.13,23.18c0.11,16.46 28.83,22.9 28.83,22.9s2,-0.23 10.87,-0.6c34.54,-1.13 83.31,-24.41 84.71,-32.47z" fill="#994d23"/>
  <path id="svg_123" d="m530.77287,150.78001a41.83,41.83 0 0 0 19.41,6.3a30.12,30.12 0 0 0 22.5,-8c4.92,-4.47 15.13,0.79 20.38,-10.95c5.3,-12.19 -0.62,-20.63 7.09,-19.3c5.33,0.6 5.41,12.94 5.72,18.92c-0.38,16.4 -3.77,24.7 -3.72,32.92c0.16,7.33 8.57,11 8.12,15.08c-0.51,4.51 -7,5.15 -8.68,7.24c-1.27,2.6 -2.75,7 -5.4,13.1s-6,14.39 -10.48,18.92c-3.9,4.12 -9.39,4.87 -14.72,4.27c-6.84,-0.31 -11.53,-2.21 -16.28,-3.66a34,34 0 0 1 -9.72,-5.21c-9.85,-8.42 -16.94,-23.84 -17.48,-40.8a123,123 0 0 1 3.26,-28.83z" fill="#ff8458"/>
  <path id="svg_124" d="m509.52287,160.68001c0.43,-8.18 6.86,-12.93 11.81,-13.29c7.85,0 13.06,6 20.66,8.27c1,0.11 -5.74,11.69 -10.53,19.37c-4.21,6.83 -8.24,7.75 -8.24,7.75s-13.97,-6.56 -13.7,-22.1z" fill="#ff8458"/>
  <path id="svg_125" d="m555.45287,225.27001s-0.09,0.19 -0.24,0.55c-0.61,1.16 -2,4 -3.48,7.57c-2.17,5.09 -4.48,11.65 -4.76,16.4a9.07,9.07 0 0 0 0.46,2.26a2.39,2.39 0 0 1 -0.82,2.47c-2.75,2.2 -9.12,7.9 -10.56,15.16a3,3 0 0 1 -5.24,1.37c-4.21,-5 -9.76,-9.66 -14.52,-15.12c-6.8,-7.84 -18.42,-17.79 -23.49,-26.87a6,6 0 0 1 -0.45,-4.92c4.51,-13.11 9.64,-35.95 9.64,-35.95a38,38 0 0 0 6.64,-6.56c4,-5 4.46,-9.09 4.46,-9.09l13.42,2.9l28.94,49.83z" fill="#ff8458"/>
  <path id="svg_126" d="m555.25287,225.82001c-0.61,1.16 -2,4 -3.48,7.57a47.79,47.79 0 0 1 -13.45,-10c-5.7,-6.62 -10.1,-17.14 -10.61,-18.45c0.42,0.82 3.5,6.22 12.26,12.69a75.31,75.31 0 0 0 15.28,8.19z" fill="#c84629"/>
  <path id="svg_127" d="m524.52287,170.03001a3.06,3.06 0 0 1 -3,-3c0,-1.2 -0.36,-2.95 -3,-4.26a3.05,3.05 0 1 1 2.76,-5.44a10.71,10.71 0 0 1 6.29,9.57a3.06,3.06 0 0 1 -3,3.12l-0.05,0.01z" fill="#c84629"/>
  <path id="svg_128" d="m587.25287,206.94001a32.27,32.27 0 0 1 -17.42,-5.15a3,3 0 1 1 3.29,-5.13a25.89,25.89 0 0 0 17,4a3,3 0 1 1 0.89,6a25,25 0 0 1 -3.76,0.28z" fill="#c84629"/>
  <path id="svg_129" d="m582.65287,143.39001c0.21,-1.81 4.82,-3.57 10.16,-3c6.3,0.72 10.4,3.46 10.2,5.27s-5.38,-0.15 -10.71,-0.76c-4.85,-0.51 -9.85,0.29 -9.65,-1.51z" fill="#332018"/>
  <path id="svg_130" d="m596.62287,109.68001a3.05,3.05 0 0 1 -3,-2.72c-0.06,-0.48 -1.53,-12.13 -13.78,-20a3.05,3.05 0 1 1 3.31,-5.13c14.78,9.54 16.47,23.9 16.53,24.51a3,3 0 0 1 -2.7,3.36l-0.36,-0.02z" fill="#753717"/>
  <path id="svg_131" d="m482.53287,150.68001a3.05,3.05 0 0 1 -2.36,-1.11c-8.11,-9.85 -5.32,-16.36 -3.08,-21.59c1,-2.32 1.93,-4.5 1.94,-6.91c0,-0.4 -0.09,-1.05 -0.16,-1.73a40.77,40.77 0 0 1 -0.1,-9.13a3,3 0 1 1 6.06,0.68a35.2,35.2 0 0 0 0.11,7.86c0.07,0.75 0.14,1.46 0.19,2.14a23.41,23.41 0 0 1 -2.43,9.49c-2.07,4.83 -3.57,8.33 2.18,15.31a3,3 0 0 1 -2.35,5l0,-0.01zm16.72,-60.16a3,3 0 0 1 -2.69,-4.47c4.71,-8.93 12.27,-13.33 23.11,-13.46a3.06,3.06 0 0 1 0.08,6.11c-11.07,0.12 -15.33,5.52 -17.8,10.2a3,3 0 0 1 -2.7,1.62z" fill="#753717"/>
  <path id="svg_132" d="m500.25287,175.97001a3.06,3.06 0 0 1 -2.58,-1.41c-4.1,-6.46 -5.06,-17.68 0.06,-24.11a3,3 0 1 1 4.77,3.8c-3.06,3.84 -2.9,12 0.32,17a3,3 0 0 1 -2.57,4.69l0,0.03z" fill="#753717"/>
  <path id="svg_133" d="m547.40287,148.42001c-4.43,0 -7.8,-1.73 -10.72,-3.22c-4.45,-2.27 -7.95,-4.07 -14.92,-1a3.05,3.05 0 0 1 -2.46,-5.59c9.62,-4.23 15.46,-1.24 20.16,1.16c4.34,2.22 7.77,4 14.42,0.94a13.45,13.45 0 0 0 4.13,-3.32c2.49,-2.63 5.58,-5.9 14.36,-8.09c8.21,-1.9 8.83,-13.16 8.84,-13.27a3,3 0 0 1 6.09,0.26c0,0.65 -0.8,16 -13.5,18.94c-7,1.75 -9.12,4 -11.36,6.35a19.3,19.3 0 0 1 -6,4.66a21.73,21.73 0 0 1 -9.04,2.18z" fill="#753717"/>
  <path id="svg_134" d="m507.93287,143.03001a3.12,3.12 0 0 1 -1.19,-0.24a3,3 0 0 1 -1.61,-4c3.82,-9 18.65,-15.5 32.77,-10.76c7.42,2.18 12.73,3.73 18.23,-3a3,3 0 1 1 4.72,3.86c-8.06,9.86 -16.84,7.28 -24.59,5l-0.3,-0.09c-10.7,-3.6 -22.55,1.09 -25.22,7.37a3.05,3.05 0 0 1 -2.81,1.86z" fill="#753717"/>
  <path id="svg_135" d="m510.70287,105.43001a3.05,3.05 0 0 1 -2.4,-4.93c8.74,-11.19 17.9,-9.41 25.26,-8c3.29,0.64 6.4,1.25 9,0.55c1.89,-0.58 3.55,-1.93 5.46,-3.49c4.22,-3.44 9.48,-7.72 20.15,-4.75a3.05,3.05 0 1 1 -1.64,5.88c-7.64,-2.13 -10.73,0.4 -14.65,3.6c-2.21,1.8 -4.5,3.67 -7.64,4.63c-4,1.08 -8,0.31 -11.82,-0.43c-6.9,-1.34 -12.85,-2.49 -19.3,5.76a3,3 0 0 1 -2.42,1.18z" fill="#753717"/>
  <path id="svg_136" d="m585.59287,165.19001c0.36,-3.16 3.14,-6 5.56,-5.77c2.91,0.33 4.54,3.26 4.14,6.86c-0.36,3.16 -3.14,6 -5.56,5.77c-2.91,-0.37 -4.55,-3.25 -4.14,-6.86z" fill="#332018"/>
  <path id="svg_137" d="m559.87287,501.89001a2.12,2.12 0 0 1 -0.43,0a3,3 0 0 1 -2.59,-3.44c2.62,-18.6 8.13,-44.36 13,-67.1c4.2,-19.63 7.83,-36.58 8,-41.85c0.43,-11.39 1.73,-46 -5.15,-64.48a3.05,3.05 0 0 1 5.72,-2.14c7.3,19.58 6,55.16 5.52,66.85c-0.21,5.79 -3.72,22.17 -8.15,42.9c-4.85,22.63 -10.33,48.29 -12.92,66.67a3.05,3.05 0 0 1 -3,2.59z" fill="#89898c"/>
  <path id="svg_138" d="m509.25287,301.14001a3.07,3.07 0 0 1 -2.29,-1a92.45,92.45 0 0 1 -16.61,-29.08c-3.46,-10.42 -9.91,-21 -14.62,-28.78c-4,-6.6 -6,-9.88 -6.33,-12.29a3.05,3.05 0 0 1 6,-0.91c0.19,1.3 3,5.94 5.5,10c4.86,8 11.52,19 15.2,30a86.29,86.29 0 0 0 12.55,23.39c5.15,-9.71 11.54,-19.57 16.33,-19.69a4.26,4.26 0 0 1 3.77,1.54c1.24,1.62 0.71,3.4 0.29,4.83c-0.77,2.56 -1.82,6.08 3.32,11.61a3,3 0 1 1 -4.47,4.15c-4.76,-5.12 -5.74,-9.55 -5.59,-12.89a121.54,121.54 0 0 0 -10.37,17.4a3,3 0 0 1 -2.33,1.66a2.56,2.56 0 0 1 -0.35,0.06z" fill="#89898c"/>
  <path id="svg_139" d="m555.25287,304.39001l-0.18,0a3,3 0 0 1 -2.79,-2.33a109.17,109.17 0 0 0 -3.31,-11.24c-0.24,3.17 -0.75,6.35 -2.35,8.51a3,3 0 1 1 -4.89,-3.64c1,-1.32 1.18,-5.33 1.32,-8c0.21,-4.09 0.36,-7 2.88,-8.16a3.9,3.9 0 0 1 4.15,0.76c2,1.65 3.87,6 5.36,10.46a147.62,147.62 0 0 0 3.81,-16.39c0.2,-1.2 0.37,-2.43 0.46,-3.56a3,3 0 1 1 6.08,0.45c-0.1,1.3 -0.29,2.7 -0.52,4.1a169.56,169.56 0 0 1 -7.16,27a3,3 0 0 1 -2.86,2.04z" fill="#89898c"/>
  <path id="svg_140" d="m481.79287,746.68001a3,3 0 0 1 -3,-3a81.42,81.42 0 0 1 6,-30.07c6.72,-15.77 19.89,-30.32 30,-33.12a3.05,3.05 0 0 1 1.63,5.88c-8.23,2.28 -20.15,15.85 -26,29.63a76.61,76.61 0 0 0 -5.56,27.57a3,3 0 0 1 -3,3.1l-0.07,0.01z" fill="#891d37"/>
  <path id="svg_141" d="m795.09287,505.68001c-3.72,0 -8.91,-1.89 -15.7,-8.45c-2.82,-2.72 -5.11,-6.22 -5.85,-8.9c-1.49,-4 1.65,-8.09 4.37,-9.65a6.27,6.27 0 0 1 5.13,-0.4a3,3 0 0 1 -2.08,5.73a0.19,0.19 0 0 0 -0.13,0c-0.61,0.36 -1.72,1.8 -1.49,2.43a16.24,16.24 0 0 0 4.29,6.38c7.2,7 11.09,7 12.41,6.63a2.81,2.81 0 0 0 2,-1.5a2.94,2.94 0 0 1 3.24,-2.69a3.16,3.16 0 0 1 2.8,3.4c-0.15,2.14 -2.1,5.1 -5.4,6.36a9.83,9.83 0 0 1 -3.59,0.66z" fill="#c84629"/>
  <path id="svg_142" d="m808.25287,491.37001a3,3 0 0 1 -1,-0.18c-3.57,-1.26 -19.28,-11.1 -22.8,-16a3,3 0 1 1 4.93,-3.59c2.65,3.65 17.26,12.86 19.91,13.79a3.05,3.05 0 0 1 -1,5.93l-0.04,0.05z" fill="#c84629"/>
  <path id="svg_143" d="m817.93287,479.43001a2.92,2.92 0 0 1 -0.51,0c-3.3,-0.55 -21,-7.29 -25.52,-11.52a3,3 0 0 1 4.16,-4.46c3.26,3 19.53,9.49 22.37,10a3,3 0 0 1 -0.5,6l0,-0.02z" fill="#c84629"/>
  <path id="svg_144" d="m801.74287,501.90001a3,3 0 0 1 -0.83,-0.12c-10.06,-2.86 -18.15,-14.23 -19.22,-15.79c-1.83,-2.16 -4.61,-6.12 -3.61,-9.37a3.05,3.05 0 0 1 5.9,1.54a12.89,12.89 0 0 0 2.46,4l0.22,0.29c0.07,0.11 7.51,11.08 15.91,13.47a3.05,3.05 0 0 1 -0.83,6l0,-0.02z" fill="#c84629"/>
  <path id="svg_145" d="m742.49287,449.98001s-3.15,-13.72 6.6,-17.83c11.12,-4.69 21.52,-10.89 37,-5.41c11.93,4.21 17,5.74 20.77,6.48c7.91,1.57 5.12,10.88 -7,11.45a98.9,98.9 0 0 1 -20.4,-0.77c-7.54,-1 -16.24,10.83 -19.88,12.62l-17.09,-6.54z" fill="#ff8458"/>
  <path id="svg_146" d="m521.32287,531.92001a3.06,3.06 0 0 1 -3,-2.6c-2.12,-14.39 1,-35.5 4.68,-59.95c3.23,-21.57 6.56,-43.87 6.7,-64.5c0.12,-18.71 1.66,-33.63 3.15,-48.05c2,-19.64 3.79,-36.6 1.41,-58.4a3.05,3.05 0 0 1 6.07,-0.66c2.44,22.44 0.57,40.54 -1.41,59.69c-1.48,14.28 -3,29 -3.12,47.46c-0.15,21.06 -3.66,44.59 -6.76,65.36c-3.43,23 -6.67,44.66 -4.68,58.15a3.06,3.06 0 0 1 -2.57,3.47l-0.47,0.03z" fill="#89898c"/>
  <path id="svg_147" d="m665.44287,506.92001s-3.74,-9.61 -2,-18.55c1.41,-9 8.33,-17.64 8.33,-17.64a100.06,100.06 0 0 0 27.46,0c6.64,-0.83 23.92,-8.56 30.88,-9.36c5.31,-0.67 10.88,7.93 10.88,7.93l24.89,11.62s7.39,-0.07 9.72,5c3.91,8.54 -6.64,8.52 -6.64,8.52s-0.15,3.91 -2.39,6.25s-6.91,3.1 -6.91,3.1a7.08,7.08 0 0 1 -3.6,5.45c-3.25,2.55 -10,4.35 -10,4.35s-1.92,10.56 -13.85,9.13c-9.67,-1.16 -23.36,-9.68 -36.94,-13.6c-9.25,-2.02 -29.83,-2.2 -29.83,-2.2z" fill="#ff8458"/>
  <path id="svg_148" d="m734.05287,518.54001a3,3 0 0 1 -0.24,-6.09a95.88,95.88 0 0 0 10.57,-1.24a3,3 0 0 1 1.23,6a100.67,100.67 0 0 1 -11.32,1.35l-0.24,-0.02z" fill="#c84629"/>
  <path id="svg_149" d="m746.25287,508.32001c-2.26,0 -4.45,-0.07 -6.52,-0.2a3,3 0 0 1 -2.84,-3.24a3.09,3.09 0 0 1 3.23,-2.85a112.71,112.71 0 0 0 17.86,-0.4a3.05,3.05 0 0 1 0.61,6.07c-4.16,0.41 -8.34,0.62 -12.34,0.62z" fill="#c84629"/>
  <path id="svg_150" d="m767.45287,497.73001c-5.45,0 -16,-1.24 -21.2,-3.3a3.05,3.05 0 1 1 2.27,-5.67c4,1.62 13.74,2.82 19.07,2.87a3,3 0 0 1 3.07,3a3.05,3.05 0 0 1 -3,3.07l-0.21,0.03z" fill="#c84629"/>
  <path id="svg_151" d="m768.80287,485.12001a3.06,3.06 0 0 1 -1.07,-0.19c-14,-5.28 -30.54,-13.17 -30.71,-13.25a3.05,3.05 0 1 1 2.64,-5.5c0.16,0.08 16.43,7.86 30.21,13a3,3 0 0 1 -1.07,5.9l0,0.04z" fill="#c84629"/>
  <path id="svg_152" d="m1100.78287,217.68001c-14.45,9.79 -55.1,14.45 -59,14.95l-21.25,-33.65c8.66,-9.09 21.67,-26.14 39.63,-34.72c24.16,-11.5 57.9,-3.91 64.73,11c6.11,13.42 -8.64,31.88 -24.11,42.42z" fill="#fff"/>
  <path id="svg_153" d="m1024.50287,242.37001a0.75,0.75 0 0 0 0.08,-0.93l-20.66,-32.07a0.76,0.76 0 0 0 -0.94,-0.29c-3.37,1.45 -20.37,8.9 -29.56,16.3c-8.58,6.91 -13.22,17.81 -5.63,29.67c7.47,11.66 18.84,14.45 30.36,9.17c10.1,-4.62 23.85,-19.15 26.35,-21.85z" fill="#fff"/>
  <path id="svg_154" d="m1072.50287,289.68001c-12.5,11.46 -26,48.84 -27.38,52.47l27,27.64c10.54,-6.16 29.57,-14.63 41.72,-29.69c16.29,-20.26 16.67,-53.86 4.07,-63.66c-11.29,-8.87 -32.03,0.93 -45.41,13.24z" fill="#fff"/>
  <path id="svg_155" d="m1032.00287,356.22001a0.73,0.73 0 0 1 0.89,0.13l25.69,26.73a0.73,0.73 0 0 1 0.06,1c-2.12,2.87 -13,17.26 -22,24.29c-8.46,6.56 -19.81,8.51 -29.32,-1.33c-9.35,-9.67 -9.44,-21 -1.85,-30.76c6.58,-8.52 23.42,-18.3 26.53,-20.06z" fill="#fff"/>
  <path id="svg_156" d="m950.25287,432.43001a3.06,3.06 0 0 1 -1.68,-0.51a182.51,182.51 0 0 1 -72.51,-95a3.05,3.05 0 1 1 5.8,-1.9a176.37,176.37 0 0 0 70.07,91.77a3.05,3.05 0 0 1 -1.68,5.6l0,0.04z" fill="#34414c"/>
  <path id="svg_157" d="m406.25287,354.79001c30.86,25.78 31.12,50.74 54.57,82.09s32.22,48.18 46.53,56.7s35.25,11.19 56.64,10.72s101.83,7.08 101.83,7.08c18.25,-0.79 27.37,-35.63 10.68,-44.39c0,0 -32.79,-6.39 -55.52,-8.84s-55.15,-24 -73.37,-18l-32.56,-61.73l-108.8,-23.63z" fill="#fff"/>
  <path id="svg_158" d="m676.50287,470.04001a3.79,3.79 0 0 1 -0.58,-0.05c-0.33,-0.07 -32.93,-6.4 -55.27,-8.81c-9.73,-1 -21.06,-5.41 -32,-9.62c-14.92,-5.75 -30.37,-11.7 -40.07,-8.52a3,3 0 1 1 -1.9,-5.79c11.78,-3.86 27.51,2.2 44.17,8.61c10.59,4.08 21.54,8.3 30.47,9.26c22.6,2.43 55.46,8.81 55.79,8.88a3,3 0 0 1 -0.59,6l-0.02,0.04z" fill="#89898c"/>
  <path id="svg_159" d="m559.25287,507.40001c-23,0 -40.92,-3.76 -53.43,-11.2c-10.91,-6.49 -18.45,-17.13 -30.95,-34.75c-4.69,-6.61 -10,-14.11 -16.47,-22.74c-9.52,-12.73 -15.2,-24.26 -20.69,-35.4c-8.23,-16.69 -15.33,-31.1 -33.39,-46.18a3.05,3.05 0 0 1 3.91,-4.69c19,15.92 26.78,31.59 34.95,48.17c5.37,10.9 10.93,22.17 20.11,34.45c6.5,8.69 11.84,16.22 16.55,22.86c12,17 19.3,27.21 29.1,33c12.2,7.26 31.24,10.83 55,10.3a3,3 0 0 1 3.12,3a3.06,3.06 0 0 1 -3,3.12c-1.64,0.04 -3.25,0.06 -4.81,0.06z" fill="#89898c"/>
  <path id="svg_160" d="m525.93287,465.20001a4.8,4.8 0 0 1 -1.44,-0.22c-2.19,-0.71 -3.41,-2.76 -3.63,-6.09c-0.72,-10.93 14.7,-19.24 16.46,-20.15a3.05,3.05 0 0 1 2.81,5.42c-3.53,1.83 -13.49,8.37 -13.19,14.26c2.27,-1.77 6,-6.3 7.78,-8.44l1.33,-1.6a3.05,3.05 0 0 1 4.68,3.92l-1.31,1.57c-5.57,6.73 -9.68,11.33 -13.49,11.33zm1.23,-5.44l0,0z" fill="#89898c"/>
  <path id="svg_161" d="m539.08287,435.02001a3,3 0 0 1 -2.83,-1.92c-1.56,-3.91 -8.35,-18.9 -16.21,-36.26c-11.06,-24.43 -24.83,-54.83 -28.93,-65.27c-16.73,-42.61 -32.51,-68.89 -44.45,-73.89a3.05,3.05 0 0 1 2.38,-5.62c17.25,7.3 35.49,46.07 47.75,77.3c4,10.3 17.77,40.62 28.81,65c7.89,17.43 14.7,32.48 16.31,36.52a3,3 0 0 1 -1.7,4a3,3 0 0 1 -1.13,0.14z" fill="#89898c"/>
  <path id="svg_162" d="m762.91287,450.57001a3,3 0 0 1 -0.72,-6l15,-3.66a3.34,3.34 0 0 1 1.09,-0.06c0.12,0 11.88,1.43 18,0.92a3.05,3.05 0 1 1 0.5,6.08c-6,0.49 -16.2,-0.59 -18.71,-0.88l-14.52,3.52a3,3 0 0 1 -0.64,0.08z" fill="#c84629"/>
  <path id="svg_163" d="m726.77287,464.41001a3.05,3.05 0 0 1 -1.77,-5.54c0.59,-0.41 14.48,-9.94 35.25,-5.33a3,3 0 0 1 -1.32,5.95c-18,-4 -30.31,4.29 -30.43,4.37a3,3 0 0 1 -1.73,0.55z" fill="#c84629"/>
  <path id="svg_164" d="m942.33287,204.75001s-32,48.74 -16.3,106.88l30.48,-4.67s-10.91,-53.47 0,-88.26l-14.18,-13.95z" fill="#e3f3ff"/>
  <path id="svg_165" d="m1193.13287,288.94001l-0.12,0a3,3 0 0 1 -2.93,-3.16a141.64,141.64 0 0 0 -69.6,-127.38a3,3 0 1 1 3.1,-5.25a147.73,147.73 0 0 1 72.6,132.86a3.06,3.06 0 0 1 -3.05,2.93z" fill="#34414c"/>
 </g>
</svg>