<svg xmlns="http://www.w3.org/2000/svg" enable-background="new 0 0 850 850" viewBox="212 255 425 340">
  <path fill="#f4e5e4" d="M281.14,584.23c-24.4-1.03-106.55-128.19-30.27-257.07c0,0,16.37-18.22,38.6-6.53c0,0,38.91,16.5,71.03-8.94    c0,0,58.68-39.18,96.97-38.49c0,0,45.71-3.44,95.74,59.8c0,0,52.5,62.55,75.36,116.85c0,0,22.85,59.11-76.59,139.54L281.14,584.23    z" />
  <polygon fill="#bd97f8" points="381.61 423.36 419.16 588.19 253.29 588.19 284.59 423.36" />
  <polygon fill="#915293" points="423.33 423.36 460.89 588.19 295.02 588.19 295.02 423.36" />
  <path fill="#e13268" d="M387.9,432.23h-8.97v-35.87c0-15.42-11.33-27.97-25.25-27.97c-13.92,0-25.25,12.55-25.25,27.97v35.87h-8.97     v-35.87c0-20.37,15.35-36.94,34.22-36.94s34.21,16.57,34.21,36.94V432.23z" />
  <circle cx="383.94" cy="439.82" r="9.33" fill="#e13268" />
  <circle cx="323.75" cy="439.82" r="9.33" fill="#e13268" />
  <rect width="104.55" height="49.08" x="314.42" y="484.78" fill="#dceff8" />
  <g>
    <path fill="#fba996" d="M317.38,290.48l8.62,8.38c1.1,1.07,2.75,1.37,4.15,0.75l14.07-6.2c0.6-0.26,1.11-0.68,1.49-1.22     c1.12-1.57,3.9-4.82,7.09-3.5c0.61,0.25,1.1,0.75,1.26,1.38c0.17,0.7,0.01,1.7-1.41,2.82c-0.36,0.28-0.67,0.61-0.94,0.98     c-0.75,1.01-2.42,2.95-4.08,2.74c-0.81-0.1-1.62,0.19-2.25,0.72c-3.51,2.93-13.31,10.85-19.16,12.88l-11.92-9.71L317.38,290.48z" />
    <path fill="#fec227" d="M311.82,295.82l3.86,6.15l3.73-10.99c-2.47-2.91-5.52-4.34-8.24-5.03l-0.61,3.27     C310.14,291.51,310.59,293.86,311.82,295.82z" />
    <path fill="#18217d" d="M299.14,261.26c-7.73-2.67-11.37,3.07-11.77,15.49c0,0-3.47,14.24-2.73,17.29l23.43-2.47v-5.93     c0,0,1.26-4.54,1.09-8.89c0,0,2.06-8.56-0.67-10.76c0,0-2.21-0.95-2.21-2.63C306.28,263.36,303.86,259.26,299.14,261.26z" />
    <path fill="#fba996" d="M288.24,300.78l-1,17.67c-0.02,0.38-0.08,0.75-0.19,1.11c-0.8,2.8-4.39,15.64-4.5,19.67     c-0.02,0.79-0.25,1.55-0.65,2.22l-3.27,5.44c-0.25,0.41-0.69,0.67-1.18,0.67l0,0c-0.55,0-1.04-0.32-1.26-0.82     c-0.61-1.42-1.43-4.42,0.98-6.95c0.73-0.76,1.16-1.76,1.3-2.8l2.41-18.33c0.02-0.16,0.04-0.32,0.04-0.48l0.97-20.21     L288.24,300.78z" />
    <polygon fill="#fba996" points="290.89 413.35 293.1 422.18 297.22 422.18 297.22 413.35" />
    <polygon fill="#fba996" points="327.09 413.35 332.39 422.18 336.12 422.18 333.86 413.35" />
    <path fill="#fb9847" d="M300.08,425.23c0-2.54-2.06-4.6-4.6-4.6c-2.54,0-4.6,2.06-4.6,4.6c0,0.21,0.02,0.42,0.05,0.62h9.1     C300.06,425.65,300.08,425.45,300.08,425.23z" />
    <path fill="#fb9847" d="M338.81,425.23c0-2.54-2.06-4.6-4.6-4.6c-2.54,0-4.6,2.06-4.6,4.6c0,0.21,0.02,0.42,0.05,0.62h9.1     C338.79,425.65,338.81,425.45,338.81,425.23z" />
    <polygon fill="#e89082" points="296.82 276.74 295.6 288.08 302.38 291.56 304.49 287.9 304.49 280.41" />
    <path fill="#fba996" d="M304.4,266.19c0,0-2.79,8.19-9.24,7.85c0,0-2.34,9.36,10.33,8.11c0.52-0.05,0.98-0.37,1.2-0.85     C307.89,278.72,311.17,270.16,304.4,266.19z" />
    <path fill="#195ecb" d="M281.48,298.97c0,0,0.27-7.48,6.82-11.34c1.98-1.17,4.54-0.6,5.91,1.25v0c1.19,1.6,1.2,3.78,0.03,5.39     l-5.71,7.86L281.48,298.97z" />
    <path fill="#915293" d="M286.39,322.78c-4.89,9.2-5.1,16.11-4.98,18.55c0.03,0.7,0.02,1.41-0.05,2.11     c-1.88,18.04,2.62,44.6,7.8,72.06l11.45,0v-54.63l0.06,0.13l-3.8-38.21H286.39z" />
    <path fill="#915293" d="M336.12,415.07l-23.19-77.72c-0.3-0.99-0.44-2.02-0.43-3.05l0.08-11.52h-18.05l3.45,32.07l26.7,60.64     L336.12,415.07z" />
    <path fill="#fb9847" d="M311.17,285.96c-3.87-0.98-7.1-0.44-7.1-0.44c-3.99,5.46-8.19,0-8.19,0c-3.71,0.17-6.47,1.24-8.51,2.71     c3.06,1.68,3.87,5.48,1.08,13.87l0.08,0.04c1.72,3.35,0.67,11.95,0.13,15.56c-0.15,1.03-0.51,2.01-1.04,2.91     c-0.44,0.74-0.84,1.47-1.22,2.18h26.18l0-0.46c0.01-0.91,0.13-1.82,0.37-2.7c3.77-13.74,2.68-17.5,2.68-17.5l0.05-0.15     C311.29,293.97,311.6,290.77,311.17,285.96z" />
    <path fill="#fec227" d="M287.37,288.22c-5.49,3.94-5.88,10.75-5.88,10.75l6.96,3.12C294.3,291.26,291.76,288.22,287.37,288.22z" />
  </g>
  <g>
    <polygon fill="#e89082" points="581.89 348.31 581.9 363.19 568.68 380.42 563.91 377.66 568.13 360.22 568.12 350.66" />
    <path fill="#fba996" d="M560.94,330.99c-3.02,21.46,9.96,36.37,24.56,16.89c7.23-0.01,3.82-11.48,3.82-11.48l-13.61-9.43     L560.94,330.99z" />
    <path fill="#18217d" d="M564.08,330.89c1.44,1.78,5.95,5.68,16.87,4.01c0.62-0.1,1.08,0.59,0.74,1.12     c-1.33,2.01-2.62,5.81,2.61,9.61c0,0-0.35-6.92,5.88-3.47l-0.01-13.57c0-2.51-1.57-4.76-3.94-5.61     c-5.92-2.13-17.24-5.54-24.75-3.68c-1.42,0.35-2.56,1.43-3,2.83c-0.52,1.67-0.9,4.08,0.18,6.19c0.4,0.78,0.61,1.64,0.52,2.52     c-0.26,2.68-0.51,8.33,1.57,10.66c-0.28-3.89,0.19-7.49,2.14-10.54C563.16,330.54,563.76,330.51,564.08,330.89z" />
    <path fill="#e13268" d="M557.32,569.65l-2.08,6.91c-0.21,0.71-0.87,1.2-1.61,1.2l0,0c-0.58,0-1.12-0.3-1.43-0.79l-0.79-1.27     l-0.54,0.83c-0.71,1.1-1.9,1.79-3.2,1.87l-16.7,1.08c-0.64,0.04-1.17-0.46-1.17-1.1l0,0c0-0.39,0.2-0.75,0.54-0.95l16.32-9.71     L557.32,569.65z" />
    <path fill="#e13268" d="M600.06,569.65l2.08,6.91c0.21,0.71,0.87,1.2,1.61,1.2l0,0c0.58,0,1.12-0.3,1.43-0.79l0.79-1.27l0.54,0.83     c0.71,1.1,1.9,1.79,3.2,1.87l16.7,1.08c0.64,0.04,1.17-0.46,1.17-1.1l0,0c0-0.39-0.2-0.75-0.54-0.95l-16.32-9.71L600.06,569.65z" />
    <path fill="#fb9847" d="M552.54,443.39l-8.01,126.42c4.45,4.15,13.21,2.06,13.21,2.06c12.44-32.39,19.86-63.96,23.02-94.83     l1.75-34.56L552.54,443.39z" />
    <path fill="#fb9847" d="M601.51,441.91l-25.6-0.27l1.9,24.23c0.09-0.93,3.14,9.32,3.23,8.39c-0.59,32.9,19.29,97.34,19.29,97.34     c4.15,1.19,12.46-1.78,12.46-1.78L601.51,441.91z" />
    <path fill="#e13268" d="M586.27,363.95c0.8-0.97,25.57,4,23.81,7.2c-12.03,21.87-11.21,46.8-5.31,74h-56.5     c2.48-17.71,1.73-31.47-3.98-39.17c1.95-2.76,12.08-36.39,9.49-40.75l11.61-1.27l7.92,5.14l7.63-0.72L586.27,363.95z" />
    <path fill="#ff5b7e" d="M600.79,404.49c0,0,0.06,20.48,2.02,30.57l-12.93,1.92c-1.87,0.28-3.78,0.1-5.57-0.52l-16.19-5.6     c-4.01-1.39-6.21-5.68-5-9.75l3.79-12.73c1-3.36,3.72-5.94,7.14-6.75C581.02,400,592.96,398.48,600.79,404.49z" />
    <path fill="#fba996" d="M507.91,380.58c0,0-0.18-7.53-6.38-10.95c-0.76-0.42-1.46-0.94-2.03-1.59l-1.17-1.33     c-1.4-1.59-3.75-1.91-5.52-0.75l-1.44,0.94c-1.88,1.23-2.48,3.72-1.36,5.67l1.59,2.77c0.47,0.82,1.14,1.52,1.94,2.02     c2.45,1.54,7.89,5.2,8.64,7.93L507.91,380.58z" />
    <path fill="#e13268" d="M554.68,365.12c-8.67,1.62-16.15,15.02-22.76,36.91l-24.02-23.62l-8.66,7.28c0,0,15.26,22.68,27.05,32.78     c3.23,2.77,8.03,2.61,11.04-0.4l8.37-8.37l8.98-34.73V365.12z" />
    <path fill="#18217d" d="M562.82,430.89h-19.66c-4.57,0-8.28-3.71-8.28-8.28v-24.78c0-4.57,3.71-8.28,8.28-8.28h19.66     c4.57,0,8.28,3.71,8.28,8.28v24.78C571.1,427.18,567.39,430.89,562.82,430.89z" />
    <path fill="#fb9847" d="M575.92,368.52l-3.66,4.24l1.35,3.97l0.93,42.15l5.68,9.5c0,0,6.09-7.31,4.63-15.11     c0,0-4.62-31.02-6.18-36.79l1.31-5.12L575.92,368.52z" />
    <polygon fill="#ffc1bb" points="567.79 359.51 575.92 368.52 571.93 376.23 560.95 364.44" />
    <polygon fill="#ffc1bb" points="575.92 368.52 581.95 359.8 589.49 364.46 581.19 376.23" />
    <path fill="#fba996" d="M574.08,410.61c0,0-4.8-6.93-11.52-4.42c-0.78,0.29-1.6,0.48-2.43,0.48h-4.14c-1.25,0-2.26,1.01-2.26,2.26     v5.41c0,0.95,0.6,1.8,1.49,2.12l2.97,1.07c0.99,0.36,2.05,0.49,3.1,0.37c2.84-0.31,8.75-0.9,11.07-0.61L574.08,410.61z" />
    <path fill="#e13268" d="M598.7,378.39l7.46,34.39l-33.82-3.74l-0.75,10.04c0,0,22.29,9.83,39.81,10c4.13,0.04,8.01-2.2,9.93-5.86     c5.89-11.23,2.4-28.52-7.44-49.91c-1.67-3.62-5.74-5.48-9.57-4.36h0C600.26,370.12,597.8,374.25,598.7,378.39z" />
  </g>
  <g>
    <path fill="#7a8fd3" d="M459.08,369.9l28.47-9.62l2.46-20l-25.29-16.24C456.47,323.02,450.82,368.88,459.08,369.9z" />
    <path fill="#e6e6e6" d="M511.16,346.08c0.99,0.12,1.7,1.02,1.57,2.02l-1.25,10.12c-0.12,0.99-1.02,1.7-2.02,1.57l-11.65-1.43     l1.69-13.71L511.16,346.08z" />
    <path fill="#e6e6e6" d="M488.47,369.8c-0.45-0.16-0.69-0.65-0.53-1.1l1.6-4.58c0.16-0.45,0.65-0.69,1.1-0.53l5.27,1.84l-2.16,6.2     L488.47,369.8z" />
    <path fill="#fb9847" d="M486.51,377.14l7.13-19.57l9.09,1.12l-7.41,20.33c-0.28,0.76-1.05,1.24-1.86,1.14l-5.53-0.68     C486.82,379.33,486.12,378.2,486.51,377.14z" />
    <path fill="#fb9847" d="M507.03,342.36c1.45,0.18,2.48,1.5,2.3,2.95l-1.82,14.79c-0.18,1.45-1.5,2.48-2.95,2.3l-17.01-2.1     l2.47-20.03L507.03,342.36z" />
    <polygon fill="#fb9847" points="467.46 352.87 461.11 350.76 462.05 343.1 468.73 342.6" />
    <ellipse cx="461.58" cy="346.93" fill="#cc4040" rx="3.86" ry="1.93" transform="rotate(-82.975 461.598 346.925)" />
    <ellipse cx="461.58" cy="346.93" fill="#2b468a" rx="2.68" ry=".77" transform="rotate(-82.975 461.598 346.925)" />
    <g>
      <path fill="#362a37" d="M454.29,362.73c-0.65-4.56-0.6-10.48,0.17-16.68s2.14-11.96,3.88-16.22c1.99-4.87,4.19-7.2,6.52-6.91      c2.34,0.29,3.9,3.08,4.65,8.29c0.65,4.56,0.6,10.48-0.17,16.68c-0.76,6.2-2.14,11.96-3.88,16.22c-1.99,4.87-4.19,7.2-6.52,6.91      C456.6,370.73,455.04,367.94,454.29,362.73z M460.68,330.79c-1.66,4.06-2.98,9.59-3.72,15.57s-0.8,11.67-0.18,16.01      c0.68,4.7,1.91,6.08,2.46,6.14c0.56,0.07,2.08-0.96,3.88-5.36c1.66-4.06,2.98-9.59,3.72-15.57c0.74-5.98,0.8-11.67,0.18-16.01      c-0.68-4.7-1.91-6.08-2.46-6.14C464,325.36,462.47,326.39,460.68,330.79z" />
    </g>
  </g>
  <g>
    <path fill="#fb9847" d="M326.12,515.79c0.59,2.61,2.47,3.76,5.48,3.76c3,0,4.29-1.19,4.29-3.09c0-2.12-1.25-3.04-5.7-4.07    c-7.08-1.66-8.83-4.24-8.83-7.75c0-4.53,3.39-7.61,9.55-7.61c6.91,0,9.66,3.71,10.03,7.52h-5.67c-0.27-1.6-1.16-3.34-4.51-3.34    c-2.28,0-3.66,0.94-3.66,2.79c0,1.81,1.1,2.54,5.31,3.52c7.57,1.78,9.23,4.6,9.23,8.27c0,4.75-3.59,8.01-10.47,8.01    c-6.6,0-10.08-3.25-10.71-7.99H326.12z" />
    <path fill="#fb9847" d="M351.37,517.4l-2.03,6.01h-5.53l8.83-26.02h7.07l9.22,26.02h-5.91l-2.14-6.01H351.37z M359.66,512.79    c-1.85-5.49-3.02-9-3.65-11.34h-0.04c-0.64,2.56-1.94,6.65-3.42,11.34H359.66z" />
    <path fill="#fb9847" d="M372.26,497.4h5.63v21.4h12.96l-0.64,4.61h-17.94V497.4z" />
    <path fill="#fb9847" d="M412.08,512.19h-12.44v6.61h13.72l-0.67,4.61h-18.52V497.4h18.45v4.61h-12.99v5.57h12.44V512.19z" />
  </g>
</svg>